{
.appVersion = "3091";
.formatVersion = 3;
axes = (
{
name = Weight;
tag = wght;
}
);
classes = (
{
automatic = 1;

glyphs = (
{
glyphname = A;
lastChange = "2021-06-30 11:00:49 +0000";
layers = (
{
anchors = (
{
name = bottom;
pos = (440,0);
},
{
name = ogonek;
pos = (720,0);
},
{
name = right;
pos = (840,0);
},
{
name = top;
pos = (460,840);
}
);
layerId = "EBA0A543-5703-488C-9449-531557917997";
shapes = (
{
closed = 1;
nodes = (
(280,0,l),
(200,80,l),
(240,200,l),
(518,200,l),
(560,200,l),
(573,161,l),
(600,80,l),
(520,0,l),
(880,0,l),
(800,80,l),
(520,840,l),
(360,760,l),
(360,720,l),
(80,80,l),
(0,0,l)
);
},
{
closed = 1;
nodes = (
(310,360,l),
(400,600,l),
(400,640,l),
(514,298,l),
(520,280,l),
(496,280,l),
(280,280,l)
);
}
);
userData = {
com.typemytype.robofont.layerData = {
regular = {
anchors = (
);
components = (
);
contours = (
{
points = (
{
segmentType = line;
smooth = 0;
x = 220;
y = 0;
},
{
segmentType = line;
smooth = 0;
x = -20;
y = 0;
},
{
segmentType = line;
smooth = 0;
x = 60;
y = 80;
},
{
segmentType = line;
smooth = 0;
x = 300;
y = 720;
},
{
segmentType = line;
smooth = 0;
x = 300;
y = 760;
},
{
segmentType = line;
smooth = 0;
x = 380;
y = 840;
},
{
segmentType = line;
smooth = 0;
x = 660;
y = 80;
},
{
segmentType = line;
smooth = 0;
x = 740;
y = 0;
},
{
segmentType = line;
smooth = 0;
x = 500;
y = 0;
},
{
segmentType = line;
smooth = 0;
x = 540;
y = 80;
},
{
segmentType = line;
smooth = 0;
x = 483;
y = 240;
},
{
segmentType = line;
smooth = 0;
x = 197;
y = 240;
},
{
segmentType = line;
smooth = 0;
x = 140;
y = 80;
}
);
},
{
points = (
{
segmentType = line;
smooth = 0;
x = 340;
y = 640;
},
{
segmentType = line;
smooth = 0;
x = 211;
y = 280;
},
{
segmentType = line;
smooth = 0;
x = 468;
y = 280;
}
);
}
);
lib = {
};
name = A;
unicodes = (
);
width = 880;
};
};
com.typemytype.robofont.mark = (
0.001,
0.822,
0.283,
1
);
};
width = 880;
},
{
anchors = (
{
name = bottom;
pos = (360,0);
},
{
name = ogonek;
pos = (640,0);
},
{
name = right;
pos = (721,0);
},
{
name = top;
pos = (380,840);
}
);
layerId = master01;
shapes = (
{
closed = 1;
nodes = (
(240,0,l),
(160,80,l),
(217,240,l),
(477,240,l),
(503,240,l),
(517,201,l),
(560,80,l),
(520,0,l),
(760,0,l),
(680,80,l),
(400,840,l),
(320,760,l),
(320,720,l),
(80,80,l),
(0,0,l)
);
},
{
closed = 1;
nodes = (
(254,334,l),
(351,613,l),
(360,640,l),
(473,314,l),
(485,280,l),
(447,280,l),
(235,280,l)
);
}
);
width = 760;
},
{
anchors = (
{
name = bottom;
pos = (360,0);
},
{
name = ogonek;
pos = (640,0);
},
{
name = right;
pos = (721,0);
},
{
name = top;
pos = (380,840);
}
);
layerId = m003;
shapes = (
{
closed = 1;
nodes = (
(200,0,l),
(120,40,l),
(187,240,l),
(517,240,l),
(543,240,l),
(557,201,l),
(600,40,l),
(520,0,l),
(760,0,l),
(680,40,l),
(400,840,l),
(320,760,l),
(320,720,l),
(80,40,l),
(0,0,l)
);
},
{
closed = 1;
nodes = (
(214,334,l),
(360,720,l),
(360,760,l),
(513,314,l),
(525,280,l),
(487,280,l),
(195,280,l)
);
}
);
width = 760;
}
);
unicode = 65;
},
{
glyphname = AE;
lastChange = "2021-06-23 20:50:21 +0000";
layers = (
{
anchors = (
{
name = bottom;
pos = (560,0);
},
{
name = top;
pos = (720,840);
}
);
layerId = "EBA0A543-5703-488C-9449-531557917997";
shapes = (
{
closed = 1;
nodes = (
(1080,280,l),
(1040,280,l),
(920,80,l),
(760,80,l),
(720,120,l),
(720,320,l),
(760,360,l),
(840,360,l),
(960,240,l),
(960,560,l),
(840,440,l),
(760,440,l),
(720,480,l),
(720,680,l),
(760,720,l),
(880,720,l),
(1000,560,l),
(1040,560,l),
(1000,840,l),
(840,800,l),
(480,800,l),
(440,728,l),
(80,80,l),
(0,0,l),
(280,0,l),
(200,80,l),
(280,240,l),
(520,240,l),
(520,200,l),
(520,80,l),
(440,0,l),
(960,0,l),
(1040,-40,l)
);
},
{
closed = 1;
nodes = (
(360,400,l),
(520,720,l),
(520,680,l),
(520,360,l),
(520,320,l),
(320,320,l)
);
}
);
userData = {
com.schriftgestaltung.Glyphs.lastChange = "2020-08-21 16:02:42 +0000";
com.typemytype.robofont.layerData = {
background = {
anchors = (
{
name = top;
x = 760;
y = 840;
},
{
name = right;
x = 1120;
y = 0;
},
{
name = bottom;
x = 800;
y = 0;
}
);
components = (
);
contours = (
{
points = (
{
segmentType = line;
smooth = 0;
x = 1120;
y = 280;
},
{
segmentType = line;
smooth = 0;
x = 1080;
y = -40;
},
{
segmentType = line;
smooth = 0;
x = 1000;
y = 0;
},
{
segmentType = line;
smooth = 0;
x = 440;
y = 0;
},
{
segmentType = line;
smooth = 0;
x = 520;
y = 80;
},
{
segmentType = line;
smooth = 0;
x = 520;
y = 720;
},
{
segmentType = line;
smooth = 0;
x = 440;
y = 800;
},
{
segmentType = line;
smooth = 0;
x = 880;
y = 800;
},
{
segmentType = line;
smooth = 0;
x = 1040;
y = 840;
},
{
segmentType = line;
smooth = 0;
x = 1080;
y = 560;
},
{
segmentType = line;
smooth = 0;
x = 1040;
y = 560;
},
{
segmentType = line;
smooth = 0;
x = 920;
y = 720;
},
{
segmentType = line;
smooth = 0;
x = 760;
y = 720;
},
{
segmentType = line;
smooth = 0;
x = 720;
y = 680;
},
{
segmentType = line;
smooth = 0;
x = 720;
y = 480;
},
{
segmentType = line;
smooth = 0;
x = 760;
y = 440;
},
{
segmentType = line;
smooth = 0;
x = 880;
y = 440;
},
{
segmentType = line;
smooth = 0;
x = 1000;
y = 560;
},
{
segmentType = line;
smooth = 0;
x = 1000;
y = 240;
},
{
segmentType = line;
smooth = 0;
x = 880;
y = 360;
},
{
segmentType = line;
smooth = 0;
x = 760;
y = 360;
},
{
segmentType = line;
smooth = 0;
x = 720;
y = 320;
},
{
segmentType = line;
smooth = 0;
x = 720;
y = 120;
},
{
segmentType = line;
smooth = 0;
x = 760;
y = 80;
},
{
segmentType = line;
smooth = 0;
x = 960;
y = 80;
},
{
segmentType = line;
smooth = 0;
x = 1080;
y = 280;
}
);
},
{
points = (
{
segmentType = line;
smooth = 0;
x = 320;
y = 0;
},
{
segmentType = line;
smooth = 0;
x = 40;
y = 0;
},
{
segmentType = line;
smooth = 0;
x = 120;
y = 80;
},
{
segmentType = line;
smooth = 0;
x = 400;
y = 720;
},
{
segmentType = line;
smooth = 0;
x = 400;
y = 760;
},
{
segmentType = line;
smooth = 0;
x = 560;
y = 840;
},
{
segmentType = line;
smooth = 0;
x = 840;
y = 80;
},
{
segmentType = line;
smooth = 0;
x = 920;
y = 0;
},
{
segmentType = line;
smooth = 0;
x = 560;
y = 0;
},
{
segmentType = line;
smooth = 0;
x = 640;
y = 80;
},
{
segmentType = line;
smooth = 0;
x = 600;
y = 200;
},
{
segmentType = line;
smooth = 0;
x = 280;
y = 200;
},
{
segmentType = line;
smooth = 0;
x = 240;
y = 80;
}
);
},
{
points = (
{
segmentType = line;
smooth = 0;
x = 440;
y = 640;
},
{
segmentType = line;
smooth = 0;
x = 440;
y = 600;
},
{
segmentType = line;
smooth = 0;
x = 320;
y = 280;
},
{
segmentType = line;
smooth = 0;
x = 560;
y = 280;
}
);
}
);
lib = {
com.typemytype.robofont.layerData = {
background = {
anchors = (
);
components = (
);
contours = (
);
lib = {
};
name = E;
unicodes = (
);
width = 760;
};
regular = {
anchors = (
);
components = (
);
contours = (
{
points = (
{
segmentType = line;
smooth = 0;
x = 680;
y = 240;
},
{
segmentType = line;
smooth = 0;
x = 640;
y = -40;
},
{
segmentType = line;
smooth = 0;
x = 560;
y = 0;
},
{
segmentType = line;
smooth = 0;
x = 40;
y = 0;
},
{
segmentType = line;
smooth = 0;
x = 120;
y = 80;
},
{
segmentType = line;
smooth = 0;
x = 120;
y = 720;
},
{
segmentType = line;
smooth = 0;
x = 40;
y = 800;
},
{
segmentType = line;
smooth = 0;
x = 440;
y = 800;
},
{
segmentType = line;
smooth = 0;
x = 600;
y = 840;
},
{
segmentType = line;
smooth = 0;
x = 640;
y = 600;
},
{
segmentType = line;
smooth = 0;
x = 600;
y = 600;
},
{
segmentType = line;
smooth = 0;
x = 480;
y = 760;
},
{
segmentType = line;
smooth = 0;
x = 280;
y = 760;
},
{
segmentType = line;
smooth = 0;
x = 240;
y = 720;
},
{
segmentType = line;
smooth = 0;
x = 240;
y = 480;
},
{
segmentType = line;
smooth = 0;
x = 280;
y = 440;
},
{
segmentType = line;
smooth = 0;
x = 440;
y = 440;
},
{
segmentType = line;
smooth = 0;
x = 520;
y = 520;
},
{
segmentType = line;
smooth = 0;
x = 520;
y = 320;
},
{
segmentType = line;
smooth = 0;
x = 440;
y = 400;
},
{
segmentType = line;
smooth = 0;
x = 280;
y = 400;
},
{
segmentType = line;
smooth = 0;
x = 240;
y = 360;
},
{
segmentType = line;
smooth = 0;
x = 240;
y = 80;
},
{
segmentType = line;
smooth = 0;
x = 280;
y = 40;
},
{
segmentType = line;
smooth = 0;
x = 520;
y = 40;
},
{
segmentType = line;
smooth = 0;
x = 640;
y = 240;
}
);
}
);
lib = {
};
name = E;
unicodes = (
);
width = 760;
};
};
};
name = AE;
unicodes = (
);
width = 1120;
};
regular = {
anchors = (
);
components = (
);
contours = (
{
points = (
{
segmentType = line;
smooth = 0;
x = 1080;
y = 240;
},
{
segmentType = line;
smooth = 0;
x = 1040;
y = -40;
},
{
segmentType = line;
smooth = 0;
x = 960;
y = 0;
},
{
segmentType = line;
smooth = 0;
x = 440;
y = 0;
},
{
segmentType = line;
smooth = 0;
x = 520;
y = 80;
},
{
segmentType = line;
smooth = 0;
x = 520;
y = 240;
},
{
segmentType = line;
smooth = 0;
x = 270;
y = 240;
},
{
segmentType = line;
smooth = 0;
x = 200;
y = 80;
},
{
segmentType = line;
smooth = 0;
x = 280;
y = 0;
},
{
segmentType = line;
smooth = 0;
x = 40;
y = 0;
},
{
segmentType = line;
smooth = 0;
x = 120;
y = 80;
},
{
segmentType = line;
smooth = 0;
x = 440;
y = 800;
},
{
segmentType = line;
smooth = 0;
x = 840;
y = 800;
},
{
segmentType = line;
smooth = 0;
x = 1000;
y = 840;
},
{
segmentType = line;
smooth = 0;
x = 1040;
y = 600;
},
{
segmentType = line;
smooth = 0;
x = 1000;
y = 600;
},
{
segmentType = line;
smooth = 0;
x = 880;
y = 760;
},
{
segmentType = line;
smooth = 0;
x = 680;
y = 760;
},
{
segmentType = line;
smooth = 0;
x = 640;
y = 720;
},
{
segmentType = line;
smooth = 0;
x = 640;
y = 480;
},
{
segmentType = line;
smooth = 0;
x = 680;
y = 440;
},
{
segmentType = line;
smooth = 0;
x = 840;
y = 440;
},
{
segmentType = line;
smooth = 0;
x = 920;
y = 520;
},
{
segmentType = line;
smooth = 0;
x = 920;
y = 320;
},
{
segmentType = line;
smooth = 0;
x = 840;
y = 400;
},
{
segmentType = line;
smooth = 0;
x = 680;
y = 400;
},
{
segmentType = line;
smooth = 0;
x = 640;
y = 360;
},
{
segmentType = line;
smooth = 0;
x = 640;
y = 80;
},
{
segmentType = line;
smooth = 0;
x = 680;
y = 40;
},
{
segmentType = line;
smooth = 0;
x = 920;
y = 40;
},
{
segmentType = line;
smooth = 0;
x = 1040;
y = 240;
}
);
},
{
points = (
{
segmentType = line;
smooth = 0;
x = 480;
y = 720;
},
{
segmentType = line;
smooth = 0;
x = 287;
y = 280;
},
{
segmentType = line;
smooth = 0;
x = 520;
y = 280;
},
{
segmentType = line;
smooth = 0;
x = 520;
y = 680;
}
);
}
);
lib = {
};
name = AE;
unicodes = (
);
width = 1120;
};
};
com.typemytype.robofont.mark = (
0.001,
0.822,
0.283,
1
);
};
width = 1120;
},
{
anchors = (
{
name = bottom;
pos = (520,0);
},
{
name = top;
pos = (640,840);
}
);
layerId = master01;
shapes = (
{
closed = 1;
nodes = (
(1040,240,l),
(1000,240,l),
(880,40,l),
(640,40,l),
(600,80,l),
(600,360,l),
(640,400,l),
(800,400,l),
(880,320,l),
(880,520,l),
(800,440,l),
(640,440,l),
(600,480,l),
(600,720,l),
(640,760,l),
(840,760,l),
(960,600,l),
(1000,600,l),
(960,840,l),
(800,800,l),
(400,800,l),
(360,710,l),
(80,80,l),
(0,0,l),
(240,0,l),
(160,80,l),
(230,240,l),
(480,240,l),
(480,200,l),
(480,80,l),
(400,0,l),
(920,0,l),
(1000,-40,l)
);
},
{
closed = 1;
nodes = (
(282,360,l),
(440,720,l),
(480,680,l),
(480,320,l),
(480,280,l),
(247,280,l)
);
}
);
width = 1080;
},
{
anchors = (
{
name = bottom;
pos = (520,0);
},
{
name = top;
pos = (640,840);
}
);
layerId = m003;
shapes = (
{
closed = 1;
nodes = (
(1000,240,l),
(960,240,l),
(880,40,l),
(640,40,l),
(600,40,l),
(600,360,l),
(640,400,l),
(840,400,l),
(880,320,l),
(880,520,l),
(840,440,l),
(640,440,l),
(600,480,l),
(600,720,l),
(640,760,l),
(840,760,l),
(920,600,l),
(960,600,l),
(880,840,l),
(760,800,l),
(360,800,l),
(360,720,l),
(80,40,l),
(0,0,l),
(200,0,l),
(120,40,l),
(200,240,l),
(520,240,l),
(520,200,l),
(520,40,l),
(440,0,l),
(880,0,l),
(920,-40,l)
);
},
{
closed = 1;
nodes = (
(252,360,l),
(400,760,l),
(520,720,l),
(520,320,l),
(520,280,l),
(217,280,l)
);
}
);
width = 1040;
}
);
unicode = 198;
},
{
glyphname = B;
lastChange = "2021-06-30 21:02:06 +0000";
layers = (
{
anchors = (
{
name = bottom;
pos = (360,0);
},
{
name = center;
pos = (160,420);
},
{
name = top;
pos = (360,840);
}
);
layerId = "EBA0A543-5703-488C-9449-531557917997";
shapes = (
{
closed = 1;
nodes = (
(480,0,l),
(680,80,l),
(760,240,l),
(680,400,l),
(520,440,l),
(640,480,l),
(720,600,l),
(640,760,l),
(400,800,l),
(0,800,l),
(80,720,l),
(80,80,l),
(0,0,l)
);
},
{
closed = 1;
nodes = (
(280,120,l),
(280,680,l),
(320,720,l),
(400,720,l),
(480,680,l),
(520,600,l),
(440,480,l),
(320,440,l),
(280,440,l),
(280,400,l),
(360,400,l),
(480,360,l),
(560,240,l),
(520,120,l),
(400,80,l),
(320,80,l)
);
}
);
userData = {
com.typemytype.robofont.layerData = {
regular = {
anchors = (
);
components = (
);
contours = (
{
points = (
{
segmentType = line;
smooth = 0;
x = 60;
y = 800;
},
{
segmentType = line;
smooth = 0;
x = 420;
y = 800;
},
{
segmentType = line;
smooth = 0;
x = 620;
y = 760;
},
{
segmentType = line;
smooth = 0;
x = 700;
y = 600;
},
{
segmentType = line;
smooth = 0;
x = 620;
y = 480;
},
{
segmentType = line;
smooth = 0;
x = 540;
y = 440;
},
{
segmentType = line;
smooth = 0;
x = 660;
y = 400;
},
{
segmentType = line;
smooth = 0;
x = 740;
y = 240;
},
{
segmentType = line;
smooth = 0;
x = 660;
y = 80;
},
{
segmentType = line;
smooth = 0;
x = 500;
y = 0;
},
{
segmentType = line;
smooth = 0;
x = 60;
y = 0;
},
{
segmentType = line;
smooth = 0;
x = 140;
y = 80;
},
{
segmentType = line;
smooth = 0;
x = 140;
y = 720;
}
);
},
{
points = (
{
segmentType = line;
smooth = 0;
x = 300;
y = 760;
},
{
segmentType = line;
smooth = 0;
x = 260;
y = 720;
},
{
segmentType = line;
smooth = 0;
x = 260;
y = 440;
},
{
segmentType = line;
smooth = 0;
x = 340;
y = 440;
},
{
segmentType = line;
smooth = 0;
x = 500;
y = 480;
},
{
segmentType = line;
smooth = 0;
x = 540;
y = 600;
},
{
segmentType = line;
smooth = 0;
x = 500;
y = 720;
},
{
segmentType = line;
smooth = 0;
x = 420;
y = 760;
}
);
},
{
points = (
{
segmentType = line;
smooth = 0;
x = 260;
y = 400;
},
{
segmentType = line;
smooth = 0;
x = 260;
y = 80;
},
{
segmentType = line;
smooth = 0;
x = 300;
y = 40;
},
{
segmentType = line;
smooth = 0;
x = 420;
y = 40;
},
{
segmentType = line;
smooth = 0;
x = 540;
y = 120;
},
{
segmentType = line;
smooth = 0;
x = 580;
y = 240;
},
{
segmentType = line;
smooth = 0;
x = 500;
y = 360;
},
{
segmentType = line;
smooth = 0;
x = 340;
y = 400;
}
);
}
);
lib = {
};
name = B;
unicodes = (
);
width = 800;
};
};
com.typemytype.robofont.mark = (
0.001,
0.822,
0.283,
1
);
};
width = 800;
},
{
anchors = (
{
name = bottom;
pos = (360,0);
},
{
name = center;
pos = (180,420);
},
{
name = top;
pos = (360,840);
}
);
layerId = master01;
shapes = (
{
closed = 1;
nodes = (
(480,0,l),
(640,80,l),
(720,240,l),
(640,400,l),
(520,440,l),
(600,480,l),
(680,600,l),
(600,760,l),
(400,800,l),
(40,800,l),
(120,720,l),
(120,80,l),
(40,0,l)
);
},
{
closed = 1;
nodes = (
(240,80,l),
(240,720,l),
(280,760,l),
(400,760,l),
(480,720,l),
(520,600,l),
(480,480,l),
(320,440,l),
(240,440,l),
(240,400,l),
(320,400,l),
(480,360,l),
(560,240,l),
(520,120,l),
(400,40,l),
(280,40,l)
);
}
);
width = 760;
},
{
anchors = (
{
name = bottom;
pos = (320,0);
},
{
name = center;
pos = (140,420);
},
{
name = top;
pos = (320,840);
}
);
layerId = m003;
shapes = (
{
closed = 1;
nodes = (
(400,0,l),
(560,80,l),
(640,240,l),
(560,400,l),
(440,440,l),
(520,480,l),
(600,600,l),
(520,760,l),
(320,800,l),
(40,800,l),
(120,760,l),
(120,40,l),
(40,0,l)
);
},
{
closed = 1;
nodes = (
(160,40,l),
(160,760,l),
(240,760,l),
(320,760,l),
(470,720,l),
(520,600,l),
(480,520,l),
(360,440,l),
(160,440,l),
(160,400,l),
(400,400,l),
(520,360,l),
(560,240,l),
(520,120,l),
(400,40,l),
(240,40,l)
);
}
);
width = 680;
}
);
unicode = 66;
},
{
glyphname = BITCOIN;
lastChange = "2021-06-30 14:59:06 +0000";
layers = (
{
layerId = "EBA0A543-5703-488C-9449-531557917997";
shapes = (
{
closed = 1;
nodes = (
(400,200,l),
(400,280,l),
(0,280,l),
(0,200,l)
);
},
{
ref = B;
}
);
userData = {
com.typemytype.robofont.layerData = {
regular = {
anchors = (
);
components = (
{
baseGlyph = B;
transformation = (
1,
0,
0,
1,
0,
0
);
},
{
baseGlyph = endash;
transformation = (
1,
0,
0,
1,
-60,
-80
);
}
);
contours = (
);
lib = {
};
name = BITCOIN;
unicodes = (
);
width = 760;
};
};
com.typemytype.robofont.mark = (
0.001,
0.822,
0.283,
1
);
};
width = 760;
},
{
layerId = master01;
shapes = (
{
closed = 1;
nodes = (
(340,200,l),
(340,240,l),
(20,240,l),
(20,200,l)
);
},
{
ref = B;
}
);
width = 760;
},
{
layerId = m003;
shapes = (
{
closed = 1;
nodes = (
(240,200,l),
(360,240,l),
(120,240,l),
(0,200,l)
);
},
{
ref = B;
}
);
width = 680;
}
);
unicode = 579;
},
{
glyphname = C;
lastChange = "2021-06-23 23:13:22 +0000";
layers = (
{
anchors = (
{
name = bottom;
pos = (480,0);
},
{
name = top;
pos = (480,840);
}
);
layerId = "EBA0A543-5703-488C-9449-531557917997";
shapes = (
{
closed = 1;
nodes = (
(560,0,l),
(720,80,l),
(800,200,l),
(720,240,l),
(640,120,l),
(520,80,l),
(440,80,l),
(360,120,l),
(280,240,l),
(280,560,l),
(360,680,l),
(440,720,l),
(520,720,l),
(600,680,l),
(600,480,l),
(720,480,l),
(800,600,l),
(720,720,l),
(560,800,l),
(360,800,l),
(200,720,l),
(80,600,l),
(40,400,l),
(80,200,l),
(200,80,l),
(360,0,l)
);
}
);
userData = {
com.typemytype.robofont.layerData = {
background = {
anchors = (
{
name = top;
x = 440;
y = 840;
},
{
name = bottom;
x = 440;
y = 0;
}
);
components = (
);
contours = (
{
points = (
{
segmentType = line;
smooth = 0;
x = 480;
y = 80;
},
{
segmentType = line;
smooth = 0;
x = 440;
y = 80;
},
{
segmentType = line;
smooth = 0;
x = 360;
y = 120;
},
{
segmentType = line;
smooth = 0;
x = 280;
y = 240;
},
{
segmentType = line;
smooth = 0;
x = 280;
y = 400;
},
{
segmentType = line;
smooth = 0;
x = 280;
y = 560;
},
{
segmentType = line;
smooth = 0;
x = 360;
y = 680;
},
{
segmentType = line;
smooth = 0;
x = 440;
y = 720;
},
{
segmentType = line;
smooth = 0;
x = 480;
y = 720;
},
{
segmentType = line;
smooth = 0;
x = 560;
y = 680;
},
{
segmentType = line;
smooth = 0;
x = 640;
y = 560;
},
{
segmentType = line;
smooth = 0;
x = 640;
y = 400;
},
{
segmentType = line;
smooth = 0;
x = 640;
y = 240;
},
{
segmentType = line;
smooth = 0;
x = 560;
y = 120;
}
);
},
{
points = (
{
segmentType = line;
smooth = 0;
x = 360;
y = 0;
},
{
segmentType = line;
smooth = 0;
x = 560;
y = 0;
},
{
segmentType = line;
smooth = 0;
x = 720;
y = 80;
},
{
segmentType = line;
smooth = 0;
x = 840;
y = 200;
},
{
segmentType = line;
smooth = 0;
x = 880;
y = 400;
},
{
segmentType = line;
smooth = 0;
x = 840;
y = 600;
},
{
segmentType = line;
smooth = 0;
x = 720;
y = 720;
},
{
segmentType = line;
smooth = 0;
x = 560;
y = 800;
},
{
segmentType = line;
smooth = 0;
x = 360;
y = 800;
},
{
segmentType = line;
smooth = 0;
x = 200;
y = 720;
},
{
segmentType = line;
smooth = 0;
x = 80;
y = 600;
},
{
segmentType = line;
smooth = 0;
x = 40;
y = 400;
},
{
segmentType = line;
smooth = 0;
x = 80;
y = 200;
},
{
segmentType = line;
smooth = 0;
x = 200;
y = 80;
}
);
}
);
lib = {
com.typemytype.robofont.layerData = {
background = {
anchors = (
);
components = (
);
contours = (
);
lib = {
};
name = O;
unicodes = (
);
width = 920;
};
regular = {
anchors = (
);
components = (
);
contours = (
{
points = (
{
segmentType = line;
smooth = 0;
x = 720;
y = 80;
},
{
segmentType = line;
smooth = 0;
x = 560;
y = 0;
},
{
segmentType = line;
smooth = 0;
x = 320;
y = 0;
},
{
segmentType = line;
smooth = 0;
x = 160;
y = 80;
},
{
segmentType = line;
smooth = 0;
x = 80;
y = 200;
},
{
segmentType = line;
smooth = 0;
x = 40;
y = 400;
},
{
segmentType = line;
smooth = 0;
x = 80;
y = 600;
},
{
segmentType = line;
smooth = 0;
x = 160;
y = 720;
},
{
segmentType = line;
smooth = 0;
x = 320;
y = 800;
},
{
segmentType = line;
smooth = 0;
x = 560;
y = 800;
},
{
segmentType = line;
smooth = 0;
x = 720;
y = 720;
},
{
segmentType = line;
smooth = 0;
x = 800;
y = 600;
},
{
segmentType = line;
smooth = 0;
x = 840;
y = 400;
},
{
segmentType = line;
smooth = 0;
x = 800;
y = 200;
}
);
},
{
points = (
{
segmentType = line;
smooth = 0;
x = 680;
y = 560;
},
{
segmentType = line;
smooth = 0;
x = 600;
y = 680;
},
{
segmentType = line;
smooth = 0;
x = 480;
y = 760;
},
{
segmentType = line;
smooth = 0;
x = 400;
y = 760;
},
{
segmentType = line;
smooth = 0;
x = 280;
y = 680;
},
{
segmentType = line;
smooth = 0;
x = 200;
y = 560;
},
{
segmentType = line;
smooth = 0;
x = 200;
y = 240;
},
{
segmentType = line;
smooth = 0;
x = 280;
y = 120;
},
{
segmentType = line;
smooth = 0;
x = 400;
y = 40;
},
{
segmentType = line;
smooth = 0;
x = 480;
y = 40;
},
{
segmentType = line;
smooth = 0;
x = 600;
y = 120;
},
{
segmentType = line;
smooth = 0;
x = 680;
y = 240;
}
);
}
);
lib = {
};
name = O;
unicodes = (
);
width = 920;
};
};
};
name = C;
unicodes = (
);
width = 800;
};
regular = {
anchors = (
);
components = (
);
contours = (
{
points = (
{
segmentType = line;
smooth = 0;
x = 240;
y = 240;
},
{
segmentType = line;
smooth = 0;
x = 320;
y = 120;
},
{
segmentType = line;
smooth = 0;
x = 480;
y = 40;
},
{
segmentType = line;
smooth = 0;
x = 600;
y = 80;
},
{
segmentType = line;
smooth = 0;
x = 680;
y = 160;
},
{
segmentType = line;
smooth = 0;
x = 720;
y = 240;
},
{
segmentType = line;
smooth = 0;
x = 760;
y = 200;
},
{
segmentType = line;
smooth = 0;
x = 680;
y = 80;
},
{
segmentType = line;
smooth = 0;
x = 560;
y = 0;
},
{
segmentType = line;
smooth = 0;
x = 360;
y = 0;
},
{
segmentType = line;
smooth = 0;
x = 200;
y = 80;
},
{
segmentType = line;
smooth = 0;
x = 120;
y = 200;
},
{
segmentType = line;
smooth = 0;
x = 80;
y = 400;
},
{
segmentType = line;
smooth = 0;
x = 120;
y = 600;
},
{
segmentType = line;
smooth = 0;
x = 200;
y = 720;
},
{
segmentType = line;
smooth = 0;
x = 360;
y = 800;
},
{
segmentType = line;
smooth = 0;
x = 560;
y = 800;
},
{
segmentType = line;
smooth = 0;
x = 720;
y = 720;
},
{
segmentType = line;
smooth = 0;
x = 760;
y = 640;
},
{
segmentType = line;
smooth = 0;
x = 680;
y = 560;
},
{
segmentType = line;
smooth = 0;
x = 600;
y = 560;
},
{
segmentType = line;
smooth = 0;
x = 600;
y = 680;
},
{
segmentType = line;
smooth = 0;
x = 520;
y = 760;
},
{
segmentType = line;
smooth = 0;
x = 440;
y = 760;
},
{
segmentType = line;
smooth = 0;
x = 320;
y = 680;
},
{
segmentType = line;
smooth = 0;
x = 240;
y = 560;
}
);
}
);
lib = {
};
name = C;
unicodes = (
);
width = 800;
};
};
com.typemytype.robofont.mark = (
0.001,
0.822,
0.283,
1
);
};
width = 800;
},
{
anchors = (
{
name = bottom;
pos = (420,0);
},
{
name = top;
pos = (420,840);
}
);
layerId = master01;
shapes = (
{
closed = 1;
nodes = (
(520,0,l),
(640,80,l),
(720,200,l),
(680,240,l),
(640,160,l),
(560,80,l),
(440,40,l),
(280,120,l),
(200,240,l),
(200,560,l),
(280,680,l),
(400,760,l),
(480,760,l),
(560,680,l),
(560,560,l),
(640,560,l),
(720,640,l),
(680,720,l),
(520,800,l),
(320,800,l),
(160,720,l),
(80,600,l),
(40,400,l),
(80,200,l),
(160,80,l),
(320,0,l)
);
}
);
width = 760;
},
{
anchors = (
{
name = bottom;
pos = (420,0);
},
{
name = top;
pos = (420,840);
}
);
layerId = m003;
shapes = (
{
closed = 1;
nodes = (
(520,0,l),
(640,80,l),
(680,160,l),
(640,200,l),
(560,80,l),
(520,40,l),
(360,40,l),
(200,120,l),
(120,280,l),
(120,520,l),
(200,680,l),
(320,760,l),
(520,760,l),
(600,680,l),
(600,600,l),
(640,600,l),
(680,640,l),
(680,720,l),
(520,800,l),
(320,800,l),
(160,720,l),
(80,600,l),
(40,400,l),
(80,200,l),
(160,80,l),
(320,0,l)
);
}
);
width = 720;
}
);
unicode = 67;
},
{
glyphname = D;
lastChange = "2021-06-23 23:12:34 +0000";
layers = (
{
anchors = (
{
name = bottom;
pos = (440,0);
},
{
name = top;
pos = (440,840);
}
);
layerId = "EBA0A543-5703-488C-9449-531557917997";
shapes = (
{
closed = 1;
nodes = (
(520,0,l),
(680,40,l),
(840,200,l),
(880,400,l),
(840,600,l),
(680,760,l),
(480,800,l),
(40,800,l),
(120,720,l),
(120,80,l),
(40,0,l)
);
},
{
closed = 1;
nodes = (
(320,120,l),
(320,680,l),
(360,720,l),
(480,720,l),
(560,680,l),
(600,640,l),
(640,560,l),
(640,240,l),
(600,160,l),
(560,120,l),
(480,80,l),
(360,80,l)
);
}
);
userData = {
com.typemytype.robofont.layerData = {
regular = {
anchors = (
);
components = (
);
contours = (
{
points = (
{
segmentType = line;
smooth = 0;
x = 87;
y = 800;
},
{
segmentType = line;
smooth = 0;
x = 447;
y = 800;
},
{
segmentType = line;
smooth = 0;
x = 647;
y = 720;
},
{
segmentType = line;
smooth = 0;
x = 767;
y = 600;
},
{
segmentType = line;
smooth = 0;
x = 807;
y = 400;
},
{
segmentType = line;
smooth = 0;
x = 767;
y = 200;
},
{
segmentType = line;
smooth = 0;
x = 687;
y = 80;
},
{
segmentType = line;
smooth = 0;
x = 527;
y = 0;
},
{
segmentType = line;
smooth = 0;
x = 87;
y = 0;
},
{
segmentType = line;
smooth = 0;
x = 167;
y = 80;
},
{
segmentType = line;
smooth = 0;
x = 167;
y = 720;
}
);
},
{
points = (
{
segmentType = line;
smooth = 0;
x = 647;
y = 560;
},
{
segmentType = line;
smooth = 0;
x = 607;
y = 640;
},
{
segmentType = line;
smooth = 0;
x = 527;
y = 720;
},
{
segmentType = line;
smooth = 0;
x = 447;
y = 760;
},
{
segmentType = line;
smooth = 0;
x = 327;
y = 760;
},
{
segmentType = line;
smooth = 0;
x = 287;
y = 720;
},
{
segmentType = line;
smooth = 0;
x = 287;
y = 80;
},
{
segmentType = line;
smooth = 0;
x = 327;
y = 40;
},
{
segmentType = line;
smooth = 0;
x = 487;
y = 40;
},
{
segmentType = line;
smooth = 0;
x = 567;
y = 80;
},
{
segmentType = line;
smooth = 0;
x = 647;
y = 200;
}
);
}
);
lib = {
};
name = D;
unicodes = (
);
width = 920;
};
};
com.typemytype.robofont.mark = (
0.001,
0.822,
0.283,
1
);
};
width = 920;
},
{
anchors = (
{
name = bottom;
pos = (400,0);
},
{
name = top;
pos = (360,840);
}
);
layerId = master01;
shapes = (
{
closed = 1;
nodes = (
(480,0,l),
(640,80,l),
(720,200,l),
(760,400,l),
(720,600,l),
(600,720,l),
(400,800,l),
(40,800,l),
(120,720,l),
(120,80,l),
(40,0,l)
);
},
{
closed = 1;
nodes = (
(240,80,l),
(240,720,l),
(280,760,l),
(400,760,l),
(480,720,l),
(560,640,l),
(600,560,l),
(600,200,l),
(550,126,l),
(520,80,l),
(440,40,l),
(280,40,l)
);
}
);
width = 800;
},
{
anchors = (
{
name = bottom;
pos = (400,0);
},
{
name = top;
pos = (360,840);
}
);
layerId = m003;
shapes = (
{
closed = 1;
nodes = (
(400,0,l),
(600,80,l),
(720,200,l),
(760,400,l),
(720,600,l),
(600,720,l),
(400,800,l),
(40,800,l),
(120,760,l),
(120,40,l),
(40,0,l)
);
},
{
closed = 1;
nodes = (
(160,40,l),
(160,760,l),
(280,760,l),
(400,760,l),
(560,680,l),
(640,600,l),
(680,440,l),
(680,320,l),
(640,200,l),
(560,120,l),
(400,40,l),
(280,40,l)
);
}
);
width = 800;
}
);
unicode = 68;
},
{
glyphname = Eth;
lastChange = "2021-06-16 22:23:06 +0000";
layers = (
{
layerId = m003;
shapes = (
{
ref = D;
},
{
closed = 1;
nodes = (
(280,400,l),
(400,440,l),
(120,440,l),
(0,400,l)
);
}
);
width = 800;
},
{
layerId = master01;
shapes = (
{
ref = D;
},
{
closed = 1;
nodes = (
(401,400,l),
(401,440,l),
(40,440,l),
(40,400,l)
);
}
);
width = 800;
},
{
layerId = "EBA0A543-5703-488C-9449-531557917997";
shapes = (
{
ref = D;
},
{
closed = 1;
nodes = (
(480,360,l),
(480,440,l),
(40,440,l),
(40,360,l)
);
}
);
width = 920;
}
);
unicode = 208;
},
{
glyphname = E;
lastChange = "2021-06-26 20:18:06 +0000";
layers = (
{
anchors = (
{
name = bottom;
pos = (400,0);
},
{
name = ogonek;
pos = (400,0);
},
{
name = right;
pos = (720,0);
},
{
name = top;
pos = (380,840);
}
);
layerId = "EBA0A543-5703-488C-9449-531557917997";
shapes = (
{
closed = 1;
nodes = (
(720,280,l),
(680,280,l),
(560,80,l),
(360,80,l),
(320,120,l),
(320,320,l),
(360,360,l),
(480,360,l),
(600,240,l),
(600,560,l),
(480,440,l),
(360,440,l),
(320,480,l),
(320,680,l),
(360,720,l),
(520,720,l),
(640,560,l),
(680,560,l),
(640,840,l),
(480,800,l),
(40,800,l),
(120,720,l),
(120,80,l),
(40,0,l),
(600,0,l),
(680,-40,l)
);
}
);
userData = {
com.typemytype.robofont.layerData = {
regular = {
anchors = (
);
components = (
);
contours = (
{
points = (
{
segmentType = line;
smooth = 0;
x = 680;
y = 240;
},
{
segmentType = line;
smooth = 0;
x = 640;
y = -40;
},
{
segmentType = line;
smooth = 0;
x = 560;
y = 0;
},
{
segmentType = line;
smooth = 0;
x = 40;
y = 0;
},
{
segmentType = line;
smooth = 0;
x = 120;
y = 80;
},
{
segmentType = line;
smooth = 0;
x = 120;
y = 720;
},
{
segmentType = line;
smooth = 0;
x = 40;
y = 800;
},
{
segmentType = line;
smooth = 0;
x = 440;
y = 800;
},
{
segmentType = line;
smooth = 0;
x = 600;
y = 840;
},
{
segmentType = line;
smooth = 0;
x = 640;
y = 600;
},
{
segmentType = line;
smooth = 0;
x = 600;
y = 600;
},
{
segmentType = line;
smooth = 0;
x = 480;
y = 760;
},
{
segmentType = line;
smooth = 0;
x = 280;
y = 760;
},
{
segmentType = line;
smooth = 0;
x = 240;
y = 720;
},
{
segmentType = line;
smooth = 0;
x = 240;
y = 480;
},
{
segmentType = line;
smooth = 0;
x = 280;
y = 440;
},
{
segmentType = line;
smooth = 0;
x = 440;
y = 440;
},
{
segmentType = line;
smooth = 0;
x = 520;
y = 520;
},
{
segmentType = line;
smooth = 0;
x = 520;
y = 320;
},
{
segmentType = line;
smooth = 0;
x = 440;
y = 400;
},
{
segmentType = line;
smooth = 0;
x = 280;
y = 400;
},
{
segmentType = line;
smooth = 0;
x = 240;
y = 360;
},
{
segmentType = line;
smooth = 0;
x = 240;
y = 80;
},
{
segmentType = line;
smooth = 0;
x = 280;
y = 40;
},
{
segmentType = line;
smooth = 0;
x = 520;
y = 40;
},
{
segmentType = line;
smooth = 0;
x = 640;
y = 240;
}
);
}
);
lib = {
};
name = E;
unicodes = (
);
width = 760;
};
};
com.typemytype.robofont.mark = (
0.001,
0.822,
0.283,
1
);
};
width = 760;
},
{
anchors = (
{
name = bottom;
pos = (360,0);
},
{
name = ogonek;
pos = (400,0);
},
{
name = right;
pos = (680,0);
},
{
name = top;
pos = (360,840);
}
);
layerId = master01;
shapes = (
{
closed = 1;
nodes = (
(680,240,l),
(640,240,l),
(520,40,l),
(280,40,l),
(240,80,l),
(240,360,l),
(280,400,l),
(440,400,l),
(520,320,l),
(520,520,l),
(440,440,l),
(280,440,l),
(240,480,l),
(240,720,l),
(280,760,l),
(480,760,l),
(600,600,l),
(640,600,l),
(600,840,l),
(440,800,l),
(40,800,l),
(120,720,l),
(120,80,l),
(40,0,l),
(560,0,l),
(640,-40,l)
);
}
);
width = 720;
},
{
anchors = (
{
name = bottom;
pos = (340,0);
},
{
name = ogonek;
pos = (360,0);
},
{
name = right;
pos = (680,0);
},
{
name = top;
pos = (340,840);
}
);
layerId = m003;
shapes = (
{
closed = 1;
nodes = (
(640,240,l),
(600,240,l),
(520,40,l),
(240,40,l),
(160,40,l),
(160,400,l),
(240,400,l),
(480,400,l),
(520,320,l),
(520,520,l),
(480,440,l),
(240,440,l),
(160,440,l),
(160,760,l),
(240,760,l),
(520,760,l),
(600,600,l),
(640,600,l),
(560,840,l),
(400,800,l),
(40,800,l),
(120,760,l),
(120,40,l),
(40,0,l),
(520,0,l),
(560,-40,l)
);
}
);
width = 680;
}
);
unicode = 69;
},
{
glyphname = Eopen;
lastChange = "2021-06-30 14:05:57 +0000";
layers = (
{
anchors = (
{
name = bottom;
pos = (320,0);
},
{
name = top;
pos = (320,840);
}
);
layerId = m003;
shapes = (
{
closed = 1;
nodes = (
(520,40,l),
(600,120,l),
(600,200,l),
(560,240,l),
(520,240,l),
(520,160,l),
(480,80,l),
(320,40,l),
(200,80,l),
(120,160,l),
(120,280,l),
(160,360,l),
(240,400,l),
(360,400,l),
(360,440,l),
(240,440,l),
(200,480,l),
(160,600,l),
(200,720,l),
(320,760,l),
(360,760,l),
(480,720,l),
(520,600,l),
(560,600,l),
(560,680,l),
(520,720,l),
(480,760,l),
(360,800,l),
(280,800,l),
(160,760,l),
(80,640,l),
(80,560,l),
(120,480,l),
(200,440,l),
(120,400,l),
(40,280,l),
(40,160,l),
(120,80,l),
(280,0,l),
(360,0,l)
);
}
);
width = 640;
},
{
anchors = (
{
name = bottom;
pos = (320,0);
},
{
name = top;
pos = (340,840);
}
);
layerId = master01;
shapes = (
{
closed = 1;
nodes = (
(520,40,l),
(600,120,l),
(600,200,l),
(560,240,l),
(520,240,l),
(480,120,l),
(440,80,l),
(320,40,l),
(240,80,l),
(160,200,l),
(160,280,l),
(200,360,l),
(320,400,l),
(400,400,l),
(400,440,l),
(320,440,l),
(240,480,l),
(200,600,l),
(240,680,l),
(320,720,l),
(400,720,l),
(480,680,l),
(520,560,l),
(560,560,l),
(600,640,l),
(560,720,l),
(520,760,l),
(400,800,l),
(280,800,l),
(160,760,l),
(80,660,l),
(80,560,l),
(120,480,l),
(200,440,l),
(120,400,l),
(40,280,l),
(40,160,l),
(160,40,l),
(280,0,l),
(360,0,l)
);
}
);
width = 640;
},
{
anchors = (
{
name = bottom;
pos = (360,0);
},
{
name = top;
pos = (360,840);
}
);
layerId = "EBA0A543-5703-488C-9449-531557917997";
shapes = (
{
closed = 1;
nodes = (
(560,40,l),
(600,100,l),
(640,160,l),
(600,240,l),
(520,240,l),
(480,120,l),
(400,80,l),
(360,80,l),
(280,120,l),
(240,200,l),
(240,280,l),
(280,320,l),
(360,360,l),
(440,360,l),
(440,440,l),
(360,440,l),
(240,520,l),
(240,600,l),
(280,680,l),
(360,720,l),
(400,720,l),
(480,680,l),
(520,560,l),
(600,560,l),
(640,640,l),
(600,700,l),
(560,760,l),
(440,800,l),
(280,800,l),
(120,720,l),
(40,600,l),
(40,520,l),
(120,440,l),
(280,400,l),
(120,360,l),
(40,280,l),
(40,160,l),
(160,40,l),
(280,0,l),
(440,0,l)
);
}
);
width = 680;
}
);
metricLeft = "=40";
metricRight = "=40";
unicode = 400;
},
{
glyphname = Ezh;
lastChange = "2021-06-30 14:06:52 +0000";
layers = (
{
anchors = (
{
name = bottom;
pos = (320,0);
},
{
name = top;
pos = (359,840);
}
);
layerId = m003;
shapes = (
{
closed = 1;
nodes = (
(360,0,l),
(520,80,l),
(600,200,l),
(600,320,l),
(520,400,l),
(440,440,l),
(347,440,l),
(560,760,l),
(600,800,l),
(280,800,l),
(120,840,l),
(40,600,l),
(80,600,l),
(160,760,l),
(480,760,l),
(240,400,l),
(400,400,l),
(480,360,l),
(520,320,l),
(520,200,l),
(440,80,l),
(320,40,l),
(160,80,l),
(120,160,l),
(120,280,l),
(80,280,l),
(40,200,l),
(40,120,l),
(120,40,l),
(280,0,l)
);
}
);
width = 640;
},
{
anchors = (
{
name = bottom;
pos = (320,0);
},
{
name = top;
pos = (340,840);
}
);
layerId = master01;
shapes = (
{
closed = 1;
nodes = (
(360,0,l),
(520,80,l),
(600,200,l),
(600,320,l),
(520,400,l),
(440,440,l),
(360,440,l),
(569,760,l),
(600,800,l),
(240,800,l),
(80,840,l),
(40,600,l),
(80,600,l),
(200,760,l),
(400,760,l),
(200,400,l),
(320,400,l),
(440,360,l),
(480,320,l),
(480,240,l),
(400,80,l),
(320,40,l),
(200,80,l),
(160,160,l),
(160,280,l),
(120,280,l),
(40,200,l),
(40,120,l),
(120,40,l),
(280,0,l)
);
}
);
width = 640;
},
{
anchors = (
{
name = bottom;
pos = (360,0);
},
{
name = top;
pos = (400,840);
}
);
layerId = "EBA0A543-5703-488C-9449-531557917997";
shapes = (
{
closed = 1;
nodes = (
(440,0,l),
(600,80,l),
(680,200,l),
(680,320,l),
(600,400,l),
(560,420,l),
(520,440,l),
(680,760,l),
(680,800,l),
(200,800,l),
(120,840,l),
(80,560,l),
(120,560,l),
(240,720,l),
(400,720,l),
(280,440,l),
(400,400,l),
(440,360,l),
(480,320,l),
(480,240,l),
(440,120,l),
(360,80,l),
(320,80,l),
(240,120,l),
(240,320,l),
(120,320,l),
(40,200,l),
(120,80,l),
(200,40,l),
(280,0,l)
);
}
);
width = 720;
}
);
metricLeft = "=40";
metricRight = "=40";
unicode = 439;
},
{
glyphname = F;
lastChange = "2021-06-30 21:08:50 +0000";
layers = (
{
anchors = (
{
name = bottom;
pos = (220,0);
},
{
name = hook;
pos = (220,0);
},
{
name = top;
pos = (380,840);
}
);
layerId = "EBA0A543-5703-488C-9449-531557917997";
shapes = (
{
closed = 1;
nodes = (
(400,0,l),
(320,80,l),
(320,320,l),
(360,360,l),
(480,360,l),
(600,240,l),
(600,560,l),
(480,440,l),
(360,440,l),
(320,480,l),
(320,680,l),
(360,720,l),
(520,720,l),
(640,560,l),
(680,560,l),
(640,840,l),
(480,800,l),
(40,800,l),
(120,720,l),
(120,80,l),
(40,0,l)
);
}
);
userData = {
com.typemytype.robofont.layerData = {
regular = {
anchors = (
);
components = (
);
contours = (
{
points = (
{
segmentType = line;
smooth = 0;
x = 80;
y = 0;
},
{
segmentType = line;
smooth = 0;
x = 160;
y = 80;
},
{
segmentType = line;
smooth = 0;
x = 160;
y = 720;
},
{
segmentType = line;
smooth = 0;
x = 80;
y = 800;
},
{
segmentType = line;
smooth = 0;
x = 480;
y = 800;
},
{
segmentType = line;
smooth = 0;
x = 640;
y = 840;
},
{
segmentType = line;
smooth = 0;
x = 680;
y = 600;
},
{
segmentType = line;
smooth = 0;
x = 640;
y = 600;
},
{
segmentType = line;
smooth = 0;
x = 520;
y = 760;
},
{
segmentType = line;
smooth = 0;
x = 320;
y = 760;
},
{
segmentType = line;
smooth = 0;
x = 280;
y = 720;
},
{
segmentType = line;
smooth = 0;
x = 280;
y = 480;
},
{
segmentType = line;
smooth = 0;
x = 320;
y = 440;
},
{
segmentType = line;
smooth = 0;
x = 480;
y = 440;
},
{
segmentType = line;
smooth = 0;
x = 560;
y = 520;
},
{
segmentType = line;
smooth = 0;
x = 560;
y = 320;
},
{
segmentType = line;
smooth = 0;
x = 480;
y = 400;
},
{
segmentType = line;
smooth = 0;
x = 320;
y = 400;
},
{
segmentType = line;
smooth = 0;
x = 280;
y = 360;
},
{
segmentType = line;
smooth = 0;
x = 280;
y = 80;
},
{
segmentType = line;
smooth = 0;
x = 360;
y = 0;
}
);
}
);
lib = {
};
name = F;
unicodes = (
);
width = 680;
};
};
com.typemytype.robofont.mark = (
0.001,
0.822,
0.283,
1
);
};
width = 680;
},
{
anchors = (
{
name = bottom;
pos = (180,0);
},
{
name = hook;
pos = (180,0);
},
{
name = top;
pos = (340,840);
}
);
layerId = master01;
shapes = (
{
closed = 1;
nodes = (
(320,0,l),
(240,80,l),
(240,360,l),
(280,400,l),
(440,400,l),
(520,320,l),
(520,520,l),
(440,440,l),
(280,440,l),
(240,480,l),
(240,720,l),
(280,760,l),
(480,760,l),
(600,600,l),
(640,600,l),
(600,840,l),
(440,800,l),
(40,800,l),
(120,720,l),
(120,80,l),
(40,0,l)
);
}
);
width = 680;
},
{
anchors = (
{
name = bottom;
pos = (140,0);
},
{
name = hook;
pos = (140,0);
},
{
name = top;
pos = (340,840);
}
);
layerId = m003;
shapes = (
{
closed = 1;
nodes = (
(240,0,l),
(160,40,l),
(160,400,l),
(200,400,l),
(480,400,l),
(520,320,l),
(520,520,l),
(480,440,l),
(200,440,l),
(160,440,l),
(160,760,l),
(200,760,l),
(520,760,l),
(600,600,l),
(640,600,l),
(560,840,l),
(400,800,l),
(40,800,l),
(120,760,l),
(120,40,l),
(40,0,l)
);
}
);
width = 680;
}
);
unicode = 70;
},
{
glyphname = Fhook;
lastChange = "2021-06-27 21:49:16 +0000";
layers = (
{
anchors = (
{
name = bottom;
pos = (140,0);
},
{
name = hook;
pos = (140,0);
},
{
name = top;
pos = (340,840);
}
);
layerId = m003;
shapes = (
{
closed = 1;
nodes = (
(160,0,l),
(160,400,l),
(200,400,l),
(480,400,l),
(520,320,l),
(520,520,l),
(480,440,l),
(200,440,l),
(160,440,l),
(160,760,l),
(200,760,l),
(520,760,l),
(600,600,l),
(640,600,l),
(560,840,l),
(400,800,l),
(40,800,l),
(120,760,l),
(120,0,l)
);
},
{
pos = (-161,0);
ref = _hookbottomleft;
}
);
width = 680;
},
{
anchors = (
{
name = bottom;
pos = (180,0);
},
{
name = hook;
pos = (180,0);
},
{
name = top;
pos = (340,840);
}
);
layerId = master01;
shapes = (
{
closed = 1;
nodes = (
(240,0,l),
(240,360,l),
(280,400,l),
(440,400,l),
(520,320,l),
(520,520,l),
(440,440,l),
(280,440,l),
(240,480,l),
(240,720,l),
(280,760,l),
(480,760,l),
(600,600,l),
(640,600,l),
(600,840,l),
(440,800,l),
(40,800,l),
(120,720,l),
(120,0,l)
);
},
{
pos = (-161,0);
ref = _hookbottomleft;
}
);
width = 680;
},
{
anchors = (
{
name = bottom;
pos = (220,0);
},
{
name = hook;
pos = (220,0);
},
{
name = top;
pos = (340,800);
}
);
layerId = "EBA0A543-5703-488C-9449-531557917997";
shapes = (
{
closed = 1;
nodes = (
(320,0,l),
(320,320,l),
(360,360,l),
(480,360,l),
(600,240,l),
(600,560,l),
(480,440,l),
(360,440,l),
(320,480,l),
(320,680,l),
(360,720,l),
(520,720,l),
(640,560,l),
(680,560,l),
(640,840,l),
(480,800,l),
(40,800,l),
(120,720,l),
(120,0,l)
);
},
{
pos = (-121,0);
ref = _hookbottomleft;
}
);
width = 680;
}
);
unicode = 401;
},
{
glyphname = G;
lastChange = "2021-06-24 08:08:57 +0000";
layers = (
{
anchors = (
{
name = bottom;
pos = (480,0);
},
{
name = center;
pos = (700,240);
},
{
name = top;
pos = (460,840);
}
);
layerId = "EBA0A543-5703-488C-9449-531557917997";
shapes = (
{
closed = 1;
nodes = (
(560,0,l),
(720,80,l),
(800,200,l),
(800,280,l),
(880,360,l),
(520,360,l),
(600,280,l),
(600,157,l),
(600,120,l),
(520,80,l),
(440,80,l),
(360,120,l),
(280,240,l),
(280,560,l),
(360,680,l),
(440,720,l),
(520,720,l),
(600,680,l),
(600,480,l),
(720,480,l),
(800,600,l),
(720,720,l),
(560,800,l),
(360,800,l),
(200,720,l),
(80,600,l),
(40,400,l),
(80,200,l),
(200,80,l),
(360,0,l)
);
}
);
userData = {
com.typemytype.robofont.layerData = {
background = {
anchors = (
{
name = top;
x = 480;
y = 840;
},
{
name = bottom;
x = 480;
y = 0;
}
);
components = (
);
contours = (
{
points = (
{
segmentType = line;
smooth = 0;
x = 720;
y = 80;
},
{
segmentType = line;
smooth = 0;
x = 800;
y = 200;
},
{
segmentType = line;
smooth = 0;
x = 720;
y = 240;
},
{
segmentType = line;
smooth = 0;
x = 640;
y = 120;
},
{
segmentType = line;
smooth = 0;
x = 520;
y = 80;
},
{
segmentType = line;
smooth = 0;
x = 440;
y = 80;
},
{
segmentType = line;
smooth = 0;
x = 360;
y = 120;
},
{
segmentType = line;
smooth = 0;
x = 280;
y = 240;
},
{
segmentType = line;
smooth = 0;
x = 280;
y = 560;
},
{
segmentType = line;
smooth = 0;
x = 360;
y = 680;
},
{
segmentType = line;
smooth = 0;
x = 440;
y = 720;
},
{
segmentType = line;
smooth = 0;
x = 520;
y = 720;
},
{
segmentType = line;
smooth = 0;
x = 600;
y = 680;
},
{
segmentType = line;
smooth = 0;
x = 600;
y = 480;
},
{
segmentType = line;
smooth = 0;
x = 720;
y = 480;
},
{
segmentType = line;
smooth = 0;
x = 800;
y = 600;
},
{
segmentType = line;
smooth = 0;
x = 720;
y = 720;
},
{
segmentType = line;
smooth = 0;
x = 560;
y = 800;
},
{
segmentType = line;
smooth = 0;
x = 360;
y = 800;
},
{
segmentType = line;
smooth = 0;
x = 200;
y = 720;
},
{
segmentType = line;
smooth = 0;
x = 80;
y = 600;
},
{
segmentType = line;
smooth = 0;
x = 40;
y = 400;
},
{
segmentType = line;
smooth = 0;
x = 80;
y = 200;
},
{
segmentType = line;
smooth = 0;
x = 200;
y = 80;
},
{
segmentType = line;
smooth = 0;
x = 360;
y = 0;
},
{
segmentType = line;
smooth = 0;
x = 560;
y = 0;
}
);
}
);
lib = {
com.typemytype.robofont.layerData = {
background = {
anchors = (
{
name = top;
x = 400;
y = 840;
},
{
name = bottom;
x = 400;
y = 0;
}
);
components = (
);
contours = (
{
points = (
{
segmentType = line;
smooth = 0;
x = 440;
y = 80;
},
{
segmentType = line;
smooth = 0;
x = 400;
y = 80;
},
{
segmentType = line;
smooth = 0;
x = 320;
y = 120;
},
{
segmentType = line;
smooth = 0;
x = 240;
y = 240;
},
{
segmentType = line;
smooth = 0;
x = 240;
y = 400;
},
{
segmentType = line;
smooth = 0;
x = 240;
y = 560;
},
{
segmentType = line;
smooth = 0;
x = 320;
y = 680;
},
{
segmentType = line;
smooth = 0;
x = 400;
y = 720;
},
{
segmentType = line;
smooth = 0;
x = 440;
y = 720;
},
{
segmentType = line;
smooth = 0;
x = 520;
y = 680;
},
{
segmentType = line;
smooth = 0;
x = 600;
y = 560;
},
{
segmentType = line;
smooth = 0;
x = 600;
y = 400;
},
{
segmentType = line;
smooth = 0;
x = 600;
y = 240;
},
{
segmentType = line;
smooth = 0;
x = 520;
y = 120;
}
);
},
{
points = (
{
segmentType = line;
smooth = 0;
x = 320;
y = 0;
},
{
segmentType = line;
smooth = 0;
x = 520;
y = 0;
},
{
segmentType = line;
smooth = 0;
x = 680;
y = 80;
},
{
segmentType = line;
smooth = 0;
x = 800;
y = 200;
},
{
segmentType = line;
smooth = 0;
x = 840;
y = 400;
},
{
segmentType = line;
smooth = 0;
x = 800;
y = 600;
},
{
segmentType = line;
smooth = 0;
x = 680;
y = 720;
},
{
segmentType = line;
smooth = 0;
x = 520;
y = 800;
},
{
segmentType = line;
smooth = 0;
x = 320;
y = 800;
},
{
segmentType = line;
smooth = 0;
x = 160;
y = 720;
},
{
segmentType = line;
smooth = 0;
x = 40;
y = 600;
},
{
segmentType = line;
smooth = 0;
x = 0;
y = 400;
},
{
segmentType = line;
smooth = 0;
x = 40;
y = 200;
},
{
segmentType = line;
smooth = 0;
x = 160;
y = 80;
}
);
}
);
lib = {
com.typemytype.robofont.layerData = {
background = {
anchors = (
);
components = (
);
contours = (
);
lib = {
};
name = O;
unicodes = (
);
width = 920;
};
regular = {
anchors = (
);
components = (
);
contours = (
{
points = (
{
segmentType = line;
smooth = 0;
x = 720;
y = 80;
},
{
segmentType = line;
smooth = 0;
x = 560;
y = 0;
},
{
segmentType = line;
smooth = 0;
x = 320;
y = 0;
},
{
segmentType = line;
smooth = 0;
x = 160;
y = 80;
},
{
segmentType = line;
smooth = 0;
x = 80;
y = 200;
},
{
segmentType = line;
smooth = 0;
x = 40;
y = 400;
},
{
segmentType = line;
smooth = 0;
x = 80;
y = 600;
},
{
segmentType = line;
smooth = 0;
x = 160;
y = 720;
},
{
segmentType = line;
smooth = 0;
x = 320;
y = 800;
},
{
segmentType = line;
smooth = 0;
x = 560;
y = 800;
},
{
segmentType = line;
smooth = 0;
x = 720;
y = 720;
},
{
segmentType = line;
smooth = 0;
x = 800;
y = 600;
},
{
segmentType = line;
smooth = 0;
x = 840;
y = 400;
},
{
segmentType = line;
smooth = 0;
x = 800;
y = 200;
}
);
},
{
points = (
{
segmentType = line;
smooth = 0;
x = 680;
y = 560;
},
{
segmentType = line;
smooth = 0;
x = 600;
y = 680;
},
{
segmentType = line;
smooth = 0;
x = 480;
y = 760;
},
{
segmentType = line;
smooth = 0;
x = 400;
y = 760;
},
{
segmentType = line;
smooth = 0;
x = 280;
y = 680;
},
{
segmentType = line;
smooth = 0;
x = 200;
y = 560;
},
{
segmentType = line;
smooth = 0;
x = 200;
y = 240;
},
{
segmentType = line;
smooth = 0;
x = 280;
y = 120;
},
{
segmentType = line;
smooth = 0;
x = 400;
y = 40;
},
{
segmentType = line;
smooth = 0;
x = 480;
y = 40;
},
{
segmentType = line;
smooth = 0;
x = 600;
y = 120;
},
{
segmentType = line;
smooth = 0;
x = 680;
y = 240;
}
);
}
);
lib = {
};
name = O;
unicodes = (
);
width = 920;
};
};
};
name = C;
unicodes = (
);
width = 800;
};
regular = {
anchors = (
);
components = (
);
contours = (
{
points = (
{
segmentType = line;
smooth = 0;
x = 200;
y = 240;
},
{
segmentType = line;
smooth = 0;
x = 280;
y = 120;
},
{
segmentType = line;
smooth = 0;
x = 440;
y = 40;
},
{
segmentType = line;
smooth = 0;
x = 560;
y = 80;
},
{
segmentType = line;
smooth = 0;
x = 640;
y = 160;
},
{
segmentType = line;
smooth = 0;
x = 680;
y = 240;
},
{
segmentType = line;
smooth = 0;
x = 720;
y = 200;
},
{
segmentType = line;
smooth = 0;
x = 640;
y = 80;
},
{
segmentType = line;
smooth = 0;
x = 520;
y = 0;
},
{
segmentType = line;
smooth = 0;
x = 320;
y = 0;
},
{
segmentType = line;
smooth = 0;
x = 160;
y = 80;
},
{
segmentType = line;
smooth = 0;
x = 80;
y = 200;
},
{
segmentType = line;
smooth = 0;
x = 40;
y = 400;
},
{
segmentType = line;
smooth = 0;
x = 80;
y = 600;
},
{
segmentType = line;
smooth = 0;
x = 160;
y = 720;
},
{
segmentType = line;
smooth = 0;
x = 320;
y = 800;
},
{
segmentType = line;
smooth = 0;
x = 520;
y = 800;
},
{
segmentType = line;
smooth = 0;
x = 680;
y = 720;
},
{
segmentType = line;
smooth = 0;
x = 720;
y = 640;
},
{
segmentType = line;
smooth = 0;
x = 640;
y = 560;
},
{
segmentType = line;
smooth = 0;
x = 560;
y = 560;
},
{
segmentType = line;
smooth = 0;
x = 560;
y = 680;
},
{
segmentType = line;
smooth = 0;
x = 480;
y = 760;
},
{
segmentType = line;
smooth = 0;
x = 400;
y = 760;
},
{
segmentType = line;
smooth = 0;
x = 280;
y = 680;
},
{
segmentType = line;
smooth = 0;
x = 200;
y = 560;
}
);
}
);
lib = {
};
name = C;
unicodes = (
);
width = 800;
};
};
};
name = G;
unicodes = (
);
width = 880;
};
regular = {
anchors = (
);
components = (
);
contours = (
{
points = (
{
segmentType = line;
smooth = 0;
x = 280;
y = 240;
},
{
segmentType = line;
smooth = 0;
x = 360;
y = 120;
},
{
segmentType = line;
smooth = 0;
x = 520;
y = 40;
},
{
segmentType = line;
smooth = 0;
x = 640;
y = 80;
},
{
segmentType = line;
smooth = 0;
x = 680;
y = 120;
},
{
segmentType = line;
smooth = 0;
x = 680;
y = 280;
},
{
segmentType = line;
smooth = 0;
x = 600;
y = 360;
},
{
segmentType = line;
smooth = 0;
x = 880;
y = 360;
},
{
segmentType = line;
smooth = 0;
x = 800;
y = 280;
},
{
segmentType = line;
smooth = 0;
x = 800;
y = 80;
},
{
segmentType = line;
smooth = 0;
x = 720;
y = 40;
},
{
segmentType = line;
smooth = 0;
x = 600;
y = 0;
},
{
segmentType = line;
smooth = 0;
x = 400;
y = 0;
},
{
segmentType = line;
smooth = 0;
x = 240;
y = 80;
},
{
segmentType = line;
smooth = 0;
x = 160;
y = 200;
},
{
segmentType = line;
smooth = 0;
x = 120;
y = 400;
},
{
segmentType = line;
smooth = 0;
x = 160;
y = 600;
},
{
segmentType = line;
smooth = 0;
x = 240;
y = 720;
},
{
segmentType = line;
smooth = 0;
x = 400;
y = 800;
},
{
segmentType = line;
smooth = 0;
x = 600;
y = 800;
},
{
segmentType = line;
smooth = 0;
x = 760;
y = 720;
},
{
segmentType = line;
smooth = 0;
x = 800;
y = 640;
},
{
segmentType = line;
smooth = 0;
x = 720;
y = 560;
},
{
segmentType = line;
smooth = 0;
x = 640;
y = 560;
},
{
segmentType = line;
smooth = 0;
x = 640;
y = 680;
},
{
segmentType = line;
smooth = 0;
x = 560;
y = 760;
},
{
segmentType = line;
smooth = 0;
x = 480;
y = 760;
},
{
segmentType = line;
smooth = 0;
x = 360;
y = 680;
},
{
segmentType = line;
smooth = 0;
x = 280;
y = 560;
}
);
}
);
lib = {
};
name = G;
unicodes = (
);
width = 880;
};
};
com.typemytype.robofont.mark = (
0.001,
0.822,
0.283,
1
);
};
width = 880;
},
{
anchors = (
{
name = bottom;
pos = (440,0);
},
{
name = center;
pos = (660,220);
},
{
name = top;
pos = (440,840);
}
);
layerId = master01;
shapes = (
{
closed = 1;
nodes = (
(520,0,l),
(640,40,l),
(720,80,l),
(720,280,l),
(800,360,l),
(520,360,l),
(600,280,l),
(600,161,l),
(600,120,l),
(560,80,l),
(440,40,l),
(280,120,l),
(200,240,l),
(200,560,l),
(280,680,l),
(400,760,l),
(480,760,l),
(560,680,l),
(560,560,l),
(640,560,l),
(720,640,l),
(680,720,l),
(520,800,l),
(320,800,l),
(160,720,l),
(80,600,l),
(40,400,l),
(80,200,l),
(160,80,l),
(320,0,l)
);
}
);
width = 840;
},
{
anchors = (
{
name = bottom;
pos = (440,0);
},
{
name = center;
pos = (680,220);
},
{
name = top;
pos = (440,840);
}
);
layerId = m003;
shapes = (
{
closed = 1;
nodes = (
(520,0,l),
(600,40,l),
(680,80,l),
(720,320,l),
(800,360,l),
(560,360,l),
(640,320,l),
(640,241,l),
(640,120,l),
(520,40,l),
(320,40,l),
(200,120,l),
(120,280,l),
(120,520,l),
(200,680,l),
(320,760,l),
(550,760,l),
(640,680,l),
(640,600,l),
(680,600,l),
(720,640,l),
(720,720,l),
(560,800,l),
(320,800,l),
(160,720,l),
(80,600,l),
(40,400,l),
(80,200,l),
(160,80,l),
(320,0,l)
);
}
);
width = 800;
}
);
unicode = 71;
},
{
glyphname = H;
lastChange = "2021-06-17 15:09:21 +0000";
layers = (
{
anchors = (
{
name = bottom;
pos = (480,0);
},
{
name = top;
pos = (480,840);
}
);
layerId = "EBA0A543-5703-488C-9449-531557917997";
shapes = (
{
closed = 1;
nodes = (
(400,0,l),
(320,80,l),
(320,320,l),
(360,360,l),
(600,360,l),
(640,320,l),
(640,80,l),
(560,0,l),
(920,0,l),
(840,80,l),
(840,720,l),
(920,800,l),
(560,800,l),
(640,720,l),
(640,480,l),
(600,440,l),
(360,440,l),
(320,480,l),
(320,720,l),
(400,800,l),
(40,800,l),
(120,720,l),
(120,80,l),
(40,0,l)
);
}
);
userData = {
com.typemytype.robofont.layerData = {
regular = {
anchors = (
);
components = (
);
contours = (
{
points = (
{
segmentType = line;
smooth = 0;
x = 280;
y = 800;
},
{
segmentType = line;
smooth = 0;
x = 200;
y = 720;
},
{
segmentType = line;
smooth = 0;
x = 200;
y = 480;
},
{
segmentType = line;
smooth = 0;
x = 240;
y = 440;
},
{
segmentType = line;
smooth = 0;
x = 600;
y = 440;
},
{
segmentType = line;
smooth = 0;
x = 640;
y = 480;
},
{
segmentType = line;
smooth = 0;
x = 640;
y = 720;
},
{
segmentType = line;
smooth = 0;
x = 560;
y = 800;
},
{
segmentType = line;
smooth = 0;
x = 840;
y = 800;
},
{
segmentType = line;
smooth = 0;
x = 760;
y = 720;
},
{
segmentType = line;
smooth = 0;
x = 760;
y = 80;
},
{
segmentType = line;
smooth = 0;
x = 840;
y = 0;
},
{
segmentType = line;
smooth = 0;
x = 560;
y = 0;
},
{
segmentType = line;
smooth = 0;
x = 640;
y = 80;
},
{
segmentType = line;
smooth = 0;
x = 640;
y = 360;
},
{
segmentType = line;
smooth = 0;
x = 600;
y = 400;
},
{
segmentType = line;
smooth = 0;
x = 240;
y = 400;
},
{
segmentType = line;
smooth = 0;
x = 200;
y = 360;
},
{
segmentType = line;
smooth = 0;
x = 200;
y = 80;
},
{
segmentType = line;
smooth = 0;
x = 280;
y = 0;
},
{
segmentType = line;
smooth = 0;
x = 0;
y = 0;
},
{
segmentType = line;
smooth = 0;
x = 80;
y = 80;
},
{
segmentType = line;
smooth = 0;
x = 80;
y = 720;
},
{
segmentType = line;
smooth = 0;
x = 0;
y = 800;
}
);
}
);
lib = {
};
name = H;
unicodes = (
);
width = 960;
};
};
com.typemytype.robofont.mark = (
0.001,
0.822,
0.283,
1
);
};
width = 960;
},
{
anchors = (
{
name = bottom;
pos = (460,0);
},
{
name = top;
pos = (460,840);
}
);
layerId = master01;
shapes = (
{
closed = 1;
nodes = (
(320,0,l),
(240,80,l),
(240,360,l),
(280,400,l),
(640,400,l),
(680,360,l),
(680,80,l),
(600,0,l),
(880,0,l),
(800,80,l),
(800,720,l),
(880,800,l),
(600,800,l),
(680,720,l),
(680,480,l),
(640,440,l),
(280,440,l),
(240,480,l),
(240,720,l),
(320,800,l),
(40,800,l),
(120,720,l),
(120,80,l),
(40,0,l)
);
}
);
width = 920;
},
{
anchors = (
{
name = bottom;
pos = (380,0);
},
{
name = top;
pos = (380,840);
}
);
layerId = m003;
shapes = (
{
closed = 1;
nodes = (
(240,0,l),
(160,40,l),
(160,360,l),
(200,400,l),
(560,400,l),
(600,360,l),
(600,40,l),
(520,0,l),
(720,0,l),
(640,40,l),
(640,760,l),
(720,800,l),
(520,800,l),
(600,760,l),
(600,480,l),
(560,440,l),
(200,440,l),
(160,480,l),
(160,760,l),
(240,800,l),
(40,800,l),
(120,760,l),
(120,40,l),
(40,0,l)
);
}
);
width = 760;
}
);
unicode = 72;
},
{
glyphname = I;
lastChange = "2021-06-24 12:39:33 +0000";
layers = (
{
anchors = (
{
name = bottom;
pos = (220,0);
},
{
name = center;
pos = (220,400);
},
{
name = ogonek;
pos = (220,0);
},
{
name = right;
pos = (200,0);
},
{
name = top;
pos = (220,840);
}
);
layerId = "EBA0A543-5703-488C-9449-531557917997";
shapes = (
{
closed = 1;
nodes = (
(400,0,l),
(320,80,l),
(320,720,l),
(400,800,l),
(40,800,l),
(120,720,l),
(120,80,l),
(40,0,l)
);
}
);
userData = {
com.typemytype.robofont.layerData = {
regular = {
anchors = (
);
components = (
);
contours = (
{
points = (
{
segmentType = line;
smooth = 0;
x = 240;
y = 80;
},
{
segmentType = line;
smooth = 0;
x = 320;
y = 0;
},
{
segmentType = line;
smooth = 0;
x = 40;
y = 0;
},
{
segmentType = line;
smooth = 0;
x = 120;
y = 80;
},
{
segmentType = line;
smooth = 0;
x = 120;
y = 720;
},
{
segmentType = line;
smooth = 0;
x = 40;
y = 800;
},
{
segmentType = line;
smooth = 0;
x = 320;
y = 800;
},
{
segmentType = line;
smooth = 0;
x = 240;
y = 720;
}
);
}
);
lib = {
};
name = I;
unicodes = (
);
width = 440;
};
};
com.typemytype.robofont.mark = (
0.001,
0.822,
0.283,
1
);
};
width = 440;
},
{
anchors = (
{
name = bottom;
pos = (180,0);
},
{
name = center;
pos = (180,420);
},
{
name = ogonek;
pos = (180,0);
},
{
name = right;
pos = (240,0);
},
{
name = top;
pos = (180,840);
}
);
layerId = master01;
shapes = (
{
closed = 1;
nodes = (
(320,0,l),
(240,80,l),
(240,720,l),
(320,800,l),
(40,800,l),
(120,720,l),
(120,80,l),
(40,0,l)
);
}
);
width = 360;
},
{
anchors = (
{
name = bottom;
pos = (140,0);
},
{
name = center;
pos = (140,420);
},
{
name = ogonek;
pos = (140,0);
},
{
name = right;
pos = (200,0);
},
{
name = top;
pos = (140,840);
}
);
layerId = m003;
shapes = (
{
closed = 1;
nodes = (
(240,0,l),
(160,40,l),
(160,760,l),
(240,800,l),
(40,800,l),
(120,760,l),
(120,40,l),
(40,0,l)
);
}
);
width = 280;
}
);
unicode = 73;
},
{
glyphname = J;
lastChange = "2021-06-17 09:40:00 +0000";
layers = (
{
anchors = (
{
name = top;
pos = (220,840);
}
);
layerId = "EBA0A543-5703-488C-9449-531557917997";
shapes = (
{
closed = 1;
nodes = (
(200,-40,l),
(320,120,l),
(320,720,l),
(400,800,l),
(40,800,l),
(120,720,l),
(120,120,l),
(80,40,l),
(-40,-80,l),
(0,-120,l)
);
}
);
userData = {
com.typemytype.robofont.layerData = {
regular = {
anchors = (
);
components = (
);
contours = (
{
points = (
{
segmentType = line;
smooth = 0;
x = 20;
y = -80;
},
{
segmentType = line;
smooth = 0;
x = 140;
y = 40;
},
{
segmentType = line;
smooth = 0;
x = 180;
y = 120;
},
{
segmentType = line;
smooth = 0;
x = 180;
y = 720;
},
{
segmentType = line;
smooth = 0;
x = 100;
y = 800;
},
{
segmentType = line;
smooth = 0;
x = 380;
y = 800;
},
{
segmentType = line;
smooth = 0;
x = 300;
y = 720;
},
{
segmentType = line;
smooth = 0;
x = 300;
y = 120;
},
{
segmentType = line;
smooth = 0;
x = 220;
y = 0;
},
{
segmentType = line;
smooth = 0;
x = 60;
y = -120;
}
);
}
);
lib = {
};
name = J;
unicodes = (
);
width = 400;
};
};
com.typemytype.robofont.mark = (
0.001,
0.822,
0.283,
1
);
};
width = 400;
},
{
anchors = (
{
name = top;
pos = (260,840);
}
);
layerId = master01;
shapes = (
{
closed = 1;
nodes = (
(240,0,l),
(320,120,l),
(320,720,l),
(400,800,l),
(120,800,l),
(200,720,l),
(200,120,l),
(160,40,l),
(40,-80,l),
(80,-120,l)
);
}
);
width = 440;
},
{
anchors = (
{
name = top;
pos = (220,840);
}
);
layerId = m003;
shapes = (
{
closed = 1;
nodes = (
(160,-40,l),
(240,120,l),
(240,760,l),
(320,800,l),
(120,800,l),
(200,760,l),
(200,120,l),
(120,-40,l),
(40,-80,l),
(40,-120,l)
);
}
);
width = 360;
}
);
unicode = 74;
},
{
glyphname = K;
lastChange = "2021-06-29 12:47:50 +0000";
layers = (
{
anchors = (
{
name = bottom;
pos = (480,0);
},
{
name = top;
pos = (400,840);
}
);
layerId = "EBA0A543-5703-488C-9449-531557917997";
shapes = (
{
closed = 1;
nodes = (
(800,0,l),
(600,400,l),
(400,440,l),
(710,720,l),
(800,800,l),
(400,800,l),
(480,720,l),
(320,440,l),
(320,420,l),
(320,400,l),
(440,280,l),
(560,40,l),
(760,-40,l)
);
},
{
closed = 1;
nodes = (
(400,0,l),
(320,80,l),
(320,720,l),
(400,800,l),
(40,800,l),
(120,720,l),
(120,80,l),
(40,0,l)
);
}
);
userData = {
com.typemytype.robofont.layerData = {
background = {
anchors = (
{
name = top;
x = 440;
y = 840;
},
{
name = bottom;
x = 440;
y = 0;
}
);
components = (
);
contours = (
{
points = (
{
segmentType = line;
smooth = 0;
x = 40;
y = 800;
},
{
segmentType = line;
smooth = 0;
x = 520;
y = 800;
},
{
segmentType = line;
smooth = 0;
x = 640;
y = 760;
},
{
segmentType = line;
smooth = 0;
x = 760;
y = 600;
},
{
segmentType = line;
smooth = 0;
x = 680;
y = 400;
},
{
segmentType = line;
smooth = 0;
x = 520;
y = 360;
},
{
segmentType = line;
smooth = 0;
x = 520;
y = 320;
},
{
segmentType = line;
smooth = 0;
x = 640;
y = 280;
},
{
segmentType = line;
smooth = 0;
x = 800;
y = 0;
},
{
segmentType = line;
smooth = 0;
x = 760;
y = -40;
},
{
segmentType = line;
smooth = 0;
x = 560;
y = 40;
},
{
segmentType = line;
smooth = 0;
x = 440;
y = 280;
},
{
segmentType = line;
smooth = 0;
x = 400;
y = 320;
},
{
segmentType = line;
smooth = 0;
x = 320;
y = 360;
},
{
segmentType = line;
smooth = 0;
x = 320;
y = 80;
},
{
segmentType = line;
smooth = 0;
x = 400;
y = 0;
},
{
segmentType = line;
smooth = 0;
x = 40;
y = 0;
},
{
segmentType = line;
smooth = 0;
x = 120;
y = 80;
},
{
segmentType = line;
smooth = 0;
x = 120;
y = 720;
}
);
},
{
points = (
{
segmentType = line;
smooth = 0;
x = 520;
y = 440;
},
{
segmentType = line;
smooth = 0;
x = 560;
y = 560;
},
{
segmentType = line;
smooth = 0;
x = 520;
y = 680;
},
{
segmentType = line;
smooth = 0;
x = 440;
y = 720;
},
{
segmentType = line;
smooth = 0;
x = 360;
y = 720;
},
{
segmentType = line;
smooth = 0;
x = 320;
y = 680;
},
{
segmentType = line;
smooth = 0;
x = 320;
y = 400;
},
{
segmentType = line;
smooth = 0;
x = 440;
y = 400;
}
);
}
);
lib = {
com.typemytype.robofont.layerData = {
background = {
anchors = (
);
components = (
);
contours = (
{
points = (
{
segmentType = line;
smooth = 1;
x = 320;
y = 360;
},
{
segmentType = line;
smooth = 0;
x = 320;
y = 80;
},
{
segmentType = line;
smooth = 0;
x = 400;
y = 0;
},
{
segmentType = line;
smooth = 0;
x = 40;
y = 0;
},
{
segmentType = line;
smooth = 0;
x = 120;
y = 80;
},
{
segmentType = line;
smooth = 0;
x = 120;
y = 720;
},
{
segmentType = line;
smooth = 0;
x = 40;
y = 800;
},
{
segmentType = line;
smooth = 0;
x = 520;
y = 800;
},
{
segmentType = line;
smooth = 0;
x = 640;
y = 760;
},
{
segmentType = line;
smooth = 0;
x = 760;
y = 600;
},
{
segmentType = line;
smooth = 0;
x = 680;
y = 400;
},
{
segmentType = line;
smooth = 0;
x = 480;
y = 320;
}
);
},
{
points = (
{
segmentType = line;
smooth = 0;
x = 360;
y = 720;
},
{
segmentType = line;
smooth = 0;
x = 320;
y = 680;
},
{
segmentType = line;
smooth = 0;
x = 320;
y = 400;
},
{
segmentType = line;
smooth = 0;
x = 440;
y = 400;
},
{
segmentType = line;
smooth = 0;
x = 520;
y = 440;
},
{
segmentType = line;
smooth = 0;
x = 560;
y = 560;
},
{
segmentType = line;
smooth = 0;
x = 520;
y = 680;
},
{
segmentType = line;
smooth = 0;
x = 440;
y = 720;
}
);
}
);
lib = {
};
name = R;
unicodes = (
);
width = 800;
};
regular = {
anchors = (
);
components = (
);
contours = (
{
points = (
{
segmentType = line;
smooth = 0;
x = 80;
y = 800;
},
{
segmentType = line;
smooth = 0;
x = 440;
y = 800;
},
{
segmentType = line;
smooth = 0;
x = 640;
y = 760;
},
{
segmentType = line;
smooth = 0;
x = 720;
y = 600;
},
{
segmentType = line;
smooth = 0;
x = 640;
y = 440;
},
{
segmentType = line;
smooth = 0;
x = 400;
y = 400;
},
{
segmentType = line;
smooth = 0;
x = 520;
y = 360;
},
{
segmentType = line;
smooth = 0;
x = 760;
y = 0;
},
{
segmentType = line;
smooth = 0;
x = 720;
y = -40;
},
{
segmentType = line;
smooth = 0;
x = 560;
y = 80;
},
{
segmentType = line;
smooth = 0;
x = 400;
y = 320;
},
{
segmentType = line;
smooth = 0;
x = 360;
y = 360;
},
{
segmentType = line;
smooth = 0;
x = 280;
y = 400;
},
{
segmentType = line;
smooth = 0;
x = 280;
y = 80;
},
{
segmentType = line;
smooth = 0;
x = 360;
y = 0;
},
{
segmentType = line;
smooth = 0;
x = 80;
y = 0;
},
{
segmentType = line;
smooth = 0;
x = 160;
y = 80;
},
{
segmentType = line;
smooth = 0;
x = 160;
y = 720;
}
);
},
{
points = (
{
segmentType = line;
smooth = 0;
x = 320;
y = 760;
},
{
segmentType = line;
smooth = 0;
x = 280;
y = 720;
},
{
segmentType = line;
smooth = 0;
x = 280;
y = 440;
},
{
segmentType = line;
smooth = 0;
x = 440;
y = 440;
},
{
segmentType = line;
smooth = 0;
x = 520;
y = 480;
},
{
segmentType = line;
smooth = 0;
x = 560;
y = 600;
},
{
segmentType = line;
smooth = 0;
x = 520;
y = 720;
},
{
segmentType = line;
smooth = 0;
x = 440;
y = 760;
}
);
}
);
lib = {
};
name = R;
unicodes = (
);
width = 800;
};
};
};
name = K;
unicodes = (
);
width = 800;
};
regular = {
anchors = (
);
components = (
);
contours = (
{
points = (
{
segmentType = line;
smooth = 0;
x = 760;
y = 0;
},
{
segmentType = line;
smooth = 0;
x = 720;
y = -40;
},
{
segmentType = line;
smooth = 0;
x = 560;
y = 80;
},
{
segmentType = line;
smooth = 0;
x = 400;
y = 320;
},
{
segmentType = line;
smooth = 0;
x = 320;
y = 360;
},
{
segmentType = line;
smooth = 0;
x = 280;
y = 320;
},
{
segmentType = line;
smooth = 0;
x = 280;
y = 80;
},
{
segmentType = line;
smooth = 0;
x = 360;
y = 0;
},
{
segmentType = line;
smooth = 0;
x = 80;
y = 0;
},
{
segmentType = line;
smooth = 0;
x = 160;
y = 80;
},
{
segmentType = line;
smooth = 0;
x = 160;
y = 720;
},
{
segmentType = line;
smooth = 0;
x = 80;
y = 800;
},
{
segmentType = line;
smooth = 0;
x = 360;
y = 800;
},
{
segmentType = line;
smooth = 0;
x = 280;
y = 720;
},
{
segmentType = line;
smooth = 0;
x = 280;
y = 400;
},
{
segmentType = line;
smooth = 0;
x = 560;
y = 720;
},
{
segmentType = line;
smooth = 0;
x = 480;
y = 800;
},
{
segmentType = line;
smooth = 0;
x = 720;
y = 800;
},
{
segmentType = line;
smooth = 0;
x = 640;
y = 720;
},
{
segmentType = line;
smooth = 0;
x = 360;
y = 400;
},
{
segmentType = line;
smooth = 0;
x = 520;
y = 360;
}
);
}
);
lib = {
};
name = K;
unicodes = (
);
width = 800;
};
};
com.typemytype.robofont.mark = (
0.001,
0.822,
0.283,
1
);
};
width = 800;
},
{
anchors = (
{
name = bottom;
pos = (440,0);
},
{
name = top;
pos = (380,840);
}
);
layerId = master01;
shapes = (
{
closed = 1;
nodes = (
(720,0,l),
(480,360,l),
(320,400,l),
(600,720,l),
(680,800,l),
(440,800,l),
(520,720,l),
(240,400,l),
(240,320,l),
(280,360,l),
(360,320,l),
(520,80,l),
(680,-40,l)
);
},
{
closed = 1;
nodes = (
(320,0,l),
(240,80,l),
(240,720,l),
(320,800,l),
(40,800,l),
(120,720,l),
(120,80,l),
(40,0,l)
);
}
);
width = 700;
},
{
anchors = (
{
name = bottom;
pos = (360,0);
},
{
name = top;
pos = (320,840);
}
);
layerId = m003;
shapes = (
{
closed = 1;
nodes = (
(600,0,l),
(360,360,l),
(200,400,l),
(520,760,l),
(600,800,l),
(400,800,l),
(480,760,l),
(120,360,l),
(120,320,l),
(160,360,l),
(320,280,l),
(480,40,l),
(600,-40,l)
);
},
{
closed = 1;
nodes = (
(240,0,l),
(160,40,l),
(160,760,l),
(240,800,l),
(40,800,l),
(120,760,l),
(120,40,l),
(40,0,l)
);
}
);
width = 660;
}
);
unicode = 75;
},
{
glyphname = Khook;
lastChange = "2021-06-30 22:26:33 +0000";
layers = (
{
anchors = (
{
name = bottom;
pos = (360,0);
},
{
name = top;
pos = (320,840);
}
);
layerId = m003;
shapes = (
{
closed = 1;
nodes = (
(600,0,l),
(360,360,l),
(200,400,l),
(480,760,l),
(680,760,l),
(640,840,l),
(480,800,l),
(400,720,l),
(120,360,l),
(120,320,l),
(160,360,l),
(320,280,l),
(480,40,l),
(600,-40,l)
);
},
{
closed = 1;
nodes = (
(240,0,l),
(160,40,l),
(160,760,l),
(240,800,l),
(40,800,l),
(120,760,l),
(120,40,l),
(40,0,l)
);
}
);
width = 660;
},
{
anchors = (
{
name = bottom;
pos = (440,0);
},
{
name = top;
pos = (380,840);
}
);
layerId = master01;
shapes = (
{
closed = 1;
nodes = (
(720,0,l),
(480,360,l),
(320,400,l),
(560,720,l),
(760,720,l),
(720,840,l),
(560,800,l),
(480,720,l),
(240,400,l),
(240,320,l),
(280,360,l),
(360,320,l),
(520,80,l),
(680,-40,l)
);
},
{
closed = 1;
nodes = (
(320,0,l),
(240,80,l),
(240,720,l),
(320,800,l),
(40,800,l),
(120,720,l),
(120,80,l),
(40,0,l)
);
}
);
width = 700;
},
{
anchors = (
{
name = bottom;
pos = (480,0);
},
{
name = top;
pos = (400,840);
}
);
layerId = "EBA0A543-5703-488C-9449-531557917997";
shapes = (
{
closed = 1;
nodes = (
(800,0,l),
(600,400,l),
(400,440,l),
(680,720,l),
(880,720,l),
(840,880,l),
(670,840,l),
(480,720,l),
(320,440,l),
(320,420,l),
(320,400,l),
(440,280,l),
(560,40,l),
(760,-40,l)
);
},
{
closed = 1;
nodes = (
(400,0,l),
(320,80,l),
(320,720,l),
(400,800,l),
(40,800,l),
(120,720,l),
(120,80,l),
(40,0,l)
);
}
);
width = 800;
}
);
unicode = 408;
},
{
glyphname = L;
lastChange = "2021-06-23 22:22:03 +0000";
layers = (
{
anchors = (
{
name = bottom;
pos = (360,0);
},
{
name = mid;
pos = (360,420);
},
{
name = right;
pos = (400,800);
},
{
name = top;
pos = (220,840);
}
);
layerId = "EBA0A543-5703-488C-9449-531557917997";
shapes = (
{
closed = 1;
nodes = (
(680,280,l),
(640,280,l),
(520,80,l),
(360,80,l),
(320,120,l),
(320,720,l),
(400,800,l),
(40,800,l),
(120,720,l),
(120,80,l),
(40,0,l),
(560,0,l),
(640,-40,l)
);
}
);
userData = {
com.typemytype.robofont.layerData = {
regular = {
anchors = (
);
components = (
);
contours = (
{
points = (
{
segmentType = line;
smooth = 0;
x = 520;
y = 0;
},
{
segmentType = line;
smooth = 0;
x = 40;
y = 0;
},
{
segmentType = line;
smooth = 0;
x = 120;
y = 80;
},
{
segmentType = line;
smooth = 0;
x = 120;
y = 720;
},
{
segmentType = line;
smooth = 0;
x = 40;
y = 800;
},
{
segmentType = line;
smooth = 0;
x = 320;
y = 800;
},
{
segmentType = line;
smooth = 0;
x = 240;
y = 720;
},
{
segmentType = line;
smooth = 0;
x = 240;
y = 80;
},
{
segmentType = line;
smooth = 0;
x = 280;
y = 40;
},
{
segmentType = line;
smooth = 0;
x = 480;
y = 40;
},
{
segmentType = line;
smooth = 0;
x = 600;
y = 240;
},
{
segmentType = line;
smooth = 0;
x = 640;
y = 240;
},
{
segmentType = line;
smooth = 0;
x = 600;
y = -40;
}
);
}
);
lib = {
};
name = L;
unicodes = (
);
width = 680;
};
};
com.typemytype.robofont.mark = (
0.001,
0.822,
0.283,
1
);
};
width = 680;
},
{
anchors = (
{
name = bottom;
pos = (320,0);
},
{
name = mid;
pos = (280,400);
},
{
name = right;
pos = (320,840);
},
{
name = top;
pos = (180,840);
}
);
layerId = master01;
shapes = (
{
closed = 1;
nodes = (
(640,240,l),
(600,240,l),
(480,40,l),
(280,40,l),
(240,80,l),
(240,720,l),
(320,800,l),
(40,800,l),
(120,720,l),
(120,80,l),
(40,0,l),
(520,0,l),
(600,-40,l)
);
}
);
width = 680;
},
{
anchors = (
{
name = bottom;
pos = (320,0);
},
{
name = mid;
pos = (280,400);
},
{
name = right;
pos = (280,840);
},
{
name = top;
pos = (140,840);
}
);
layerId = m003;
shapes = (
{
closed = 1;
nodes = (
(640,240,l),
(600,240,l),
(520,40,l),
(200,40,l),
(160,40,l),
(160,760,l),
(240,800,l),
(40,800,l),
(120,760,l),
(120,40,l),
(40,0,l),
(400,0,l),
(560,-40,l)
);
}
);
width = 680;
}
);
unicode = 76;
},
{
glyphname = Lslash;
lastChange = "2021-06-16 11:53:04 +0000";
layers = (
{
layerId = m003;
shapes = (
{
closed = 1;
nodes = (
(280,440,l),
(401,600,l),
(122,318,l),
(0,160,l)
);
},
{
ref = L;
}
);
width = 680;
},
{
layerId = master01;
shapes = (
{
closed = 1;
nodes = (
(440,560,l),
(400,600,l),
(-40,160,l),
(0,120,l)
);
},
{
ref = L;
}
);
width = 680;
},
{
layerId = "EBA0A543-5703-488C-9449-531557917997";
shapes = (
{
closed = 1;
nodes = (
(520,560,l),
(440,640,l),
(-40,200,l),
(40,120,l)
);
},
{
ref = L;
}
);
width = 680;
}
);
unicode = 321;
},
{
glyphname = M;
lastChange = "2021-06-26 13:36:05 +0000";
layers = (
{
anchors = (
{
name = bottom;
pos = (520,0);
},
{
name = top;
pos = (560,800);
}
);
layerId = "EBA0A543-5703-488C-9449-531557917997";
shapes = (
{
closed = 1;
nodes = (
(560,0,ls),
(760,600,l),
(760,80,l),
(680,0,l),
(1040,0,l),
(960,80,l),
(960,720,l),
(1040,800,l),
(760,800,l),
(560,200,l),
(560,240,l),
(360,800,l),
(40,800,l),
(120,720,l),
(120,80,l),
(40,0,l),
(320,0,l),
(240,80,l),
(200,640,l),
(440,-40,l)
);
}
);
userData = {
com.typemytype.robofont.layerData = {
regular = {
anchors = (
);
components = (
);
contours = (
{
points = (
{
segmentType = line;
smooth = 0;
x = 520;
y = 200;
},
{
segmentType = line;
smooth = 0;
x = 760;
y = 800;
},
{
segmentType = line;
smooth = 0;
x = 960;
y = 800;
},
{
segmentType = line;
smooth = 0;
x = 880;
y = 720;
},
{
segmentType = line;
smooth = 0;
x = 880;
y = 80;
},
{
segmentType = line;
smooth = 0;
x = 960;
y = 0;
},
{
segmentType = line;
smooth = 0;
x = 680;
y = 0;
},
{
segmentType = line;
smooth = 0;
x = 760;
y = 80;
},
{
segmentType = line;
smooth = 0;
x = 760;
y = 600;
},
{
segmentType = line;
smooth = 0;
x = 520;
y = 0;
},
{
segmentType = line;
smooth = 0;
x = 480;
y = -40;
},
{
segmentType = line;
smooth = 0;
x = 200;
y = 640;
},
{
segmentType = line;
smooth = 0;
x = 200;
y = 80;
},
{
segmentType = line;
smooth = 0;
x = 280;
y = 0;
},
{
segmentType = line;
smooth = 0;
x = 40;
y = 0;
},
{
segmentType = line;
smooth = 0;
x = 120;
y = 80;
},
{
segmentType = line;
smooth = 0;
x = 120;
y = 720;
},
{
segmentType = line;
smooth = 0;
x = 40;
y = 800;
},
{
segmentType = line;
smooth = 0;
x = 280;
y = 800;
}
);
}
);
lib = {
};
name = M;
unicodes = (
);
width = 1040;
};
};
com.typemytype.robofont.mark = (
0.001,
0.822,
0.283,
1
);
};
width = 1040;
},
{
anchors = (
{
name = bottom;
pos = (500,0);
},
{
name = top;
pos = (520,800);
}
);
layerId = master01;
shapes = (
{
closed = 1;
nodes = (
(520,0,l),
(760,600,l),
(760,80,l),
(680,0,l),
(960,0,l),
(880,80,l),
(880,720,l),
(960,800,l),
(760,800,l),
(520,200,l),
(504,240,l),
(280,800,l),
(40,800,l),
(120,720,l),
(120,80,l),
(40,0,l),
(280,0,l),
(200,80,l),
(200,640,l),
(480,-40,l)
);
}
);
width = 1000;
},
{
anchors = (
{
name = bottom;
pos = (520,0);
},
{
name = top;
pos = (520,800);
}
);
layerId = m003;
shapes = (
{
closed = 1;
nodes = (
(560,40,l),
(840,720,l),
(840,40,l),
(760,0,l),
(960,0,l),
(880,40,l),
(880,760,l),
(960,800,l),
(800,800,l),
(520,40,l),
(520,80,l),
(240,800,l),
(80,800,l),
(160,760,l),
(160,40,l),
(80,0,l),
(280,0,l),
(200,40,l),
(200,720,l),
(520,-40,l)
);
}
);
width = 1000;
}
);
unicode = 77;
},
{
glyphname = N;
lastChange = "2021-06-27 21:25:44 +0000";
layers = (
{
anchors = (
{
name = bottom;
pos = (440,0);
},
{
name = hook;
pos = (660,0);
},
{
name = top;
pos = (440,840);
}
);
layerId = "EBA0A543-5703-488C-9449-531557917997";
shapes = (
{
closed = 1;
nodes = (
(320,0,l),
(240,80,l),
(200,600,l),
(560,0,l),
(760,0,l),
(760,720,l),
(840,800,l),
(560,800,l),
(640,720,l),
(680,200,l),
(320,800,l),
(40,800,l),
(120,720,l),
(120,80,l),
(40,0,l)
);
}
);
userData = {
com.typemytype.robofont.layerData = {
regular = {
anchors = (
);
components = (
);
contours = (
{
points = (
{
segmentType = line;
smooth = 0;
x = 720;
y = 40;
},
{
segmentType = line;
smooth = 0;
x = 640;
y = -40;
},
{
segmentType = line;
smooth = 0;
x = 200;
y = 680;
},
{
segmentType = line;
smooth = 0;
x = 200;
y = 80;
},
{
segmentType = line;
smooth = 0;
x = 280;
y = 0;
},
{
segmentType = line;
smooth = 0;
x = 40;
y = 0;
},
{
segmentType = line;
smooth = 0;
x = 120;
y = 80;
},
{
segmentType = line;
smooth = 0;
x = 120;
y = 720;
},
{
segmentType = line;
smooth = 0;
x = 40;
y = 800;
},
{
segmentType = line;
smooth = 0;
x = 280;
y = 800;
},
{
segmentType = line;
smooth = 0;
x = 640;
y = 200;
},
{
segmentType = line;
smooth = 0;
x = 640;
y = 720;
},
{
segmentType = line;
smooth = 0;
x = 560;
y = 800;
},
{
segmentType = line;
smooth = 0;
x = 800;
y = 800;
},
{
segmentType = line;
smooth = 0;
x = 720;
y = 720;
}
);
}
);
lib = {
};
name = N;
unicodes = (
);
width = 880;
};
};
com.typemytype.robofont.mark = (
0.001,
0.822,
0.283,
1
);
};
width = 880;
},
{
anchors = (
{
name = bottom;
pos = (440,0);
},
{
name = hook;
pos = (660,40);
},
{
name = top;
pos = (400,840);
}
);
layerId = master01;
shapes = (
{
closed = 1;
nodes = (
(280,0,l),
(200,80,l),
(200,680,l),
(640,-40,l),
(720,40,l),
(720,720,l),
(800,800,l),
(560,800,l),
(640,720,l),
(640,200,l),
(280,800,l),
(40,800,l),
(120,720,l),
(120,80,l),
(40,0,l)
);
}
);
width = 840;
},
{
anchors = (
{
name = bottom;
pos = (400,0);
},
{
name = hook;
pos = (660,0);
},
{
name = top;
pos = (400,840);
}
);
layerId = m003;
shapes = (
{
closed = 1;
nodes = (
(240,0,l),
(160,40,l),
(160,760,l),
(640,-40,l),
(680,0,l),
(680,760,l),
(760,800,l),
(560,800,l),
(640,760,l),
(640,40,l),
(200,800,l),
(40,800,l),
(120,760,l),
(120,40,l),
(40,0,l)
);
}
);
width = 800;
}
);
unicode = 78;
},
{
glyphname = Nhookleft;
lastChange = "2021-06-30 20:56:17 +0000";
layers = (
{
anchors = (
{
name = bottom;
pos = (400,0);
},
{
name = top;
pos = (400,840);
}
);
layerId = m003;
shapes = (
{
closed = 1;
nodes = (
(160,0,l),
(160,760,l),
(640,-40,l),
(680,0,l),
(680,760,l),
(760,800,l),
(560,800,l),
(640,760,l),
(640,40,l),
(200,800,l),
(40,800,l),
(120,760,l),
(120,0,l)
);
},
{
closed = 1;
nodes = (
(160,0,l),
(120,0,l),
(120,-80,l),
(80,-160,l),
(0,-200,l),
(0,-240,l),
(120,-200,l),
(160,-80,l)
);
}
);
width = 800;
},
{
anchors = (
{
name = bottom;
pos = (441,0);
},
{
name = top;
pos = (441,840);
}
);
layerId = master01;
shapes = (
{
closed = 1;
nodes = (
(220,40,l),
(220,680,l),
(660,-40,l),
(740,40,l),
(740,720,l),
(820,800,l),
(580,800,l),
(660,720,l),
(660,200,l),
(300,800,l),
(60,800,l),
(140,720,l),
(140,40,l)
);
},
{
closed = 1;
nodes = (
(220,40,l),
(140,40,l),
(140,-40,l),
(140,-120,l),
(0,-160,l),
(0,-240,l),
(160,-200,l),
(220,-80,l)
);
}
);
width = 860;
},
{
anchors = (
{
name = bottom;
pos = (440,0);
},
{
name = top;
pos = (440,840);
}
);
layerId = "EBA0A543-5703-488C-9449-531557917997";
shapes = (
{
closed = 1;
nodes = (
(280,-120,l),
(200,600,l),
(560,0,l),
(760,0,l),
(760,720,l),
(840,800,l),
(560,800,l),
(640,720,l),
(680,200,l),
(320,800,l),
(40,800,l),
(120,720,l),
(120,0,l)
);
},
{
closed = 1;
nodes = (
(280,-120,l),
(120,0,l),
(120,-120,l),
(120,-160,l),
(0,-200,l),
(0,-320,l),
(170,-280,l),
(280,-160,l)
);
}
);
width = 880;
}
);
metricLeft = "=N-40";
metricRight = "=N";
unicode = 413;
},
{
glyphname = O;
lastChange = "2021-06-26 14:49:49 +0000";
layers = (
{
anchors = (
{
name = bottom;
pos = (460,0);
},
{
name = center;
pos = (460,400);
},
{
name = ogonek;
pos = (460,0);
},
{
name = top;
pos = (460,840);
},
{
name = topleft;
pos = (20,800);
},
{
name = topright;
pos = (720,720);
}
);
layerId = "EBA0A543-5703-488C-9449-531557917997";
shapes = (
{
closed = 1;
nodes = (
(560,0,l),
(720,80,l),
(840,200,l),
(880,400,l),
(840,600,l),
(720,720,l),
(560,800,l),
(360,800,l),
(200,720,l),
(80,600,l),
(40,400,l),
(80,200,l),
(200,80,l),
(360,0,l)
);
},
{
closed = 1;
nodes = (
(360,120,l),
(280,240,l),
(280,560,l),
(360,680,l),
(440,720,l),
(480,720,l),
(560,680,l),
(598,623,l),
(640,560,l),
(640,240,l),
(560,120,l),
(480,80,l),
(440,80,l)
);
}
);
userData = {
com.typemytype.robofont.layerData = {
regular = {
anchors = (
);
components = (
);
contours = (
{
points = (
{
segmentType = line;
smooth = 0;
x = 720;
y = 80;
},
{
segmentType = line;
smooth = 0;
x = 560;
y = 0;
},
{
segmentType = line;
smooth = 0;
x = 320;
y = 0;
},
{
segmentType = line;
smooth = 0;
x = 160;
y = 80;
},
{
segmentType = line;
smooth = 0;
x = 80;
y = 200;
},
{
segmentType = line;
smooth = 0;
x = 40;
y = 400;
},
{
segmentType = line;
smooth = 0;
x = 80;
y = 600;
},
{
segmentType = line;
smooth = 0;
x = 160;
y = 720;
},
{
segmentType = line;
smooth = 0;
x = 320;
y = 800;
},
{
segmentType = line;
smooth = 0;
x = 560;
y = 800;
},
{
segmentType = line;
smooth = 0;
x = 720;
y = 720;
},
{
segmentType = line;
smooth = 0;
x = 800;
y = 600;
},
{
segmentType = line;
smooth = 0;
x = 840;
y = 400;
},
{
segmentType = line;
smooth = 0;
x = 800;
y = 200;
}
);
},
{
points = (
{
segmentType = line;
smooth = 0;
x = 680;
y = 560;
},
{
segmentType = line;
smooth = 0;
x = 600;
y = 680;
},
{
segmentType = line;
smooth = 0;
x = 480;
y = 760;
},
{
segmentType = line;
smooth = 0;
x = 400;
y = 760;
},
{
segmentType = line;
smooth = 0;
x = 280;
y = 680;
},
{
segmentType = line;
smooth = 0;
x = 200;
y = 560;
},
{
segmentType = line;
smooth = 0;
x = 200;
y = 240;
},
{
segmentType = line;
smooth = 0;
x = 280;
y = 120;
},
{
segmentType = line;
smooth = 0;
x = 400;
y = 40;
},
{
segmentType = line;
smooth = 0;
x = 480;
y = 40;
},
{
segmentType = line;
smooth = 0;
x = 600;
y = 120;
},
{
segmentType = line;
smooth = 0;
x = 680;
y = 240;
}
);
}
);
lib = {
};
name = O;
unicodes = (
);
width = 920;
};
};
com.typemytype.robofont.mark = (
0.001,
0.822,
0.283,
1
);
};
width = 920;
},
{
anchors = (
{
name = bottom;
pos = (440,0);
},
{
name = center;
pos = (440,420);
},
{
name = ogonek;
pos = (440,0);
},
{
name = top;
pos = (440,840);
},
{
name = topleft;
pos = (20,840);
},
{
name = topright;
pos = (720,720);
}
);
layerId = master01;
shapes = (
{
closed = 1;
nodes = (
(560,0,l),
(720,80,l),
(800,200,l),
(840,400,l),
(800,600,l),
(720,720,l),
(560,800,l),
(320,800,l),
(160,720,l),
(80,600,l),
(40,400,l),
(80,200,l),
(160,80,l),
(320,0,l)
);
},
{
closed = 1;
nodes = (
(280,120,l),
(200,240,l),
(200,560,l),
(280,680,l),
(400,760,l),
(480,760,l),
(600,680,l),
(642,617,l),
(680,560,l),
(680,240,l),
(600,120,l),
(480,40,l),
(400,40,l)
);
}
);
width = 880;
},
{
anchors = (
{
name = bottom;
pos = (440,0);
},
{
name = center;
pos = (440,420);
},
{
name = ogonek;
pos = (440,0);
},
{
name = top;
pos = (440,840);
},
{
name = topleft;
pos = (20,840);
},
{
name = topright;
pos = (720,720);
}
);
layerId = m003;
shapes = (
{
closed = 1;
nodes = (
(560,0,l),
(720,80,l),
(800,240,l),
(840,400,l),
(800,560,l),
(720,720,l),
(560,800,l),
(320,800,l),
(160,720,l),
(80,560,l),
(40,400,l),
(80,240,l),
(160,80,l),
(320,0,l)
);
},
{
closed = 1;
nodes = (
(200,120,l),
(120,320,l),
(120,480,l),
(200,680,l),
(320,760,l),
(560,760,l),
(680,680,l),
(722,617,l),
(760,480,l),
(760,320,l),
(680,120,l),
(560,40,l),
(320,40,l)
);
}
);
width = 880;
}
);
unicode = 79;
},
{
glyphname = Oslash;
lastChange = "2021-04-25 18:12:22 +0000";
layers = (
{
layerId = "EBA0A543-5703-488C-9449-531557917997";
shapes = (
{
closed = 1;
nodes = (
(360,-80,l),
(640,840,l),
(560,880,l),
(280,-40,l)
);
},
{
ref = O;
}
);
width = 920;
},
{
layerId = master01;
shapes = (
{
closed = 1;
nodes = (
(400,-80,l),
(600,880,l),
(560,880,l),
(360,-80,l)
);
},
{
pos = (40,0);
ref = O;
}
);
width = 960;
},
{
layerId = m003;
shapes = (
{
closed = 1;
nodes = (
(400,-80,l),
(600,880,l),
(560,880,l),
(360,-80,l)
);
},
{
pos = (40,0);
ref = O;
}
);
width = 960;
}
);
unicode = 216;
},
{
glyphname = OE;
lastChange = "2021-04-26 06:35:08 +0000";
layers = (
{
anchors = (
{
name = bottom;
pos = (760,0);
},
{
name = right;
pos = (1080,0);
},
{
name = top;
pos = (720,840);
}
);
layerId = "EBA0A543-5703-488C-9449-531557917997";
shapes = (
{
closed = 1;
nodes = (
(1040,280,l),
(1000,280,l),
(880,80,l),
(720,80,l),
(680,120,l),
(680,320,l),
(720,360,l),
(800,360,l),
(920,240,l),
(920,560,l),
(800,440,l),
(720,440,l),
(680,480,l),
(680,680,l),
(720,720,l),
(840,720,l),
(960,560,l),
(1000,560,l),
(960,840,l),
(800,800,l),
(360,800,l),
(200,720,l),
(80,600,l),
(40,400,l),
(80,200,l),
(200,80,l),
(360,0,l),
(920,0,l),
(1000,-40,l)
);
},
{
closed = 1;
nodes = (
(440,80,l),
(360,120,l),
(280,240,l),
(280,560,l),
(360,680,l),
(440,720,l),
(480,720,l),
(480,80,l)
);
}
);
userData = {
com.typemytype.robofont.layerData = {
regular = {
anchors = (
);
components = (
);
contours = (
{
points = (
{
segmentType = line;
smooth = 0;
x = 1040;
y = 240;
},
{
segmentType = line;
smooth = 0;
x = 1000;
y = -40;
},
{
segmentType = line;
smooth = 0;
x = 920;
y = 0;
},
{
segmentType = line;
smooth = 0;
x = 400;
y = 0;
},
{
segmentType = line;
smooth = 0;
x = 480;
y = 80;
},
{
segmentType = line;
smooth = 0;
x = 480;
y = 720;
},
{
segmentType = line;
smooth = 0;
x = 400;
y = 800;
},
{
segmentType = line;
smooth = 0;
x = 800;
y = 800;
},
{
segmentType = line;
smooth = 0;
x = 960;
y = 840;
},
{
segmentType = line;
smooth = 0;
x = 1000;
y = 600;
},
{
segmentType = line;
smooth = 0;
x = 960;
y = 600;
},
{
segmentType = line;
smooth = 0;
x = 840;
y = 760;
},
{
segmentType = line;
smooth = 0;
x = 640;
y = 760;
},
{
segmentType = line;
smooth = 0;
x = 600;
y = 720;
},
{
segmentType = line;
smooth = 0;
x = 600;
y = 480;
},
{
segmentType = line;
smooth = 0;
x = 640;
y = 440;
},
{
segmentType = line;
smooth = 0;
x = 800;
y = 440;
},
{
segmentType = line;
smooth = 0;
x = 880;
y = 520;
},
{
segmentType = line;
smooth = 0;
x = 880;
y = 320;
},
{
segmentType = line;
smooth = 0;
x = 800;
y = 400;
},
{
segmentType = line;
smooth = 0;
x = 640;
y = 400;
},
{
segmentType = line;
smooth = 0;
x = 600;
y = 360;
},
{
segmentType = line;
smooth = 0;
x = 600;
y = 80;
},
{
segmentType = line;
smooth = 0;
x = 640;
y = 40;
},
{
segmentType = line;
smooth = 0;
x = 880;
y = 40;
},
{
segmentType = line;
smooth = 0;
x = 1000;
y = 240;
}
);
}
);
lib = {
};
name = OE;
unicodes = (
);
width = 1080;
};
};
com.typemytype.robofont.mark = (
0.001,
0.822,
0.283,
1
);
};
width = 1080;
},
{
anchors = (
{
name = bottom;
pos = (760,0);
},
{
name = right;
pos = (1080,0);
},
{
name = top;
pos = (720,840);
}
);
layerId = master01;
shapes = (
{
closed = 1;
nodes = (
(1080,240,l),
(1040,240,l),
(920,40,l),
(680,40,l),
(640,80,l),
(640,360,l),
(680,400,l),
(840,400,l),
(920,320,l),
(920,520,l),
(840,440,l),
(680,440,l),
(640,480,l),
(640,720,l),
(680,760,l),
(880,760,l),
(1000,600,l),
(1040,600,l),
(1000,840,l),
(840,800,l),
(360,800,l),
(200,720,l),
(120,600,l),
(80,400,l),
(120,200,l),
(200,80,l),
(360,0,l),
(960,0,l),
(1040,-40,l)
);
},
{
closed = 1;
nodes = (
(440,40,l),
(320,120,l),
(240,240,l),
(240,560,l),
(320,680,l),
(440,760,l),
(520,760,l),
(520,40,l)
);
}
);
width = 1120;
},
{
anchors = (
{
name = bottom;
pos = (760,0);
},
{
name = right;
pos = (1080,0);
},
{
name = top;
pos = (720,840);
}
);
layerId = m003;
shapes = (
{
closed = 1;
nodes = (
(1080,240,l),
(1040,240,l),
(960,40,l),
(680,40,l),
(600,40,l),
(600,400,l),
(680,400,l),
(880,400,l),
(920,320,l),
(920,520,l),
(880,440,l),
(680,440,l),
(600,440,l),
(600,760,l),
(680,760,l),
(920,760,l),
(1000,600,l),
(1040,600,l),
(960,840,l),
(800,800,l),
(360,800,l),
(200,720,l),
(120,600,l),
(80,400,l),
(120,200,l),
(200,80,l),
(360,0,l),
(960,0,l),
(1000,-40,l)
);
},
{
closed = 1;
nodes = (
(400,40,l),
(240,120,l),
(160,320,l),
(160,480,l),
(240,680,l),
(400,760,l),
(560,760,l),
(560,40,l)
);
}
);
width = 1120;
}
);
unicode = 338;
},
{
glyphname = P;
lastChange = "2021-06-30 21:11:06 +0000";
layers = (
{
anchors = (
{
name = bottom;
pos = (400,0);
},
{
name = top;
pos = (400,840);
}
);
layerId = "EBA0A543-5703-488C-9449-531557917997";
shapes = (
{
closed = 1;
nodes = (
(400,0,l),
(320,80,l),
(320,680,l),
(360,720,l),
(440,720,l),
(520,680,l),
(560,560,l),
(520,440,l),
(440,400,l),
(259,400,l),
(261,375,l),
(480,320,l),
(680,400,l),
(760,600,l),
(640,760,l),
(520,800,l),
(40,800,l),
(120,720,l),
(120,80,l),
(40,0,l)
);
}
);
userData = {
com.typemytype.robofont.layerData = {
regular = {
anchors = (
);
components = (
);
contours = (
{
points = (
{
segmentType = line;
smooth = 0;
x = 280;
y = 360;
},
{
segmentType = line;
smooth = 0;
x = 280;
y = 80;
},
{
segmentType = line;
smooth = 0;
x = 360;
y = 0;
},
{
segmentType = line;
smooth = 0;
x = 80;
y = 0;
},
{
segmentType = line;
smooth = 0;
x = 160;
y = 80;
},
{
segmentType = line;
smooth = 0;
x = 160;
y = 720;
},
{
segmentType = line;
smooth = 0;
x = 80;
y = 800;
},
{
segmentType = line;
smooth = 0;
x = 440;
y = 800;
},
{
segmentType = line;
smooth = 0;
x = 640;
y = 760;
},
{
segmentType = line;
smooth = 0;
x = 720;
y = 600;
},
{
segmentType = line;
smooth = 0;
x = 640;
y = 400;
},
{
segmentType = line;
smooth = 0;
x = 440;
y = 320;
}
);
},
{
points = (
{
segmentType = line;
smooth = 0;
x = 320;
y = 760;
},
{
segmentType = line;
smooth = 0;
x = 280;
y = 720;
},
{
segmentType = line;
smooth = 0;
x = 280;
y = 400;
},
{
segmentType = line;
smooth = 0;
x = 400;
y = 400;
},
{
segmentType = line;
smooth = 0;
x = 520;
y = 440;
},
{
segmentType = line;
smooth = 0;
x = 560;
y = 600;
},
{
segmentType = line;
smooth = 0;
x = 520;
y = 720;
},
{
segmentType = line;
smooth = 0;
x = 440;
y = 760;
}
);
}
);
lib = {
};
name = P;
unicodes = (
);
width = 760;
};
};
com.typemytype.robofont.mark = (
0.001,
0.822,
0.283,
1
);
};
width = 760;
},
{
anchors = (
{
name = bottom;
pos = (360,0);
},
{
name = top;
pos = (360,840);
}
);
layerId = master01;
shapes = (
{
closed = 1;
nodes = (
(320,0,l),
(240,80,l),
(240,720,l),
(280,760,l),
(400,760,l),
(480,720,l),
(520,600,l),
(480,440,l),
(360,400,l),
(179,400,l),
(181,375,l),
(400,320,l),
(600,400,l),
(680,600,l),
(600,760,l),
(400,800,l),
(40,800,l),
(120,720,l),
(120,80,l),
(40,0,l)
);
}
);
width = 680;
},
{
anchors = (
{
name = bottom;
pos = (320,0);
},
{
name = top;
pos = (340,840);
}
);
layerId = m003;
shapes = (
{
closed = 1;
nodes = (
(240,0,l),
(160,40,l),
(160,760,l),
(280,760,l),
(360,760,l),
(520,720,l),
(560,600,l),
(520,440,l),
(360,400,l),
(160,400,l),
(160,360,l),
(360,360,l),
(560,400,l),
(640,600,l),
(560,760,l),
(360,800,l),
(40,800,l),
(120,760,l),
(120,40,l),
(40,0,l)
);
}
);
width = 640;
}
);
unicode = 80;
},
{
glyphname = Thorn;
lastChange = "2021-06-16 21:47:58 +0000";
layers = (
{
layerId = m003;
shapes = (
{
closed = 1;
nodes = (
(200,600,l),
(280,600,l),
(360,600,l),
(520,560,l),
(560,440,l),
(520,280,l),
(360,240,l),
(160,240,l),
(160,200,l),
(360,200,l),
(560,240,l),
(640,440,l),
(560,600,l),
(360,640,l),
(160,640,l),
(160,600,l)
);
},
{
ref = I;
}
);
width = 640;
},
{
layerId = master01;
shapes = (
{
closed = 1;
nodes = (
(280,600,l),
(320,600,l),
(400,600,l),
(480,560,l),
(520,440,l),
(480,280,l),
(360,240,l),
(240,240,l),
(240,200,l),
(400,160,l),
(600,240,l),
(680,440,l),
(600,600,l),
(400,640,l),
(240,640,l),
(240,600,l)
);
},
{
ref = I;
}
);
width = 694;
},
{
layerId = "EBA0A543-5703-488C-9449-531557917997";
shapes = (
{
closed = 1;
nodes = (
(360,560,l),
(400,560,l),
(440,560,l),
(520,520,l),
(560,400,l),
(520,280,l),
(440,240,l),
(320,240,l),
(320,200,l),
(480,160,l),
(680,240,l),
(760,440,l),
(640,600,l),
(520,640,l),
(320,640,l),
(320,560,l)
);
},
{
ref = I;
}
);
width = 760;
}
);
unicode = 222;
},
{
glyphname = Q;
lastChange = "2021-04-25 22:17:07 +0000";
layers = (
{
anchors = (
{
name = bottom;
pos = (440,0);
},
{
name = top;
pos = (440,840);
}
);
layerId = "EBA0A543-5703-488C-9449-531557917997";
shapes = (
{
closed = 1;
nodes = (
(760,-200,l),
(920,-120,l),
(920,-80,l),
(800,-80,l),
(640,-40,l),
(560,0,l),
(720,80,l),
(840,200,l),
(880,400,l),
(840,600,l),
(720,720,l),
(560,800,l),
(360,800,l),
(200,720,l),
(80,600,l),
(40,400,l),
(80,200,l),
(200,80,l),
(360,0,l),
(480,0,l),
(480,-40,l),
(520,-120,l),
(640,-200,l)
);
},
{
closed = 1;
nodes = (
(360,120,l),
(280,240,l),
(280,560,l),
(360,680,l),
(440,720,l),
(480,720,l),
(560,680,l),
(640,560,l),
(640,480,l),
(640,240,l),
(560,120,l),
(480,80,l),
(440,80,l)
);
}
);
userData = {
com.typemytype.robofont.layerData = {
regular = {
anchors = (
);
components = (
);
contours = (
{
points = (
{
segmentType = line;
smooth = 0;
x = 560;
y = 0;
},
{
segmentType = line;
smooth = 0;
x = 680;
y = -80;
},
{
segmentType = line;
smooth = 0;
x = 800;
y = -120;
},
{
segmentType = line;
smooth = 0;
x = 920;
y = -120;
},
{
segmentType = line;
smooth = 0;
x = 920;
y = -160;
},
{
segmentType = line;
smooth = 0;
x = 760;
y = -200;
},
{
segmentType = line;
smooth = 0;
x = 600;
y = -160;
},
{
segmentType = line;
smooth = 0;
x = 520;
y = -80;
},
{
segmentType = line;
smooth = 0;
x = 480;
y = 0;
},
{
segmentType = line;
smooth = 0;
x = 320;
y = 0;
},
{
segmentType = line;
smooth = 0;
x = 160;
y = 80;
},
{
segmentType = line;
smooth = 0;
x = 80;
y = 200;
},
{
segmentType = line;
smooth = 0;
x = 40;
y = 400;
},
{
segmentType = line;
smooth = 0;
x = 80;
y = 600;
},
{
segmentType = line;
smooth = 0;
x = 160;
y = 720;
},
{
segmentType = line;
smooth = 0;
x = 320;
y = 800;
},
{
segmentType = line;
smooth = 0;
x = 560;
y = 800;
},
{
segmentType = line;
smooth = 0;
x = 720;
y = 720;
},
{
segmentType = line;
smooth = 0;
x = 800;
y = 600;
},
{
segmentType = line;
smooth = 0;
x = 840;
y = 400;
},
{
segmentType = line;
smooth = 0;
x = 800;
y = 200;
},
{
segmentType = line;
smooth = 0;
x = 720;
y = 80;
}
);
},
{
points = (
{
segmentType = line;
smooth = 0;
x = 480;
y = 40;
},
{
segmentType = line;
smooth = 0;
x = 600;
y = 120;
},
{
segmentType = line;
smooth = 0;
x = 680;
y = 240;
},
{
segmentType = line;
smooth = 0;
x = 680;
y = 560;
},
{
segmentType = line;
smooth = 0;
x = 600;
y = 680;
},
{
segmentType = line;
smooth = 0;
x = 480;
y = 760;
},
{
segmentType = line;
smooth = 0;
x = 400;
y = 760;
},
{
segmentType = line;
smooth = 0;
x = 280;
y = 680;
},
{
segmentType = line;
smooth = 0;
x = 200;
y = 560;
},
{
segmentType = line;
smooth = 0;
x = 200;
y = 240;
},
{
segmentType = line;
smooth = 0;
x = 280;
y = 120;
},
{
segmentType = line;
smooth = 0;
x = 400;
y = 40;
}
);
}
);
lib = {
};
name = Q;
unicodes = (
);
width = 920;
};
};
com.typemytype.robofont.mark = (
0.001,
0.822,
0.283,
1
);
};
width = 920;
},
{
anchors = (
{
name = bottom;
pos = (400,0);
},
{
name = top;
pos = (440,840);
}
);
layerId = master01;
shapes = (
{
closed = 1;
nodes = (
(760,-200,l),
(920,-160,l),
(920,-120,l),
(800,-120,l),
(680,-80,l),
(560,0,l),
(720,80,l),
(800,200,l),
(840,400,l),
(800,600,l),
(720,720,l),
(560,800,l),
(320,800,l),
(160,720,l),
(80,600,l),
(40,400,l),
(80,200,l),
(160,80,l),
(320,0,l),
(480,0,l),
(489,-18,l),
(520,-80,l),
(600,-160,l)
);
},
{
closed = 1;
nodes = (
(280,120,l),
(200,240,l),
(200,560,l),
(280,680,l),
(400,760,l),
(480,760,l),
(600,680,l),
(680,560,l),
(680,480,l),
(680,240,l),
(600,120,l),
(480,40,l),
(400,40,l)
);
}
);
width = 880;
},
{
anchors = (
{
name = bottom;
pos = (400,0);
},
{
name = top;
pos = (440,840);
}
);
layerId = m003;
shapes = (
{
closed = 1;
nodes = (
(640,-120,l),
(810,-80,l),
(760,-40,l),
(640,-80,l),
(480,-40,l),
(520,0,l),
(720,80,l),
(800,240,l),
(840,400,l),
(800,560,l),
(720,720,l),
(560,800,l),
(320,800,l),
(160,720,l),
(80,560,l),
(40,400,l),
(80,240,l),
(160,80,l),
(320,0,l),
(480,0,l),
(460,-20,l),
(440,-40,l),
(470,-80,l)
);
},
{
closed = 1;
nodes = (
(200,120,l),
(120,320,l),
(120,480,l),
(200,680,l),
(320,760,l),
(560,760,l),
(680,680,l),
(760,480,l),
(760,400,l),
(760,320,l),
(680,120,l),
(520,40,l),
(320,40,l)
);
}
);
width = 880;
}
);
unicode = 81;
},
{
glyphname = R;
lastChange = "2021-06-26 14:03:21 +0000";
layers = (
{
anchors = (
{
name = bottom;
pos = (480,0);
},
{
name = top;
pos = (400,840);
}
);
layerId = "EBA0A543-5703-488C-9449-531557917997";
shapes = (
{
closed = 1;
nodes = (
(800,0,l),
(640,280,l),
(520,320,l),
(520,360,l),
(680,400,l),
(760,600,l),
(640,760,l),
(520,800,l),
(40,800,l),
(120,720,l),
(120,80,l),
(40,0,l),
(400,0,l),
(320,80,l),
(320,680,l),
(360,720,l),
(440,720,l),
(520,680,l),
(560,560,l),
(520,440,l),
(440,400,l),
(320,400,l),
(320,360,l),
(400,320,l),
(440,280,l),
(560,40,l),
(760,-40,l)
);
}
);
userData = {
com.typemytype.robofont.layerData = {
background = {
anchors = (
);
components = (
);
contours = (
{
points = (
{
segmentType = line;
smooth = 1;
x = 320;
y = 360;
},
{
segmentType = line;
smooth = 0;
x = 320;
y = 80;
},
{
segmentType = line;
smooth = 0;
x = 400;
y = 0;
},
{
segmentType = line;
smooth = 0;
x = 40;
y = 0;
},
{
segmentType = line;
smooth = 0;
x = 120;
y = 80;
},
{
segmentType = line;
smooth = 0;
x = 120;
y = 720;
},
{
segmentType = line;
smooth = 0;
x = 40;
y = 800;
},
{
segmentType = line;
smooth = 0;
x = 520;
y = 800;
},
{
segmentType = line;
smooth = 0;
x = 640;
y = 760;
},
{
segmentType = line;
smooth = 0;
x = 760;
y = 600;
},
{
segmentType = line;
smooth = 0;
x = 680;
y = 400;
},
{
segmentType = line;
smooth = 0;
x = 480;
y = 320;
}
);
},
{
points = (
{
segmentType = line;
smooth = 0;
x = 360;
y = 720;
},
{
segmentType = line;
smooth = 0;
x = 320;
y = 680;
},
{
segmentType = line;
smooth = 0;
x = 320;
y = 400;
},
{
segmentType = line;
smooth = 0;
x = 440;
y = 400;
},
{
segmentType = line;
smooth = 0;
x = 520;
y = 440;
},
{
segmentType = line;
smooth = 0;
x = 560;
y = 560;
},
{
segmentType = line;
smooth = 0;
x = 520;
y = 680;
},
{
segmentType = line;
smooth = 0;
x = 440;
y = 720;
}
);
}
);
lib = {
};
name = R;
unicodes = (
);
width = 800;
};
regular = {
anchors = (
);
components = (
);
contours = (
{
points = (
{
segmentType = line;
smooth = 0;
x = 80;
y = 800;
},
{
segmentType = line;
smooth = 0;
x = 440;
y = 800;
},
{
segmentType = line;
smooth = 0;
x = 640;
y = 760;
},
{
segmentType = line;
smooth = 0;
x = 720;
y = 600;
},
{
segmentType = line;
smooth = 0;
x = 640;
y = 440;
},
{
segmentType = line;
smooth = 0;
x = 400;
y = 400;
},
{
segmentType = line;
smooth = 0;
x = 520;
y = 360;
},
{
segmentType = line;
smooth = 0;
x = 760;
y = 0;
},
{
segmentType = line;
smooth = 0;
x = 720;
y = -40;
},
{
segmentType = line;
smooth = 0;
x = 560;
y = 80;
},
{
segmentType = line;
smooth = 0;
x = 400;
y = 320;
},
{
segmentType = line;
smooth = 0;
x = 360;
y = 360;
},
{
segmentType = line;
smooth = 0;
x = 280;
y = 400;
},
{
segmentType = line;
smooth = 0;
x = 280;
y = 80;
},
{
segmentType = line;
smooth = 0;
x = 360;
y = 0;
},
{
segmentType = line;
smooth = 0;
x = 80;
y = 0;
},
{
segmentType = line;
smooth = 0;
x = 160;
y = 80;
},
{
segmentType = line;
smooth = 0;
x = 160;
y = 720;
}
);
},
{
points = (
{
segmentType = line;
smooth = 0;
x = 320;
y = 760;
},
{
segmentType = line;
smooth = 0;
x = 280;
y = 720;
},
{
segmentType = line;
smooth = 0;
x = 280;
y = 440;
},
{
segmentType = line;
smooth = 0;
x = 440;
y = 440;
},
{
segmentType = line;
smooth = 0;
x = 520;
y = 480;
},
{
segmentType = line;
smooth = 0;
x = 560;
y = 600;
},
{
segmentType = line;
smooth = 0;
x = 520;
y = 720;
},
{
segmentType = line;
smooth = 0;
x = 440;
y = 760;
}
);
}
);
lib = {
};
name = R;
unicodes = (
);
width = 800;
};
};
com.typemytype.robofont.mark = (
0.001,
0.822,
0.283,
1
);
};
width = 800;
},
{
anchors = (
{
name = bottom;
pos = (440,0);
},
{
name = top;
pos = (360,840);
}
);
layerId = master01;
shapes = (
{
closed = 1;
nodes = (
(720,0,l),
(480,360,l),
(360,400,l),
(373,402,l),
(600,440,l),
(680,600,l),
(600,760,l),
(400,800,l),
(40,800,l),
(120,720,l),
(120,80,l),
(40,0,l),
(320,0,l),
(240,80,l),
(240,720,l),
(280,760,l),
(400,760,l),
(480,720,l),
(520,600,l),
(480,480,l),
(400,440,l),
(240,440,l),
(240,400,l),
(320,360,l),
(360,320,l),
(520,80,l),
(680,-40,l)
);
}
);
width = 730;
},
{
anchors = (
{
name = bottom;
pos = (380,0);
},
{
name = top;
pos = (320,840);
}
);
layerId = m003;
shapes = (
{
closed = 1;
nodes = (
(640,0,l),
(400,360,l),
(280,400,l),
(320,400,l),
(520,440,l),
(600,600,l),
(520,760,l),
(320,800,l),
(40,800,l),
(120,760,l),
(120,40,l),
(40,0,l),
(240,0,l),
(160,40,l),
(160,760,l),
(200,760,l),
(320,760,l),
(480,720,l),
(520,600,l),
(480,480,l),
(320,440,l),
(160,440,l),
(160,400,l),
(200,400,l),
(360,280,l),
(520,40,l),
(640,-40,l)
);
}
);
width = 680;
}
);
unicode = 82;
},
{
glyphname = Rtail;
lastChange = "2021-06-27 21:53:58 +0000";
layers = (
{
anchors = (
{
name = bottom;
pos = (380,0);
},
{
name = top;
pos = (320,840);
}
);
layerId = m003;
shapes = (
{
closed = 1;
nodes = (
(640,0,l),
(400,360,l),
(280,400,l),
(320,400,l),
(520,440,l),
(600,600,l),
(520,760,l),
(320,800,l),
(40,800,l),
(120,760,l),
(120,0,l),
(160,0,l),
(160,760,l),
(200,760,l),
(320,760,l),
(480,720,l),
(520,600,l),
(480,480,l),
(320,440,l),
(160,440,l),
(160,400,l),
(200,400,l),
(360,280,l),
(520,40,l),
(640,-40,l)
);
},
{
pos = (-40,0);
ref = _hookbottomright;
}
);
width = 680;
},
{
anchors = (
{
name = bottom;
pos = (440,0);
},
{
name = top;
pos = (360,840);
}
);
layerId = master01;
shapes = (
{
closed = 1;
nodes = (
(720,0,l),
(480,360,l),
(360,400,l),
(373,402,l),
(600,440,l),
(680,600,l),
(600,760,l),
(400,800,l),
(40,800,l),
(120,720,l),
(120,0,l),
(240,0,l),
(240,720,l),
(280,760,l),
(400,760,l),
(480,720,l),
(520,600,l),
(480,480,l),
(400,440,l),
(240,440,l),
(240,400,l),
(320,360,l),
(360,320,l),
(520,80,l),
(680,-40,l)
);
},
{
pos = (-40,0);
ref = _hookbottomright;
}
);
width = 730;
},
{
anchors = (
{
name = bottom;
pos = (480,0);
},
{
name = top;
pos = (400,840);
}
);
layerId = "EBA0A543-5703-488C-9449-531557917997";
shapes = (
{
closed = 1;
nodes = (
(800,0,l),
(640,280,l),
(520,320,l),
(520,360,l),
(680,400,l),
(760,600,l),
(640,760,l),
(520,800,l),
(40,800,l),
(120,720,l),
(120,0,l),
(320,0,l),
(320,680,l),
(360,720,l),
(440,720,l),
(520,680,l),
(560,560,l),
(520,440,l),
(440,400,l),
(320,400,l),
(320,360,l),
(400,320,l),
(440,280,l),
(560,40,l),
(760,-40,l)
);
},
{
pos = (-40,0);
ref = _hookbottomright;
}
);
width = 800;
}
);
unicode = 11364;
},
{
glyphname = S;
lastChange = "2021-06-26 14:55:08 +0000";
layers = (
{
anchors = (
{
name = bottom;
pos = (320,0);
},
{
name = top;
pos = (320,840);
}
);
layerId = "EBA0A543-5703-488C-9449-531557917997";
shapes = (
{
closed = 1;
nodes = (
(160,40,l),
(320,0,l),
(400,0,l),
(520,40,l),
(600,200,l),
(560,400,l),
(320,580,l),
(240,640,l),
(240,720,l),
(280,760,l),
(360,760,l),
(520,560,l),
(560,560,l),
(520,840,l),
(440,800,l),
(200,840,l),
(80,760,l),
(40,600,l),
(80,480,l),
(372,253,l),
(440,200,l),
(440,120,l),
(400,80,l),
(360,80,l),
(240,80,l),
(80,320,l),
(40,320,l),
(80,0,l)
);
}
);
userData = {
com.typemytype.robofont.layerData = {
regular = {
anchors = (
);
components = (
);
contours = (
{
points = (
{
segmentType = line;
smooth = 0;
x = 520;
y = 600;
},
{
segmentType = line;
smooth = 0;
x = 480;
y = 600;
},
{
segmentType = line;
smooth = 0;
x = 360;
y = 760;
},
{
segmentType = line;
smooth = 0;
x = 240;
y = 760;
},
{
segmentType = line;
smooth = 0;
x = 200;
y = 720;
},
{
segmentType = line;
smooth = 0;
x = 160;
y = 640;
},
{
segmentType = line;
smooth = 0;
x = 240;
y = 560;
},
{
segmentType = line;
smooth = 0;
x = 520;
y = 320;
},
{
segmentType = line;
smooth = 0;
x = 560;
y = 200;
},
{
segmentType = line;
smooth = 0;
x = 520;
y = 40;
},
{
segmentType = line;
smooth = 0;
x = 360;
y = -40;
},
{
segmentType = line;
smooth = 0;
x = 160;
y = 0;
},
{
segmentType = line;
smooth = 0;
x = 80;
y = -40;
},
{
segmentType = line;
smooth = 0;
x = 40;
y = 230;
},
{
segmentType = line;
smooth = 0;
x = 80;
y = 230;
},
{
segmentType = line;
smooth = 0;
x = 200;
y = 40;
},
{
segmentType = line;
smooth = 0;
x = 320;
y = 40;
},
{
segmentType = line;
smooth = 0;
x = 400;
y = 80;
},
{
segmentType = line;
smooth = 0;
x = 440;
y = 120;
},
{
segmentType = line;
smooth = 0;
x = 440;
y = 200;
},
{
segmentType = line;
smooth = 0;
x = 360;
y = 280;
},
{
segmentType = line;
smooth = 0;
x = 80;
y = 520;
},
{
segmentType = line;
smooth = 0;
x = 40;
y = 640;
},
{
segmentType = line;
smooth = 0;
x = 80;
y = 760;
},
{
segmentType = line;
smooth = 0;
x = 200;
y = 840;
},
{
segmentType = line;
smooth = 0;
x = 400;
y = 800;
},
{
segmentType = line;
smooth = 0;
x = 480;
y = 840;
}
);
}
);
lib = {
};
name = S;
unicodes = (
);
width = 640;
};
};
com.typemytype.robofont.mark = (
0.001,
0.822,
0.283,
1
);
};
width = 640;
},
{
anchors = (
{
name = bottom;
pos = (280,0);
},
{
name = top;
pos = (280,840);
}
);
layerId = master01;
shapes = (
{
closed = 1;
nodes = (
(160,0,l),
(280,-24,l),
(360,-40,l),
(520,40,l),
(560,200,l),
(520,320,l),
(240,560,l),
(160,640,l),
(200,720,l),
(240,760,l),
(360,760,l),
(480,600,l),
(520,600,l),
(480,840,l),
(400,800,l),
(200,840,l),
(80,760,l),
(40,640,l),
(80,520,l),
(360,280,l),
(440,200,l),
(440,120,l),
(400,80,l),
(320,40,l),
(200,40,l),
(80,240,l),
(40,240,l),
(80,-40,l)
);
}
);
width = 600;
},
{
anchors = (
{
name = bottom;
pos = (320,0);
},
{
name = top;
pos = (280,840);
}
);
layerId = m003;
shapes = (
{
closed = 1;
nodes = (
(160,0,l),
(280,-24,l),
(360,-40,l),
(520,40,l),
(560,200,l),
(520,320,l),
(240,520,l),
(120,600,l),
(120,720,l),
(200,800,l),
(400,760,l),
(480,600,l),
(520,600,l),
(440,840,l),
(360,800,l),
(200,840,l),
(80,760,l),
(40,640,l),
(80,520,l),
(360,320,l),
(480,200,l),
(480,120,l),
(440,40,l),
(360,0,l),
(160,40,l),
(80,240,l),
(40,240,l),
(120,-40,l)
);
}
);
width = 600;
}
);
unicode = 83;
},
{
glyphname = Saltillo;
lastChange = "2021-06-17 10:08:25 +0000";
layers = (
{
layerId = m003;
shapes = (
{
closed = 1;
nodes = (
(240,320,l),
(280,640,l),
(280,760,l),
(241,800,l),
(240,800,l),
(200,760,l),
(200,640,l),
(239,320,l)
);
}
);
width = 480;
},
{
layerId = master01;
shapes = (
{
closed = 1;
nodes = (
(280,320,l),
(320,640,l),
(320,760,l),
(280,800,l),
(240,800,l),
(200,760,l),
(200,640,l),
(240,320,l)
);
}
);
width = 520;
},
{
layerId = "EBA0A543-5703-488C-9449-531557917997";
shapes = (
{
closed = 1;
nodes = (
(280,320,l),
(320,640,l),
(320,760,l),
(280,840,l),
(200,840,l),
(160,760,l),
(160,640,l),
(200,320,l)
);
}
);
width = 480;
}
);
unicode = 42891;
},
{
glyphname = Germandbls;
lastChange = "2021-06-26 13:10:09 +0000";
layers = (
{
layerId = m003;
shapes = (
{
closed = 1;
nodes = (
(160,0,l),
(160,40,l),
(160,720,l),
(200,760,l),
(360,800,l),
(480,760,l),
(560,720,l),
(360,480,l),
(320,440,l),
(320,400,l),
(360,400,l),
(520,320,l),
(600,200,l),
(560,40,l),
(480,0,l),
(280,80,l),
(280,40,l),
(480,-40,l),
(640,40,l),
(680,200,l),
(600,360,l),
(360,440,l),
(440,480,l),
(640,720,l),
(520,800,l),
(360,840,l),
(200,800,l),
(120,720,l),
(120,40,l),
(40,0,l)
);
}
);
width = 720;
},
{
layerId = master01;
shapes = (
{
closed = 1;
nodes = (
(240,0,l),
(240,80,l),
(240,720,l),
(280,760,l),
(440,800,l),
(520,760,l),
(560,720,l),
(400,480,l),
(360,440,l),
(360,400,l),
(400,400,l),
(560,280,l),
(600,200,l),
(560,80,l),
(480,40,l),
(360,79,l),
(320,40,l),
(520,-40,l),
(680,40,l),
(760,200,l),
(720,320,l),
(440,440,l),
(520,480,l),
(720,720,l),
(600,800,l),
(440,840,l),
(240,800,l),
(120,680,l),
(120,80,l),
(40,0,l)
);
}
);
width = 800;
},
{
layerId = "EBA0A543-5703-488C-9449-531557917997";
shapes = (
{
closed = 1;
nodes = (
(280,0,l),
(280,80,l),
(280,640,l),
(350,720,l),
(440,760,l),
(520,720,l),
(560,680,l),
(400,480,l),
(360,440,l),
(360,400,l),
(480,400,l),
(560,360,l),
(640,200,l),
(600,80,l),
(520,80,l),
(360,120,l),
(360,40,l),
(600,-40,l),
(760,0,l),
(840,200,l),
(800,360,l),
(480,440,l),
(600,480,l),
(800,680,l),
(680,800,l),
(440,840,l),
(160,800,l),
(80,680,l),
(80,80,l),
(0,0,l)
);
}
);
width = 880;
}
);
unicode = 7838;
},
{
glyphname = Schwa;
lastChange = "2021-06-24 12:21:12 +0000";
layers = (
{
anchors = (
{
name = bottom;
pos = (300,0);
},
{
name = top;
pos = (300,840);
}
);
layerId = m003;
shapes = (
{
closed = 1;
nodes = (
(200,800,l),
(120,760,l),
(40,680,l),
(80,640,l),
(160,720,l),
(280,760,l),
(440,720,l),
(520,480,l),
(520,320,l),
(480,120,l),
(320,40,l),
(120,120,l),
(120,360,l),
(520,399,l),
(520,400,l),
(80,440,l),
(40,360,l),
(80,80,l),
(280,0,l),
(360,0,l),
(520,80,l),
(600,280,l),
(600,520,l),
(520,720,l),
(400,800,l)
);
}
);
width = 640;
},
{
anchors = (
{
name = bottom;
pos = (340,0);
},
{
name = top;
pos = (340,840);
}
);
layerId = master01;
shapes = (
{
closed = 1;
nodes = (
(240,800,l),
(160,760,l),
(80,680,l),
(120,640,l),
(200,720,l),
(320,760,l),
(480,680,l),
(520,400,l),
(520,360,l),
(480,120,l),
(360,40,l),
(200,120,l),
(160,360,l),
(520,360,l),
(520,400,l),
(80,440,l),
(40,320,l),
(80,80,l),
(240,0,l),
(440,0,l),
(560,80,l),
(640,280,l),
(640,520,l),
(560,720,l),
(440,800,l)
);
}
);
width = 680;
},
{
anchors = (
{
name = bottom;
pos = (420,0);
},
{
name = top;
pos = (420,800);
}
);
layerId = "EBA0A543-5703-488C-9449-531557917997";
shapes = (
{
closed = 1;
nodes = (
(320,800,l),
(160,720,l),
(80,600,l),
(120,560,l),
(200,640,l),
(360,720,l),
(520,680,l),
(600,400,l),
(600,360,l),
(520,120,l),
(440,80,l),
(280,120,l),
(240,320,l),
(600,360,l),
(600,400,l),
(120,440,l),
(40,320,l),
(80,80,l),
(280,0,l),
(520,0,l),
(680,80,l),
(800,280,l),
(800,520,l),
(680,720,l),
(520,800,l)
);
}
);
width = 840;
}
);
metricLeft = "=O";
metricRight = "=O";
unicode = 399;
},
{
glyphname = T;
lastChange = "2021-06-26 22:36:33 +0000";
layers = (
{
anchors = (
{
name = bottom;
pos = (380,0);
},
{
name = center;
pos = (380,420);
},
{
name = top;
pos = (380,840);
}
);
layerId = "EBA0A543-5703-488C-9449-531557917997";
shapes = (
{
closed = 1;
nodes = (
(560,0,l),
(480,80,l),
(480,720,l),
(640,680,l),
(720,560,l),
(760,560,l),
(720,840,l),
(560,800,l),
(200,800,l),
(40,840,l),
(0,560,l),
(40,560,l),
(120,680,l),
(280,720,l),
(280,80,l),
(200,0,l)
);
}
);
userData = {
com.typemytype.robofont.layerData = {
regular = {
anchors = (
);
components = (
);
contours = (
{
points = (
{
segmentType = line;
smooth = 0;
x = 680;
y = 600;
},
{
segmentType = line;
smooth = 0;
x = 640;
y = 600;
},
{
segmentType = line;
smooth = 0;
x = 560;
y = 720;
},
{
segmentType = line;
smooth = 0;
x = 400;
y = 760;
},
{
segmentType = line;
smooth = 0;
x = 400;
y = 80;
},
{
segmentType = line;
smooth = 0;
x = 480;
y = 0;
},
{
segmentType = line;
smooth = 0;
x = 200;
y = 0;
},
{
segmentType = line;
smooth = 0;
x = 280;
y = 80;
},
{
segmentType = line;
smooth = 0;
x = 280;
y = 760;
},
{
segmentType = line;
smooth = 0;
x = 120;
y = 720;
},
{
segmentType = line;
smooth = 0;
x = 40;
y = 600;
},
{
segmentType = line;
smooth = 0;
x = 0;
y = 600;
},
{
segmentType = line;
smooth = 0;
x = 40;
y = 840;
},
{
segmentType = line;
smooth = 0;
x = 200;
y = 800;
},
{
segmentType = line;
smooth = 0;
x = 480;
y = 800;
},
{
segmentType = line;
smooth = 0;
x = 640;
y = 840;
}
);
}
);
lib = {
};
name = T;
unicodes = (
);
width = 760;
};
};
com.typemytype.robofont.mark = (
0.001,
0.822,
0.283,
1
);
};
width = 760;
},
{
anchors = (
{
name = bottom;
pos = (340,0);
},
{
name = center;
pos = (340,420);
},
{
name = top;
pos = (340,840);
}
);
layerId = master01;
shapes = (
{
closed = 1;
nodes = (
(480,0,l),
(400,80,l),
(400,760,l),
(560,720,l),
(640,600,l),
(680,600,l),
(640,840,l),
(480,800,l),
(200,800,l),
(40,840,l),
(0,600,l),
(40,600,l),
(120,720,l),
(280,760,l),
(280,80,l),
(200,0,l)
);
}
);
width = 680;
},
{
anchors = (
{
name = bottom;
pos = (340,0);
},
{
name = center;
pos = (340,420);
},
{
name = top;
pos = (340,840);
}
);
layerId = m003;
shapes = (
{
closed = 1;
nodes = (
(440,0,l),
(360,40,l),
(360,760,l),
(560,760,l),
(640,600,l),
(680,600,l),
(600,840,l),
(440,800,l),
(240,800,l),
(80,840,l),
(0,600,l),
(40,600,l),
(120,760,l),
(320,760,l),
(320,40,l),
(240,0,l)
);
}
);
width = 680;
}
);
unicode = 84;
},
{
glyphname = U;
lastChange = "2021-06-24 12:34:50 +0000";
layers = (
{
anchors = (
{
name = bottom;
pos = (450,-30);
},
{
name = center;
pos = (460,400);
},
{
name = ogonek;
pos = (520,0);
},
{
name = right;
pos = (450,0);
},
{
name = top;
pos = (500,840);
},
{
name = topright;
pos = (840,800);
}
);
layerId = "EBA0A543-5703-488C-9449-531557917997";
shapes = (
{
closed = 1;
nodes = (
(560,0,l),
(680,40,l),
(760,120,l),
(800,240,l),
(800,720,l),
(880,800,l),
(600,800,l),
(680,720,l),
(680,200,l),
(640,120,l),
(600,100,l),
(560,80,l),
(480,80,l),
(400,120,l),
(360,160,l),
(320,280,l),
(320,720,l),
(400,800,l),
(40,800,l),
(120,720,l),
(120,240,l),
(160,120,l),
(240,40,l),
(400,0,l)
);
}
);
userData = {
com.typemytype.robofont.layerData = {
regular = {
anchors = (
);
components = (
);
contours = (
{
points = (
{
segmentType = line;
smooth = 0;
x = 720;
y = 240;
},
{
segmentType = line;
smooth = 0;
x = 680;
y = 120;
},
{
segmentType = line;
smooth = 0;
x = 600;
y = 40;
},
{
segmentType = line;
smooth = 0;
x = 520;
y = 0;
},
{
segmentType = line;
smooth = 0;
x = 360;
y = 0;
},
{
segmentType = line;
smooth = 0;
x = 240;
y = 40;
},
{
segmentType = line;
smooth = 0;
x = 160;
y = 120;
},
{
segmentType = line;
smooth = 0;
x = 120;
y = 240;
},
{
segmentType = line;
smooth = 0;
x = 120;
y = 720;
},
{
segmentType = line;
smooth = 0;
x = 40;
y = 800;
},
{
segmentType = line;
smooth = 0;
x = 320;
y = 800;
},
{
segmentType = line;
smooth = 0;
x = 240;
y = 720;
},
{
segmentType = line;
smooth = 0;
x = 240;
y = 280;
},
{
segmentType = line;
smooth = 0;
x = 280;
y = 120;
},
{
segmentType = line;
smooth = 0;
x = 400;
y = 40;
},
{
segmentType = line;
smooth = 0;
x = 480;
y = 40;
},
{
segmentType = line;
smooth = 0;
x = 560;
y = 80;
},
{
segmentType = line;
smooth = 0;
x = 600;
y = 120;
},
{
segmentType = line;
smooth = 0;
x = 640;
y = 240;
},
{
segmentType = line;
smooth = 0;
x = 640;
y = 720;
},
{
segmentType = line;
smooth = 0;
x = 560;
y = 800;
},
{
segmentType = line;
smooth = 0;
x = 800;
y = 800;
},
{
segmentType = line;
smooth = 0;
x = 720;
y = 720;
}
);
}
);
lib = {
};
name = U;
unicodes = (
);
width = 900;
};
};
com.typemytype.robofont.mark = (
0.001,
0.822,
0.283,
1
);
};
width = 900;
},
{
anchors = (
{
name = bottom;
pos = (440,0);
},
{
name = center;
pos = (440,420);
},
{
name = ogonek;
pos = (440,0);
},
{
name = right;
pos = (400,0);
},
{
name = top;
pos = (440,840);
},
{
name = topright;
pos = (760,800);
}
);
layerId = master01;
shapes = (
{
closed = 1;
nodes = (
(520,0,l),
(600,40,l),
(680,120,l),
(720,240,l),
(720,720,l),
(800,800,l),
(560,800,l),
(640,720,l),
(640,240,l),
(600,120,l),
(560,80,l),
(480,40,l),
(400,40,l),
(340,80,l),
(280,120,l),
(240,280,l),
(240,720,l),
(320,800,l),
(40,800,l),
(120,720,l),
(120,240,l),
(160,120,l),
(240,40,l),
(360,0,l)
);
}
);
width = 840;
},
{
anchors = (
{
name = bottom;
pos = (400,-40);
},
{
name = center;
pos = (440,420);
},
{
name = ogonek;
pos = (440,0);
},
{
name = right;
pos = (400,0);
},
{
name = top;
pos = (440,840);
},
{
name = topright;
pos = (720,800);
}
);
layerId = m003;
shapes = (
{
closed = 1;
nodes = (
(520,0,l),
(600,40,l),
(680,120,l),
(720,200,l),
(720,760,l),
(800,800,l),
(600,800,l),
(680,760,l),
(680,240,l),
(640,160,l),
(560,80,l),
(480,40,l),
(400,40,l),
(300,80,l),
(240,120,l),
(200,240,l),
(200,760,l),
(280,800,l),
(40,800,l),
(120,760,l),
(120,200,l),
(160,120,l),
(240,40,l),
(360,0,l)
);
}
);
width = 840;
}
);
unicode = 85;
},
{
glyphname = V;
lastChange = "2021-06-30 18:08:59 +0000";
layers = (
{
anchors = (
{
name = bottom;
pos = (380,0);
},
{
name = top;
pos = (440,840);
}
);
layerId = "EBA0A543-5703-488C-9449-531557917997";
shapes = (
{
closed = 1;
nodes = (
(440,0,l),
(760,720,l),
(840,800,l),
(520,800,l),
(600,720,l),
(440,160,l),
(440,240,l),
(280,720,l),
(360,800,l),
(-40,800,l),
(40,720,l),
(320,-40,l)
);
}
);
userData = {
com.typemytype.robofont.layerData = {
regular = {
anchors = (
);
components = (
);
contours = (
{
points = (
{
segmentType = line;
smooth = 0;
x = 540;
y = 720;
},
{
segmentType = line;
smooth = 0;
x = 460;
y = 800;
},
{
segmentType = line;
smooth = 0;
x = 700;
y = 800;
},
{
segmentType = line;
smooth = 0;
x = 620;
y = 720;
},
{
segmentType = line;
smooth = 0;
x = 340;
y = 0;
},
{
segmentType = line;
smooth = 0;
x = 300;
y = -40;
},
{
segmentType = line;
smooth = 0;
x = 20;
y = 720;
},
{
segmentType = line;
smooth = 0;
x = -60;
y = 800;
},
{
segmentType = line;
smooth = 0;
x = 220;
y = 800;
},
{
segmentType = line;
smooth = 0;
x = 140;
y = 720;
},
{
segmentType = line;
smooth = 0;
x = 340;
y = 200;
}
);
}
);
lib = {
};
name = V;
unicodes = (
);
width = 760;
};
};
com.typemytype.robofont.mark = (
0.001,
0.822,
0.283,
1
);
};
width = 760;
},
{
anchors = (
{
name = bottom;
pos = (380,0);
},
{
name = top;
pos = (400,840);
}
);
layerId = master01;
shapes = (
{
closed = 1;
nodes = (
(400,0,l),
(680,720,l),
(760,800,l),
(520,800,l),
(600,720,l),
(400,200,l),
(385,240,l),
(200,720,l),
(280,800,l),
(0,800,l),
(80,720,l),
(360,-40,l)
);
}
);
width = 760;
},
{
anchors = (
{
name = bottom;
pos = (400,0);
},
{
name = top;
pos = (400,840);
}
);
layerId = m003;
shapes = (
{
closed = 1;
nodes = (
(440,40,l),
(680,760,l),
(760,800,l),
(560,800,l),
(640,760,l),
(400,40,l),
(400,80,l),
(160,760,l),
(240,800,l),
(0,800,l),
(80,760,l),
(360,-40,l)
);
}
);
width = 760;
}
);
unicode = 86;
},
{
glyphname = W;
lastChange = "2021-06-23 23:08:24 +0000";
layers = (
{
anchors = (
{
name = top;
pos = (600,840);
}
);
layerId = "EBA0A543-5703-488C-9449-531557917997";
shapes = (
{
closed = 1;
nodes = (
(400,0,l),
(520,520,l),
(680,-40,l),
(800,0,l),
(1080,720,l),
(1160,800,l),
(840,800,l),
(920,720,l),
(800,200,l),
(800,280,l),
(680,760,l),
(480,720,l),
(400,200,l),
(400,280,l),
(280,720,ls),
(360,800,l),
(-40,800,l),
(40,720,l),
(280,-40,l)
);
}
);
userData = {
com.typemytype.robofont.layerData = {
regular = {
anchors = (
);
components = (
);
contours = (
{
points = (
{
segmentType = line;
smooth = 0;
x = 530;
y = 760;
},
{
segmentType = line;
smooth = 0;
x = 650;
y = 200;
},
{
segmentType = line;
smooth = 0;
x = 810;
y = 720;
},
{
segmentType = line;
smooth = 0;
x = 730;
y = 800;
},
{
segmentType = line;
smooth = 0;
x = 970;
y = 800;
},
{
segmentType = line;
smooth = 0;
x = 890;
y = 720;
},
{
segmentType = line;
smooth = 0;
x = 650;
y = 0;
},
{
segmentType = line;
smooth = 0;
x = 610;
y = -40;
},
{
segmentType = line;
smooth = 0;
x = 450;
y = 520;
},
{
segmentType = line;
smooth = 0;
x = 290;
y = 0;
},
{
segmentType = line;
smooth = 0;
x = 250;
y = -40;
},
{
segmentType = line;
smooth = 0;
x = 10;
y = 720;
},
{
segmentType = line;
smooth = 0;
x = -70;
y = 800;
},
{
segmentType = line;
smooth = 0;
x = 210;
y = 800;
},
{
segmentType = line;
smooth = 0;
x = 130;
y = 720;
},
{
segmentType = line;
smooth = 0;
x = 290;
y = 200;
},
{
segmentType = line;
smooth = 0;
x = 410;
y = 720;
}
);
}
);
lib = {
};
name = W;
unicodes = (
);
width = 1120;
};
};
com.typemytype.robofont.mark = (
0.001,
0.822,
0.283,
1
);
};
width = 1120;
},
{
anchors = (
{
name = top;
pos = (520,840);
}
);
layerId = master01;
shapes = (
{
closed = 1;
nodes = (
(360,0,l),
(520,520,l),
(680,-40,l),
(720,0,l),
(960,720,l),
(1040,800,l),
(800,800,l),
(880,720,l),
(720,200,l),
(711,240,l),
(600,760,l),
(480,720,l),
(360,200,l),
(348,240,l),
(200,720,l),
(280,800,l),
(0,800,l),
(80,720,l),
(320,-40,l)
);
}
);
width = 1040;
},
{
anchors = (
{
name = top;
pos = (520,840);
}
);
layerId = m003;
shapes = (
{
closed = 1;
nodes = (
(360,40,l),
(520,720,l),
(680,-40,l),
(760,40,l),
(960,760,l),
(1040,800,l),
(840,800,l),
(920,760,l),
(720,40,l),
(720,80,l),
(600,760,l),
(480,720,l),
(320,40,l),
(320,80,l),
(160,760,l),
(240,800,l),
(0,800,l),
(80,760,l),
(280,-40,l)
);
}
);
width = 1040;
}
);
unicode = 87;
},
{
glyphname = X;
lastChange = "2021-04-30 15:48:43 +0000";
layers = (
{
layerId = "EBA0A543-5703-488C-9449-531557917997";
shapes = (
{
closed = 1;
nodes = (
(320,0,l),
(240,80,l),
(320,280,l),
(360,280,l),
(480,80,l),
(400,0,l),
(800,0,l),
(742,80,l),
(480,440,l),
(720,720,l),
(800,800,l),
(480,800,l),
(560,720,l),
(480,520,l),
(440,520,l),
(320,720,l),
(400,800,l),
(0,800,l),
(58,720,l),
(320,360,l),
(80,80,l),
(0,0,l)
);
}
);
userData = {
com.typemytype.robofont.layerData = {
background = {
anchors = (
);
components = (
);
contours = (
{
points = (
{
segmentType = line;
smooth = 0;
x = 560;
y = 720;
},
{
segmentType = line;
smooth = 0;
x = 480;
y = 800;
},
{
segmentType = line;
smooth = 0;
x = 780;
y = 800;
},
{
segmentType = line;
smooth = 0;
x = 700;
y = 720;
},
{
segmentType = line;
smooth = 0;
x = 480;
y = 400;
},
{
segmentType = line;
smooth = 0;
x = 700;
y = 80;
},
{
segmentType = line;
smooth = 0;
x = 780;
y = 0;
},
{
segmentType = line;
smooth = 0;
x = 440;
y = 0;
},
{
segmentType = line;
smooth = 0;
x = 520;
y = 80;
},
{
segmentType = line;
smooth = 0;
x = 380;
y = 360;
},
{
segmentType = line;
smooth = 0;
x = 360;
y = 360;
},
{
segmentType = line;
smooth = 0;
x = 200;
y = 80;
},
{
segmentType = line;
smooth = 0;
x = 280;
y = 0;
},
{
segmentType = line;
smooth = 0;
x = -20;
y = 0;
},
{
segmentType = line;
smooth = 0;
x = 60;
y = 80;
},
{
segmentType = line;
smooth = 0;
x = 280;
y = 400;
},
{
segmentType = line;
smooth = 0;
x = 60;
y = 720;
},
{
segmentType = line;
smooth = 0;
x = -20;
y = 800;
},
{
segmentType = line;
smooth = 0;
x = 320;
y = 800;
},
{
segmentType = line;
smooth = 0;
x = 240;
y = 720;
},
{
segmentType = line;
smooth = 0;
x = 380;
y = 440;
},
{
segmentType = line;
smooth = 0;
x = 400;
y = 440;
}
);
}
);
lib = {
};
name = X;
unicodes = (
);
width = 800;
};
regular = {
anchors = (
);
components = (
);
contours = (
{
points = (
{
segmentType = line;
smooth = 0;
x = 540;
y = 720;
},
{
segmentType = line;
smooth = 0;
x = 460;
y = 800;
},
{
segmentType = line;
smooth = 0;
x = 740;
y = 800;
},
{
segmentType = line;
smooth = 0;
x = 660;
y = 720;
},
{
segmentType = line;
smooth = 0;
x = 420;
y = 400;
},
{
segmentType = line;
smooth = 0;
x = 660;
y = 80;
},
{
segmentType = line;
smooth = 0;
x = 740;
y = 0;
},
{
segmentType = line;
smooth = 0;
x = 420;
y = 0;
},
{
segmentType = line;
smooth = 0;
x = 500;
y = 80;
},
{
segmentType = line;
smooth = 0;
x = 380;
y = 360;
},
{
segmentType = line;
smooth = 0;
x = 340;
y = 360;
},
{
segmentType = line;
smooth = 0;
x = 180;
y = 80;
},
{
segmentType = line;
smooth = 0;
x = 260;
y = 0;
},
{
segmentType = line;
smooth = 0;
x = -20;
y = 0;
},
{
segmentType = line;
smooth = 0;
x = 60;
y = 80;
},
{
segmentType = line;
smooth = 0;
x = 300;
y = 400;
},
{
segmentType = line;
smooth = 0;
x = 60;
y = 720;
},
{
segmentType = line;
smooth = 0;
x = -20;
y = 800;
},
{
segmentType = line;
smooth = 0;
x = 300;
y = 800;
},
{
segmentType = line;
smooth = 0;
x = 220;
y = 720;
},
{
segmentType = line;
smooth = 0;
x = 340;
y = 440;
},
{
segmentType = line;
smooth = 0;
x = 380;
y = 440;
}
);
}
);
lib = {
};
name = X;
unicodes = (
);
width = 800;
};
};
com.typemytype.robofont.mark = (
0.001,
0.822,
0.283,
1
);
};
width = 800;
},
{
layerId = master01;
shapes = (
{
closed = 1;
nodes = (
(320,0,l),
(240,80,l),
(400,360,l),
(440,360,l),
(560,80,l),
(480,0,l),
(800,0,l),
(720,80,l),
(480,400,l),
(720,720,l),
(800,800,l),
(520,800,l),
(600,720,l),
(440,440,l),
(400,440,l),
(280,720,l),
(360,800,l),
(40,800,l),
(120,720,l),
(360,400,l),
(120,80,l),
(40,0,l)
);
}
);
width = 840;
},
{
layerId = m003;
shapes = (
{
closed = 1;
nodes = (
(280,0,l),
(200,40,l),
(400,400,l),
(440,400,l),
(640,40,l),
(560,0,l),
(800,0,l),
(720,40,l),
(480,400,l),
(720,760,l),
(800,800,l),
(560,800,l),
(640,760,l),
(440,400,l),
(400,400,l),
(200,760,l),
(280,800,l),
(40,800,l),
(120,760,l),
(360,400,l),
(120,40,l),
(40,0,l)
);
}
);
width = 840;
}
);
unicode = 88;
},
{
glyphname = Y;
lastChange = "2021-06-23 23:10:12 +0000";
layers = (
{
anchors = (
{
name = bottom;
pos = (380,0);
},
{
name = top;
pos = (440,840);
}
);
layerId = "EBA0A543-5703-488C-9449-531557917997";
shapes = (
{
closed = 1;
nodes = (
(560,0,l),
(480,80,l),
(480,360,l),
(720,720,l),
(800,800,l),
(520,800,l),
(600,720,l),
(441,402,l),
(440,400,l),
(440,440,l),
(280,720,l),
(360,800,l),
(-40,800,l),
(40,720,l),
(280,360,l),
(280,80,l),
(200,0,l)
);
}
);
userData = {
com.typemytype.robofont.layerData = {
regular = {
anchors = (
);
components = (
);
contours = (
{
points = (
{
segmentType = line;
smooth = 0;
x = 340;
y = 440;
},
{
segmentType = line;
smooth = 0;
x = 380;
y = 440;
},
{
segmentType = line;
smooth = 0;
x = 500;
y = 720;
},
{
segmentType = line;
smooth = 0;
x = 420;
y = 800;
},
{
segmentType = line;
smooth = 0;
x = 660;
y = 800;
},
{
segmentType = line;
smooth = 0;
x = 580;
y = 720;
},
{
segmentType = line;
smooth = 0;
x = 380;
y = 360;
},
{
segmentType = line;
smooth = 0;
x = 380;
y = 80;
},
{
segmentType = line;
smooth = 0;
x = 460;
y = 0;
},
{
segmentType = line;
smooth = 0;
x = 180;
y = 0;
},
{
segmentType = line;
smooth = 0;
x = 260;
y = 80;
},
{
segmentType = line;
smooth = 0;
x = 260;
y = 360;
},
{
segmentType = line;
smooth = 0;
x = 60;
y = 720;
},
{
segmentType = line;
smooth = 0;
x = -20;
y = 800;
},
{
segmentType = line;
smooth = 0;
x = 260;
y = 800;
},
{
segmentType = line;
smooth = 0;
x = 180;
y = 720;
}
);
}
);
lib = {
};
name = Y;
unicodes = (
);
width = 760;
};
};
com.typemytype.robofont.mark = (
0.001,
0.822,
0.283,
1
);
};
width = 760;
},
{
anchors = (
{
name = bottom;
pos = (340,0);
},
{
name = top;
pos = (360,840);
}
);
layerId = master01;
shapes = (
{
closed = 1;
nodes = (
(480,0,l),
(400,80,l),
(400,360,l),
(600,720,l),
(680,800,l),
(440,800,l),
(520,720,l),
(400,440,l),
(360,440,l),
(337,480,l),
(200,720,l),
(280,800,l),
(0,800,l),
(80,720,l),
(280,360,l),
(280,80,l),
(200,0,l)
);
}
);
width = 680;
},
{
anchors = (
{
name = bottom;
pos = (300,0);
},
{
name = top;
pos = (320,840);
}
);
layerId = m003;
shapes = (
{
closed = 1;
nodes = (
(400,0,l),
(320,40,l),
(320,360,l),
(520,760,l),
(600,800,l),
(400,800,l),
(480,760,l),
(320,400,l),
(320,420,l),
(320,440,l),
(160,760,l),
(240,800,l),
(0,800,l),
(80,760,l),
(280,360,l),
(280,40,l),
(200,0,l)
);
}
);
width = 600;
}
);
unicode = 89;
},
{
glyphname = Yhook;
lastChange = "2021-06-30 22:22:40 +0000";
layers = (
{
anchors = (
{
name = bottom;
pos = (300,0);
},
{
name = top;
pos = (320,840);
}
);
layerId = m003;
shapes = (
{
closed = 1;
nodes = (
(400,0,l),
(320,40,l),
(320,360,l),
(520,760,l),
(680,760,l),
(640,840,l),
(480,800,l),
(440,720,l),
(321,400,l),
(320,400,l),
(320,440,l),
(160,760,l),
(240,800,l),
(0,800,l),
(80,760,l),
(280,360,l),
(280,40,l),
(200,0,l)
);
}
);
width = 600;
},
{
anchors = (
{
name = bottom;
pos = (340,0);
},
{
name = top;
pos = (360,840);
}
);
layerId = master01;
shapes = (
{
closed = 1;
nodes = (
(480,0,l),
(400,80,l),
(400,360,l),
(600,720,l),
(760,720,l),
(720,840,l),
(560,800,l),
(520,720,l),
(400,440,l),
(360,440,l),
(337,480,l),
(200,720,l),
(280,800,l),
(0,800,l),
(80,720,l),
(280,360,l),
(280,80,l),
(200,0,l)
);
}
);
width = 680;
},
{
anchors = (
{
name = bottom;
pos = (380,0);
},
{
name = top;
pos = (440,840);
}
);
layerId = "EBA0A543-5703-488C-9449-531557917997";
shapes = (
{
closed = 1;
nodes = (
(560,0,l),
(480,80,l),
(480,360,l),
(720,680,l),
(840,680,l),
(800,840,l),
(670,800,l),
(600,720,l),
(441,400,l),
(440,400,l),
(440,440,l),
(280,720,l),
(360,800,l),
(-40,800,l),
(40,720,l),
(280,360,l),
(280,80,l),
(200,0,l)
);
}
);
width = 760;
}
);
unicode = 435;
},
{
glyphname = Z;
lastChange = "2021-06-30 13:20:55 +0000";
layers = (
{
anchors = (
{
name = bottom;
pos = (360,0);
},
{
name = top;
pos = (440,840);
}
);
layerId = "EBA0A543-5703-488C-9449-531557917997";
shapes = (
{
closed = 1;
nodes = (
(720,280,l),
(680,280,l),
(560,80,l),
(320,80,l),
(720,760,l),
(720,800,l),
(200,800,l),
(120,840,l),
(80,560,l),
(120,560,l),
(240,720,l),
(440,720,l),
(40,40,l),
(40,0,l),
(600,0,l),
(680,-40,l)
);
}
);
userData = {
com.typemytype.robofont.layerData = {
regular = {
anchors = (
);
components = (
);
contours = (
{
points = (
{
segmentType = line;
smooth = 0;
x = 160;
y = 80;
},
{
segmentType = line;
smooth = 0;
x = 520;
y = 40;
},
{
segmentType = line;
smooth = 0;
x = 640;
y = 240;
},
{
segmentType = line;
smooth = 0;
x = 680;
y = 240;
},
{
segmentType = line;
smooth = 0;
x = 640;
y = -40;
},
{
segmentType = line;
smooth = 0;
x = 560;
y = 0;
},
{
segmentType = line;
smooth = 0;
x = 40;
y = 0;
},
{
segmentType = line;
smooth = 0;
x = 40;
y = 40;
},
{
segmentType = line;
smooth = 0;
x = 520;
y = 760;
},
{
segmentType = line;
smooth = 0;
x = 240;
y = 760;
},
{
segmentType = line;
smooth = 0;
x = 120;
y = 600;
},
{
segmentType = line;
smooth = 0;
x = 80;
y = 600;
},
{
segmentType = line;
smooth = 0;
x = 120;
y = 840;
},
{
segmentType = line;
smooth = 0;
x = 280;
y = 800;
},
{
segmentType = line;
smooth = 0;
x = 720;
y = 800;
}
);
}
);
lib = {
};
name = Z;
unicodes = (
);
width = 760;
};
};
com.typemytype.robofont.mark = (
0.001,
0.822,
0.283,
1
);
};
width = 760;
},
{
anchors = (
{
name = bottom;
pos = (360,0);
},
{
name = top;
pos = (420,840);
}
);
layerId = master01;
shapes = (
{
closed = 1;
nodes = (
(680,240,l),
(640,240,l),
(520,40,l),
(160,80,l),
(689,760,l),
(720,800,l),
(280,800,l),
(120,840,l),
(80,600,l),
(120,600,l),
(240,760,l),
(520,760,l),
(40,40,l),
(40,0,l),
(560,0,l),
(640,-40,l)
);
}
);
width = 760;
},
{
anchors = (
{
name = bottom;
pos = (320,0);
},
{
name = top;
pos = (399,840);
}
);
layerId = m003;
shapes = (
{
closed = 1;
nodes = (
(680,240,l),
(640,240,l),
(560,40,l),
(120,40,l),
(640,760,l),
(680,800,l),
(280,800,l),
(120,840,l),
(40,600,l),
(80,600,l),
(160,760,l),
(560,760,l),
(40,40,l),
(40,0,l),
(440,0,l),
(600,-40,l)
);
}
);
width = 720;
}
);
unicode = 90;
},
{
glyphname = T_h.dlig;
lastChange = "2021-06-29 14:01:30 +0000";
layers = (
{
anchors = (
{
name = caret_1;
pos = (580,0);
}
);
layerId = "EBA0A543-5703-488C-9449-531557917997";
shapes = (
{
closed = 1;
nodes = (
(560,0,l),
(480,80,l),
(480,720,l),
(680,720,l),
(680,680,l),
(680,80,l),
(600,0,l),
(920,0,l),
(880,80,l),
(880,400,l),
(960,440,l),
(1000,440,l),
(1040,400,l),
(1040,80,l),
(1000,0,l),
(1320,0,l),
(1240,80,l),
(1240,480,l),
(1160,560,l),
(1040,600,l),
(960,560,l),
(880,480,l),
(880,840,l),
(720,800,l),
(560,800,l),
(200,800,l),
(40,840,l),
(0,560,l),
(40,560,l),
(120,680,l),
(280,720,l),
(280,80,l),
(200,0,l)
);
}
);
userData = {
com.typemytype.robofont.layerData = {
regular = {
anchors = (
);
components = (
);
contours = (
{
points = (
{
segmentType = line;
smooth = 0;
x = 400;
y = 760;
},
{
segmentType = line;
smooth = 0;
x = 400;
y = 80;
},
{
segmentType = line;
smooth = 0;
x = 480;
y = 0;
},
{
segmentType = line;
smooth = 0;
x = 200;
y = 0;
},
{
segmentType = line;
smooth = 0;
x = 280;
y = 80;
},
{
segmentType = line;
smooth = 0;
x = 280;
y = 760;
},
{
segmentType = line;
smooth = 0;
x = 120;
y = 720;
},
{
segmentType = line;
smooth = 0;
x = 40;
y = 600;
},
{
segmentType = line;
smooth = 0;
x = 0;
y = 600;
},
{
segmentType = line;
smooth = 0;
x = 40;
y = 840;
},
{
segmentType = line;
smooth = 0;
x = 200;
y = 800;
},
{
segmentType = line;
smooth = 0;
x = 480;
y = 800;
},
{
segmentType = line;
smooth = 0;
x = 640;
y = 840;
},
{
segmentType = line;
smooth = 0;
x = 720;
y = 800;
},
{
segmentType = line;
smooth = 0;
x = 720;
y = 440;
},
{
segmentType = line;
smooth = 0;
x = 760;
y = 520;
},
{
segmentType = line;
smooth = 0;
x = 840;
y = 560;
},
{
segmentType = line;
smooth = 0;
x = 1000;
y = 520;
},
{
segmentType = line;
smooth = 0;
x = 1040;
y = 440;
},
{
segmentType = line;
smooth = 0;
x = 1040;
y = 80;
},
{
segmentType = line;
smooth = 0;
x = 1120;
y = 0;
},
{
segmentType = line;
smooth = 0;
x = 840;
y = 0;
},
{
segmentType = line;
smooth = 0;
x = 920;
y = 80;
},
{
segmentType = line;
smooth = 0;
x = 920;
y = 440;
},
{
segmentType = line;
smooth = 0;
x = 880;
y = 480;
},
{
segmentType = line;
smooth = 0;
x = 800;
y = 480;
},
{
segmentType = line;
smooth = 0;
x = 720;
y = 360;
},
{
segmentType = line;
smooth = 0;
x = 720;
y = 80;
},
{
segmentType = line;
smooth = 0;
x = 800;
y = 0;
},
{
segmentType = line;
smooth = 0;
x = 520;
y = 0;
},
{
segmentType = line;
smooth = 0;
x = 600;
y = 80;
},
{
segmentType = line;
smooth = 0;
x = 600;
y = 719;
},
{
segmentType = line;
smooth = 0;
x = 560;
y = 760;
}
);
}
);
lib = {
};
name = T_h.dlig;
unicodes = (
);
width = 1360;
};
};
com.typemytype.robofont.mark = (
0.001,
0.822,
0.283,
1
);
};
width = 1360;
},
{
anchors = (
{
name = caret_1;
pos = (500,0);
}
);
layerId = master01;
shapes = (
{
closed = 1;
nodes = (
(480,0,l),
(400,80,l),
(400,760,l),
(560,760,l),
(600,719,l),
(600,80,l),
(520,0,l),
(800,0,l),
(720,80,l),
(720,360,l),
(800,480,l),
(880,480,l),
(920,440,l),
(920,80,l),
(840,0,l),
(1120,0,l),
(1040,80,l),
(1040,440,l),
(1000,520,l),
(840,560,l),
(760,520,l),
(720,440,l),
(720,800,l),
(640,840,l),
(480,800,l),
(200,800,l),
(40,840,l),
(0,600,l),
(40,600,l),
(120,720,l),
(280,760,l),
(280,80,l),
(200,0,l)
);
}
);
width = 1120;
},
{
anchors = (
{
name = caret_1;
pos = (500,0);
}
);
layerId = m003;
shapes = (
{
closed = 1;
nodes = (
(440,0,l),
(360,40,l),
(360,760,l),
(640,760,l),
(640,719,l),
(640,40,l),
(560,0,l),
(760,0,l),
(680,40,l),
(680,360,l),
(800,480,l),
(880,520,l),
(1000,440,l),
(1000,40,l),
(920,0,l),
(1120,0,l),
(1040,40,l),
(1040,440,l),
(1000,520,l),
(880,560,l),
(800,520,l),
(680,400,l),
(680,800,l),
(640,840,l),
(480,800,l),
(240,800,l),
(80,840,l),
(0,600,l),
(40,600,l),
(120,760,l),
(320,760,l),
(320,40,l),
(240,0,l)
);
}
);
width = 1120;
}
);
},
{
glyphname = Msmall;
lastChange = "2021-06-24 07:43:22 +0000";
layers = (
{
layerId = m003;
shapes = (
{
closed = 1;
nodes = (
(400,80,l),
(560,440,l),
(560,40,l),
(480,0,l),
(680,0,l),
(600,40,l),
(600,480,l),
(680,520,l),
(520,520,l),
(360,80,l),
(360,120,l),
(200,520,l),
(40,520,l),
(120,480,l),
(120,40,l),
(40,0,l),
(240,0,l),
(160,40,l),
(160,440,l),
(360,0,l)
);
}
);
width = 720;
},
{
layerId = master01;
shapes = (
{
closed = 1;
nodes = (
(400,40,l),
(520,320,l),
(520,80,l),
(440,0,l),
(720,0,l),
(640,80,l),
(640,440,l),
(720,520,l),
(520,520,l),
(400,200,l),
(384,240,l),
(280,520,l),
(40,520,l),
(120,440,l),
(120,80,l),
(40,0,l),
(280,0,l),
(200,80,l),
(200,360,l),
(360,0,l)
);
}
);
width = 760;
},
{
layerId = "EBA0A543-5703-488C-9449-531557917997";
shapes = (
{
closed = 1;
nodes = (
(480,40,ls),
(600,360,l),
(600,80,l),
(520,0,l),
(880,0,l),
(800,80,l),
(800,480,l),
(880,560,l),
(600,560,l),
(480,200,l),
(480,240,l),
(360,560,l),
(40,560,l),
(120,480,l),
(120,80,l),
(40,0,l),
(320,0,l),
(240,80,l),
(200,400,l),
(360,0,l)
);
}
);
width = 920;
}
);
unicode = 7437;
},
{
glyphname = Tsmall;
lastChange = "2021-06-24 07:41:36 +0000";
layers = (
{
layerId = m003;
shapes = (
{
closed = 1;
nodes = (
(360,0,l),
(280,40,l),
(280,480,l),
(400,480,l),
(480,320,l),
(520,320,l),
(440,560,l),
(320,520,l),
(200,520,l),
(80,560,l),
(0,320,l),
(40,320,l),
(120,480,l),
(240,480,l),
(240,40,l),
(160,0,l)
);
}
);
width = 520;
},
{
layerId = master01;
shapes = (
{
closed = 1;
nodes = (
(400,0,l),
(320,80,l),
(320,480,l),
(400,440,l),
(480,320,l),
(520,320,l),
(480,560,l),
(320,520,l),
(200,520,l),
(40,560,l),
(0,320,l),
(40,320,l),
(120,440,l),
(200,480,l),
(200,80,l),
(120,0,l)
);
}
);
width = 520;
},
{
layerId = "EBA0A543-5703-488C-9449-531557917997";
shapes = (
{
closed = 1;
nodes = (
(480,0,l),
(400,80,l),
(400,480,l),
(480,440,l),
(560,320,l),
(600,320,l),
(560,600,l),
(400,560,l),
(200,560,l),
(40,600,l),
(0,320,l),
(40,320,l),
(120,440,l),
(200,480,l),
(200,80,l),
(120,0,l)
);
}
);
width = 600;
}
);
unicode = 7451;
},
{
glyphname = a;
lastChange = "2021-06-23 14:43:45 +0000";
layers = (
{
anchors = (
{
name = bottom;
pos = (320,0);
},
{
name = ogonek;
pos = (480,0);
},
{
name = right;
pos = (600,0);
},
{
name = top;
pos = (320,600);
}
);
layerId = "EBA0A543-5703-488C-9449-531557917997";
shapes = (
{
closed = 1;
nodes = (
(320,0,l),
(440,80,l),
(480,0,l),
(520,0,l),
(680,120,l),
(680,200,l),
(600,160,l),
(560,160,l),
(560,480,l),
(480,560,l),
(280,600,l),
(80,520,l),
(120,400,l),
(200,480,l),
(280,480,l),
(360,440,l),
(360,360,l),
(120,320,l),
(40,280,l),
(0,160,l),
(80,40,l),
(200,0,l)
);
},
{
closed = 1;
nodes = (
(200,160,l),
(240,240,l),
(360,320,l),
(360,160,l),
(320,80,l),
(240,80,l)
);
}
);
userData = {
com.typemytype.robofont.layerData = {
background = {
anchors = (
);
components = (
);
contours = (
{
points = (
{
segmentType = line;
smooth = 0;
x = 320;
y = 560;
},
{
segmentType = line;
smooth = 0;
x = 480;
y = 520;
},
{
segmentType = line;
smooth = 0;
x = 540;
y = 440;
},
{
segmentType = line;
smooth = 0;
x = 540;
y = 120;
},
{
segmentType = line;
smooth = 0;
x = 600;
y = 160;
},
{
segmentType = line;
smooth = 0;
x = 600;
y = 80;
},
{
segmentType = line;
smooth = 0;
x = 520;
y = 0;
},
{
segmentType = line;
smooth = 0;
x = 480;
y = 0;
},
{
segmentType = line;
smooth = 0;
x = 440;
y = 80;
},
{
segmentType = line;
smooth = 0;
x = 320;
y = 0;
},
{
segmentType = line;
smooth = 0;
x = 240;
y = 0;
},
{
segmentType = line;
smooth = 0;
x = 140;
y = 40;
},
{
segmentType = line;
smooth = 0;
x = 60;
y = 160;
},
{
segmentType = line;
smooth = 0;
x = 100;
y = 280;
},
{
segmentType = line;
smooth = 0;
x = 160;
y = 320;
},
{
segmentType = line;
smooth = 0;
x = 380;
y = 360;
},
{
segmentType = line;
smooth = 0;
x = 380;
y = 440;
},
{
segmentType = line;
smooth = 0;
x = 360;
y = 480;
},
{
segmentType = line;
smooth = 0;
x = 260;
y = 480;
},
{
segmentType = line;
smooth = 0;
x = 200;
y = 380;
},
{
segmentType = line;
smooth = 0;
x = 120;
y = 480;
}
);
},
{
points = (
{
segmentType = line;
smooth = 0;
x = 380;
y = 300;
},
{
segmentType = line;
smooth = 0;
x = 240;
y = 220;
},
{
segmentType = line;
smooth = 0;
x = 220;
y = 160;
},
{
segmentType = line;
smooth = 0;
x = 280;
y = 60;
},
{
segmentType = line;
smooth = 0;
x = 360;
y = 100;
},
{
segmentType = line;
smooth = 0;
x = 380;
y = 160;
}
);
}
);
lib = {
};
name = a;
unicodes = (
);
width = 680;
};
regular = {
anchors = (
);
components = (
);
contours = (
{
points = (
{
segmentType = line;
smooth = 0;
x = 280;
y = 560;
},
{
segmentType = line;
smooth = 0;
x = 440;
y = 520;
},
{
segmentType = line;
smooth = 0;
x = 480;
y = 440;
},
{
segmentType = line;
smooth = 0;
x = 480;
y = 80;
},
{
segmentType = line;
smooth = 0;
x = 560;
y = 120;
},
{
segmentType = line;
smooth = 0;
x = 560;
y = 80;
},
{
segmentType = line;
smooth = 0;
x = 480;
y = 0;
},
{
segmentType = line;
smooth = 0;
x = 440;
y = 0;
},
{
segmentType = line;
smooth = 0;
x = 400;
y = 80;
},
{
segmentType = line;
smooth = 0;
x = 280;
y = 0;
},
{
segmentType = line;
smooth = 0;
x = 200;
y = 0;
},
{
segmentType = line;
smooth = 0;
x = 120;
y = 40;
},
{
segmentType = line;
smooth = 0;
x = 40;
y = 160;
},
{
segmentType = line;
smooth = 0;
x = 80;
y = 280;
},
{
segmentType = line;
smooth = 0;
x = 160;
y = 320;
},
{
segmentType = line;
smooth = 0;
x = 360;
y = 360;
},
{
segmentType = line;
smooth = 0;
x = 360;
y = 440;
},
{
segmentType = line;
smooth = 0;
x = 320;
y = 480;
},
{
segmentType = line;
smooth = 0;
x = 240;
y = 480;
},
{
segmentType = line;
smooth = 0;
x = 200;
y = 400;
},
{
segmentType = line;
smooth = 0;
x = 120;
y = 480;
}
);
},
{
points = (
{
segmentType = line;
smooth = 0;
x = 360;
y = 320;
},
{
segmentType = line;
smooth = 0;
x = 200;
y = 240;
},
{
segmentType = line;
smooth = 0;
x = 160;
y = 160;
},
{
segmentType = line;
smooth = 0;
x = 240;
y = 40;
},
{
segmentType = line;
smooth = 0;
x = 320;
y = 80;
},
{
segmentType = line;
smooth = 0;
x = 360;
y = 160;
}
);
}
);
lib = {
};
name = a;
unicodes = (
);
width = 680;
};
};
com.typemytype.robofont.mark = (
0.001,
0.822,
0.283,
1
);
};
width = 680;
},
{
anchors = (
{
name = bottom;
pos = (260,0);
},
{
name = ogonek;
pos = (420,0);
},
{
name = right;
pos = (480,0);
},
{
name = top;
pos = (280,560);
}
);
layerId = master01;
shapes = (
{
closed = 1;
nodes = (
(260,0,l),
(380,80,l),
(420,0,l),
(460,0,l),
(540,80,l),
(540,120,l),
(480,90,l),
(460,80,l),
(460,440,l),
(420,520,l),
(260,560,l),
(100,480,l),
(180,400,l),
(220,480,l),
(300,480,l),
(340,440,l),
(340,360,l),
(140,320,l),
(60,280,l),
(20,160,l),
(100,40,l),
(180,0,l)
);
},
{
closed = 1;
nodes = (
(140,160,l),
(180,240,l),
(340,320,l),
(340,160,l),
(300,80,l),
(220,40,l)
);
}
);
width = 540;
},
{
anchors = (
{
name = bottom;
pos = (280,0);
},
{
name = ogonek;
pos = (440,0);
},
{
name = right;
pos = (500,0);
},
{
name = top;
pos = (280,560);
}
);
layerId = m003;
shapes = (
{
closed = 1;
nodes = (
(280,0,l),
(400,120,l),
(440,0,l),
(480,0,l),
(560,40,l),
(560,80,l),
(480,40,l),
(440,120,l),
(440,440,l),
(400,520,l),
(280,560,l),
(120,480,l),
(160,440,l),
(160,480,l),
(280,520,l),
(400,480,l),
(400,360,l),
(160,320,l),
(80,280,l),
(40,160,l),
(120,40,l),
(200,0,l)
);
},
{
closed = 1;
nodes = (
(120,160,l),
(160,280,l),
(400,320,l),
(360,120,l),
(280,40,l),
(200,40,l)
);
}
);
width = 560;
}
);
unicode = 97;
},
{
glyphname = ae;
lastChange = "2021-06-23 20:49:05 +0000";
layers = (
{
anchors = (
{
name = top;
pos = (480,600);
}
);
layerId = "EBA0A543-5703-488C-9449-531557917997";
shapes = (
{
closed = 1;
nodes = (
(240,0,l),
(320,40,l),
(400,120,l),
(480,40,l),
(600,0,l),
(680,0,l),
(760,40,l),
(880,160,l),
(840,200,l),
(760,120,l),
(680,80,l),
(600,120,l),
(520,240,l),
(520,280,l),
(800,320,l),
(880,440,l),
(840,560,l),
(720,600,l),
(600,600,l),
(520,560,l),
(480,480,l),
(440,560,l),
(320,584,l),
(240,600,l),
(120,552,l),
(40,520,l),
(80,400,l),
(160,480,l),
(240,480,l),
(320,440,l),
(320,360,l),
(120,320,l),
(40,280,l),
(0,160,l),
(80,40,l),
(200,0,l)
);
},
{
closed = 1;
nodes = (
(200,160,l),
(240,240,l),
(320,320,l),
(320,160,l),
(280,80,l),
(240,80,l)
);
},
{
closed = 1;
nodes = (
(560,480,l),
(640,520,l),
(720,480,l),
(720,400,l),
(520,320,l)
);
}
);
userData = {
com.typemytype.robofont.layerData = {
background = {
anchors = (
{
name = top;
x = 280;
y = 600;
},
{
name = bottom;
x = 280;
y = 0;
},
{
name = right;
x = 560;
y = 0;
},
{
name = top;
x = 600;
y = 600;
},
{
name = bottom;
x = 600;
y = 0;
},
{
name = right;
x = 840;
y = 0;
}
);
components = (
);
contours = (
{
points = (
{
segmentType = line;
smooth = 0;
x = 240;
y = 600;
},
{
segmentType = line;
smooth = 0;
x = 440;
y = 560;
},
{
segmentType = line;
smooth = 0;
x = 520;
y = 480;
},
{
segmentType = line;
smooth = 0;
x = 520;
y = 160;
},
{
segmentType = line;
smooth = 0;
x = 560;
y = 160;
},
{
segmentType = line;
smooth = 0;
x = 640;
y = 200;
},
{
segmentType = line;
smooth = 0;
x = 640;
y = 120;
},
{
segmentType = line;
smooth = 0;
x = 480;
y = 0;
},
{
segmentType = line;
smooth = 0;
x = 440;
y = 0;
},
{
segmentType = line;
smooth = 0;
x = 400;
y = 80;
},
{
segmentType = line;
smooth = 0;
x = 280;
y = 0;
},
{
segmentType = line;
smooth = 0;
x = 160;
y = 0;
},
{
segmentType = line;
smooth = 0;
x = 40;
y = 40;
},
{
segmentType = line;
smooth = 0;
x = -40;
y = 160;
},
{
segmentType = line;
smooth = 0;
x = 0;
y = 280;
},
{
segmentType = line;
smooth = 0;
x = 80;
y = 320;
},
{
segmentType = line;
smooth = 0;
x = 320;
y = 360;
},
{
segmentType = line;
smooth = 0;
x = 320;
y = 440;
},
{
segmentType = line;
smooth = 0;
x = 240;
y = 480;
},
{
segmentType = line;
smooth = 0;
x = 160;
y = 480;
},
{
segmentType = line;
smooth = 0;
x = 80;
y = 400;
},
{
segmentType = line;
smooth = 0;
x = 40;
y = 520;
}
);
},
{
points = (
{
segmentType = line;
smooth = 0;
x = 320;
y = 320;
},
{
segmentType = line;
smooth = 0;
x = 200;
y = 240;
},
{
segmentType = line;
smooth = 0;
x = 160;
y = 160;
},
{
segmentType = line;
smooth = 0;
x = 200;
y = 80;
},
{
segmentType = line;
smooth = 0;
x = 280;
y = 80;
},
{
segmentType = line;
smooth = 0;
x = 320;
y = 160;
}
);
},
{
points = (
{
segmentType = line;
smooth = 0;
x = 560;
y = 600;
},
{
segmentType = line;
smooth = 0;
x = 720;
y = 600;
},
{
segmentType = line;
smooth = 0;
x = 840;
y = 560;
},
{
segmentType = line;
smooth = 0;
x = 880;
y = 440;
},
{
segmentType = line;
smooth = 0;
x = 800;
y = 320;
},
{
segmentType = line;
smooth = 0;
x = 520;
y = 280;
},
{
segmentType = line;
smooth = 0;
x = 520;
y = 240;
},
{
segmentType = line;
smooth = 0;
x = 600;
y = 120;
},
{
segmentType = line;
smooth = 0;
x = 680;
y = 80;
},
{
segmentType = line;
smooth = 0;
x = 760;
y = 120;
},
{
segmentType = line;
smooth = 0;
x = 880;
y = 240;
},
{
segmentType = line;
smooth = 0;
x = 920;
y = 200;
},
{
segmentType = line;
smooth = 0;
x = 800;
y = 40;
},
{
segmentType = line;
smooth = 0;
x = 720;
y = 0;
},
{
segmentType = line;
smooth = 0;
x = 600;
y = 0;
},
{
segmentType = line;
smooth = 0;
x = 440;
y = 40;
},
{
segmentType = line;
smooth = 0;
x = 320;
y = 200;
},
{
segmentType = line;
smooth = 0;
x = 320;
y = 400;
},
{
segmentType = line;
smooth = 0;
x = 440;
y = 560;
}
);
},
{
points = (
{
segmentType = line;
smooth = 0;
x = 640;
y = 520;
},
{
segmentType = line;
smooth = 0;
x = 560;
y = 480;
},
{
segmentType = line;
smooth = 0;
x = 520;
y = 320;
},
{
segmentType = line;
smooth = 0;
x = 720;
y = 400;
},
{
segmentType = line;
smooth = 0;
x = 720;
y = 480;
}
);
}
);
lib = {
com.typemytype.robofont.layerData = {
background = {
anchors = (
);
components = (
);
contours = (
{
points = (
{
segmentType = line;
smooth = 0;
x = 440;
y = 480;
},
{
segmentType = line;
smooth = 0;
x = 360;
y = 520;
},
{
segmentType = line;
smooth = 0;
x = 280;
y = 480;
},
{
segmentType = line;
smooth = 0;
x = 240;
y = 360;
},
{
segmentType = line;
smooth = 0;
x = 240;
y = 240;
},
{
segmentType = line;
smooth = 0;
x = 320;
y = 120;
},
{
segmentType = line;
smooth = 0;
x = 400;
y = 80;
},
{
segmentType = line;
smooth = 0;
x = 480;
y = 120;
},
{
segmentType = line;
smooth = 0;
x = 560;
y = 240;
},
{
segmentType = line;
smooth = 0;
x = 640;
y = 200;
},
{
segmentType = line;
smooth = 0;
x = 520;
y = 40;
},
{
segmentType = line;
smooth = 0;
x = 440;
y = 0;
},
{
segmentType = line;
smooth = 0;
x = 320;
y = 0;
},
{
segmentType = line;
smooth = 0;
x = 160;
y = 40;
},
{
segmentType = line;
smooth = 0;
x = 40;
y = 200;
},
{
segmentType = line;
smooth = 0;
x = 40;
y = 400;
},
{
segmentType = line;
smooth = 0;
x = 160;
y = 560;
},
{
segmentType = line;
smooth = 0;
x = 320;
y = 600;
},
{
segmentType = line;
smooth = 0;
x = 440;
y = 600;
},
{
segmentType = line;
smooth = 0;
x = 560;
y = 560;
},
{
segmentType = line;
smooth = 0;
x = 600;
y = 440;
},
{
segmentType = line;
smooth = 0;
x = 520;
y = 360;
},
{
segmentType = line;
smooth = 0;
x = 440;
y = 360;
}
);
}
);
lib = {
};
name = e;
unicodes = (
);
width = 640;
};
regular = {
anchors = (
);
components = (
);
contours = (
{
points = (
{
segmentType = line;
smooth = 0;
x = 240;
y = 560;
},
{
segmentType = line;
smooth = 0;
x = 320;
y = 560;
},
{
segmentType = line;
smooth = 0;
x = 440;
y = 520;
},
{
segmentType = line;
smooth = 0;
x = 520;
y = 400;
},
{
segmentType = line;
smooth = 0;
x = 480;
y = 320;
},
{
segmentType = line;
smooth = 0;
x = 160;
y = 240;
},
{
segmentType = line;
smooth = 0;
x = 200;
y = 80;
},
{
segmentType = line;
smooth = 0;
x = 320;
y = 40;
},
{
segmentType = line;
smooth = 0;
x = 400;
y = 80;
},
{
segmentType = line;
smooth = 0;
x = 480;
y = 160;
},
{
segmentType = line;
smooth = 0;
x = 520;
y = 120;
},
{
segmentType = line;
smooth = 0;
x = 440;
y = 40;
},
{
segmentType = line;
smooth = 0;
x = 360;
y = 0;
},
{
segmentType = line;
smooth = 0;
x = 240;
y = 0;
},
{
segmentType = line;
smooth = 0;
x = 120;
y = 40;
},
{
segmentType = line;
smooth = 0;
x = 40;
y = 200;
},
{
segmentType = line;
smooth = 0;
x = 40;
y = 360;
},
{
segmentType = line;
smooth = 0;
x = 120;
y = 520;
}
);
},
{
points = (
{
segmentType = line;
smooth = 0;
x = 280;
y = 520;
},
{
segmentType = line;
smooth = 0;
x = 200;
y = 480;
},
{
segmentType = line;
smooth = 0;
x = 160;
y = 280;
},
{
segmentType = line;
smooth = 0;
x = 360;
y = 360;
},
{
segmentType = line;
smooth = 0;
x = 360;
y = 480;
}
);
}
);
lib = {
};
name = e;
unicodes = (
);
width = 640;
};
};
};
name = ae;
unicodes = (
);
width = 880;
};
regular = {
anchors = (
);
components = (
);
contours = (
{
points = (
{
segmentType = line;
smooth = 0;
x = 440;
y = 520;
},
{
segmentType = line;
smooth = 0;
x = 520;
y = 560;
},
{
segmentType = line;
smooth = 0;
x = 600;
y = 560;
},
{
segmentType = line;
smooth = 0;
x = 720;
y = 520;
},
{
segmentType = line;
smooth = 0;
x = 800;
y = 400;
},
{
segmentType = line;
smooth = 0;
x = 760;
y = 320;
},
{
segmentType = line;
smooth = 0;
x = 440;
y = 280;
},
{
segmentType = line;
smooth = 0;
x = 480;
y = 120;
},
{
segmentType = line;
smooth = 0;
x = 560;
y = 40;
},
{
segmentType = line;
smooth = 0;
x = 640;
y = 80;
},
{
segmentType = line;
smooth = 0;
x = 680;
y = 160;
},
{
segmentType = line;
smooth = 0;
x = 760;
y = 80;
},
{
segmentType = line;
smooth = 0;
x = 720;
y = 40;
},
{
segmentType = line;
smooth = 0;
x = 600;
y = 0;
},
{
segmentType = line;
smooth = 0;
x = 520;
y = 0;
},
{
segmentType = line;
smooth = 0;
x = 440;
y = 40;
},
{
segmentType = line;
smooth = 0;
x = 400;
y = 120;
},
{
segmentType = line;
smooth = 0;
x = 360;
y = 40;
},
{
segmentType = line;
smooth = 0;
x = 280;
y = 0;
},
{
segmentType = line;
smooth = 0;
x = 160;
y = 0;
},
{
segmentType = line;
smooth = 0;
x = 80;
y = 40;
},
{
segmentType = line;
smooth = 0;
x = 0;
y = 160;
},
{
segmentType = line;
smooth = 0;
x = 40;
y = 280;
},
{
segmentType = line;
smooth = 0;
x = 120;
y = 320;
},
{
segmentType = line;
smooth = 0;
x = 360;
y = 320;
},
{
segmentType = line;
smooth = 0;
x = 320;
y = 440;
},
{
segmentType = line;
smooth = 0;
x = 240;
y = 520;
},
{
segmentType = line;
smooth = 0;
x = 160;
y = 480;
},
{
segmentType = line;
smooth = 0;
x = 120;
y = 400;
},
{
segmentType = line;
smooth = 0;
x = 40;
y = 480;
},
{
segmentType = line;
smooth = 0;
x = 80;
y = 520;
},
{
segmentType = line;
smooth = 0;
x = 200;
y = 560;
},
{
segmentType = line;
smooth = 0;
x = 280;
y = 560;
},
{
segmentType = line;
smooth = 0;
x = 360;
y = 520;
},
{
segmentType = line;
smooth = 0;
x = 400;
y = 440;
}
);
},
{
points = (
{
segmentType = line;
smooth = 0;
x = 360;
y = 280;
},
{
segmentType = line;
smooth = 0;
x = 160;
y = 240;
},
{
segmentType = line;
smooth = 0;
x = 120;
y = 160;
},
{
segmentType = line;
smooth = 0;
x = 160;
y = 80;
},
{
segmentType = line;
smooth = 0;
x = 240;
y = 80;
},
{
segmentType = line;
smooth = 0;
x = 320;
y = 120;
}
);
},
{
points = (
{
segmentType = line;
smooth = 0;
x = 560;
y = 520;
},
{
segmentType = line;
smooth = 0;
x = 480;
y = 440;
},
{
segmentType = line;
smooth = 0;
x = 440;
y = 320;
},
{
segmentType = line;
smooth = 0;
x = 640;
y = 360;
},
{
segmentType = line;
smooth = 0;
x = 640;
y = 480;
}
);
}
);
lib = {
};
name = ae;
unicodes = (
);
width = 880;
};
};
com.typemytype.robofont.mark = (
0.001,
0.822,
0.283,
1
);
};
width = 880;
},
{
anchors = (
{
name = top;
pos = (440,560);
}
);
layerId = master01;
shapes = (
{
closed = 1;
nodes = (
(320,0,l),
(400,40,l),
(440,120,l),
(480,40,l),
(560,0,l),
(640,0,l),
(760,40,l),
(800,80,l),
(720,160,l),
(680,80,l),
(600,40,l),
(520,120,l),
(490,240,l),
(480,280,l),
(800,320,l),
(840,400,l),
(760,520,l),
(640,560,l),
(560,560,l),
(480,520,l),
(440,440,l),
(400,520,l),
(320,560,l),
(240,560,l),
(120,520,l),
(80,480,l),
(160,400,l),
(200,480,l),
(280,520,l),
(360,440,l),
(400,320,l),
(160,320,l),
(80,280,l),
(40,160,l),
(120,40,l),
(200,0,l)
);
},
{
closed = 1;
nodes = (
(160,160,l),
(200,240,l),
(400,280,l),
(360,120,l),
(280,80,l),
(200,80,l)
);
},
{
closed = 1;
nodes = (
(520,440,l),
(600,520,l),
(680,480,l),
(680,360,l),
(480,320,l)
);
}
);
width = 840;
},
{
anchors = (
{
name = top;
pos = (440,560);
}
);
layerId = m003;
shapes = (
{
closed = 1;
nodes = (
(280,0,l),
(400,120,l),
(440,240,l),
(480,80,l),
(600,0,l),
(680,0,l),
(760,40,l),
(840,120,l),
(840,160,l),
(680,40,l),
(600,40,l),
(520,120,l),
(490,240,l),
(480,280,l),
(800,320,l),
(840,400,l),
(760,520,l),
(640,560,l),
(600,560,l),
(480,520,l),
(440,360,l),
(400,520,l),
(320,560,l),
(280,560,l),
(200,520,l),
(120,480,l),
(160,440,l),
(160,480,l),
(280,520,l),
(360,480,l),
(400,320,l),
(160,280,l),
(80,240,l),
(40,120,l),
(120,40,l),
(200,0,l)
);
},
{
closed = 1;
nodes = (
(120,120,l),
(160,240,l),
(400,280,l),
(360,120,l),
(280,40,l),
(200,40,l)
);
},
{
closed = 1;
nodes = (
(520,490,l),
(600,520,l),
(720,480,l),
(760,360,l),
(480,320,l)
);
}
);
width = 840;
}
);
unicode = 230;
},
{
glyphname = b;
lastChange = "2021-06-30 21:04:20 +0000";
layers = (
{
anchors = (
{
name = bottom;
pos = (400,0);
},
{
name = center;
pos = (180,280);
},
{
name = top;
pos = (180,840);
}
);
layerId = "EBA0A543-5703-488C-9449-531557917997";
shapes = (
{
closed = 1;
nodes = (
(240,80,l),
(280,80,l),
(288,72,l),
(360,0,l),
(440,0,l),
(560,40,l),
(680,200,l),
(680,400,l),
(560,560,l),
(440,600,l),
(360,560,l),
(280,480,l),
(280,840,l),
(0,760,l),
(80,680,l),
(80,400,l),
(80,160,l),
(0,80,l),
(120,-40,l)
);
},
{
closed = 1;
nodes = (
(280,200,l),
(280,400,l),
(360,440,l),
(400,440,l),
(480,360,l),
(480,280,l),
(480,200,l),
(400,120,l),
(320,120,l)
);
}
);
userData = {
com.typemytype.robofont.layerData = {
background = {
anchors = (
);
components = (
);
contours = (
{
points = (
{
segmentType = line;
smooth = 0;
x = 400;
y = 600;
},
{
segmentType = line;
smooth = 0;
x = 560;
y = 560;
},
{
segmentType = line;
smooth = 0;
x = 680;
y = 400;
},
{
segmentType = line;
smooth = 0;
x = 680;
y = 200;
},
{
segmentType = line;
smooth = 0;
x = 560;
y = 40;
},
{
segmentType = line;
smooth = 0;
x = 440;
y = 0;
},
{
segmentType = line;
smooth = 0;
x = 360;
y = 0;
},
{
segmentType = line;
smooth = 0;
x = 280;
y = 80;
},
{
segmentType = line;
smooth = 0;
x = 280;
y = -240;
},
{
segmentType = line;
smooth = 0;
x = 360;
y = -320;
},
{
segmentType = line;
smooth = 0;
x = 0;
y = -320;
},
{
segmentType = line;
smooth = 0;
x = 80;
y = -240;
},
{
segmentType = line;
smooth = 0;
x = 80;
y = 440;
},
{
segmentType = line;
smooth = 0;
x = 0;
y = 520;
},
{
segmentType = line;
smooth = 0;
x = 280;
y = 600;
},
{
segmentType = line;
smooth = 0;
x = 200;
y = 440;
},
{
segmentType = line;
smooth = 0;
x = 240;
y = 440;
},
{
segmentType = line;
smooth = 0;
x = 320;
y = 560;
}
);
},
{
points = (
{
segmentType = line;
smooth = 0;
x = 360;
y = 440;
},
{
segmentType = line;
smooth = 0;
x = 280;
y = 400;
},
{
segmentType = line;
smooth = 0;
x = 280;
y = 200;
},
{
segmentType = line;
smooth = 0;
x = 320;
y = 120;
},
{
segmentType = line;
smooth = 0;
x = 400;
y = 120;
},
{
segmentType = line;
smooth = 0;
x = 480;
y = 200;
},
{
segmentType = line;
smooth = 0;
x = 480;
y = 360;
},
{
segmentType = line;
smooth = 0;
x = 400;
y = 440;
}
);
}
);
lib = {
com.typemytype.robofont.layerData = {
background = {
anchors = (
{
name = top;
x = 400;
y = 600;
},
{
name = bottom;
x = 400;
y = 0;
}
);
components = (
);
contours = (
{
points = (
{
segmentType = line;
smooth = 0;
x = 0;
y = 0;
},
{
segmentType = line;
smooth = 0;
x = 80;
y = 80;
},
{
segmentType = line;
smooth = 0;
x = 80;
y = 440;
},
{
segmentType = line;
smooth = 0;
x = 0;
y = 520;
},
{
segmentType = line;
smooth = 0;
x = 280;
y = 600;
},
{
segmentType = line;
smooth = 0;
x = 200;
y = 440;
},
{
segmentType = line;
smooth = 0;
x = 240;
y = 440;
},
{
segmentType = line;
smooth = 0;
x = 320;
y = 560;
},
{
segmentType = line;
smooth = 0;
x = 400;
y = 600;
},
{
segmentType = line;
smooth = 0;
x = 560;
y = 560;
},
{
segmentType = line;
smooth = 0;
x = 640;
y = 480;
},
{
segmentType = line;
smooth = 0;
x = 640;
y = 80;
},
{
segmentType = line;
smooth = 0;
x = 720;
y = 0;
},
{
segmentType = line;
smooth = 0;
x = 400;
y = 0;
},
{
segmentType = line;
smooth = 0;
x = 440;
y = 80;
},
{
segmentType = line;
smooth = 0;
x = 440;
y = 400;
},
{
segmentType = line;
smooth = 0;
x = 400;
y = 440;
},
{
segmentType = line;
smooth = 0;
x = 360;
y = 440;
},
{
segmentType = line;
smooth = 0;
x = 280;
y = 400;
},
{
segmentType = line;
smooth = 0;
x = 280;
y = 80;
},
{
segmentType = line;
smooth = 0;
x = 320;
y = 0;
}
);
}
);
lib = {
com.typemytype.robofont.layerData = {
background = {
anchors = (
);
components = (
);
contours = (
);
lib = {
};
name = n;
unicodes = (
);
width = 800;
};
regular = {
anchors = (
);
components = (
);
contours = (
{
points = (
{
segmentType = line;
smooth = 0;
x = 100;
y = 0;
},
{
segmentType = line;
smooth = 0;
x = 180;
y = 80;
},
{
segmentType = line;
smooth = 0;
x = 180;
y = 440;
},
{
segmentType = line;
smooth = 0;
x = 100;
y = 480;
},
{
segmentType = line;
smooth = 0;
x = 300;
y = 560;
},
{
segmentType = line;
smooth = 0;
x = 260;
y = 400;
},
{
segmentType = line;
smooth = 0;
x = 380;
y = 520;
},
{
segmentType = line;
smooth = 0;
x = 460;
y = 560;
},
{
segmentType = line;
smooth = 0;
x = 620;
y = 520;
},
{
segmentType = line;
smooth = 0;
x = 660;
y = 440;
},
{
segmentType = line;
smooth = 0;
x = 660;
y = 80;
},
{
segmentType = line;
smooth = 0;
x = 740;
y = 0;
},
{
segmentType = line;
smooth = 0;
x = 460;
y = 0;
},
{
segmentType = line;
smooth = 0;
x = 540;
y = 80;
},
{
segmentType = line;
smooth = 0;
x = 540;
y = 440;
},
{
segmentType = line;
smooth = 0;
x = 500;
y = 480;
},
{
segmentType = line;
smooth = 0;
x = 420;
y = 480;
},
{
segmentType = line;
smooth = 0;
x = 300;
y = 360;
},
{
segmentType = line;
smooth = 0;
x = 300;
y = 80;
},
{
segmentType = line;
smooth = 0;
x = 380;
y = 0;
}
);
}
);
lib = {
};
name = n;
unicodes = (
);
width = 800;
};
};
};
name = p;
unicodes = (
);
width = 720;
};
regular = {
anchors = (
);
components = (
);
contours = (
{
points = (
{
segmentType = line;
smooth = 0;
x = 380;
y = 560;
},
{
segmentType = line;
smooth = 0;
x = 500;
y = 520;
},
{
segmentType = line;
smooth = 0;
x = 580;
y = 360;
},
{
segmentType = line;
smooth = 0;
x = 580;
y = 200;
},
{
segmentType = line;
smooth = 0;
x = 500;
y = 40;
},
{
segmentType = line;
smooth = 0;
x = 380;
y = 0;
},
{
segmentType = line;
smooth = 0;
x = 300;
y = 0;
},
{
segmentType = line;
smooth = 0;
x = 220;
y = 40;
},
{
segmentType = line;
smooth = 0;
x = 220;
y = -240;
},
{
segmentType = line;
smooth = 0;
x = 300;
y = -320;
},
{
segmentType = line;
smooth = 0;
x = 20;
y = -320;
},
{
segmentType = line;
smooth = 0;
x = 100;
y = -240;
},
{
segmentType = line;
smooth = 0;
x = 100;
y = 440;
},
{
segmentType = line;
smooth = 0;
x = 20;
y = 480;
},
{
segmentType = line;
smooth = 0;
x = 220;
y = 560;
},
{
segmentType = line;
smooth = 0;
x = 180;
y = 400;
},
{
segmentType = line;
smooth = 0;
x = 300;
y = 520;
}
);
},
{
points = (
{
segmentType = line;
smooth = 0;
x = 340;
y = 480;
},
{
segmentType = line;
smooth = 0;
x = 220;
y = 360;
},
{
segmentType = line;
smooth = 0;
x = 220;
y = 160;
},
{
segmentType = line;
smooth = 0;
x = 260;
y = 80;
},
{
segmentType = line;
smooth = 0;
x = 340;
y = 40;
},
{
segmentType = line;
smooth = 0;
x = 420;
y = 80;
},
{
segmentType = line;
smooth = 0;
x = 460;
y = 280;
},
{
segmentType = line;
smooth = 0;
x = 420;
y = 480;
}
);
}
);
lib = {
};
name = p;
unicodes = (
);
width = 720;
};
};
};
name = b;
unicodes = (
);
width = 720;
};
regular = {
anchors = (
);
components = (
);
contours = (
{
points = (
{
segmentType = line;
smooth = 0;
x = 160;
y = 720;
},
{
segmentType = line;
smooth = 0;
x = 80;
y = 760;
},
{
segmentType = line;
smooth = 0;
x = 280;
y = 840;
},
{
segmentType = line;
smooth = 0;
x = 280;
y = 520;
},
{
segmentType = line;
smooth = 0;
x = 360;
y = 560;
},
{
segmentType = line;
smooth = 0;
x = 440;
y = 560;
},
{
segmentType = line;
smooth = 0;
x = 560;
y = 520;
},
{
segmentType = line;
smooth = 0;
x = 640;
y = 360;
},
{
segmentType = line;
smooth = 0;
x = 640;
y = 200;
},
{
segmentType = line;
smooth = 0;
x = 560;
y = 40;
},
{
segmentType = line;
smooth = 0;
x = 440;
y = 0;
},
{
segmentType = line;
smooth = 0;
x = 360;
y = 0;
},
{
segmentType = line;
smooth = 0;
x = 280;
y = 40;
},
{
segmentType = line;
smooth = 0;
x = 240;
y = 80;
},
{
segmentType = line;
smooth = 0;
x = 200;
y = 0;
},
{
segmentType = line;
smooth = 0;
x = 80;
y = 80;
},
{
segmentType = line;
smooth = 0;
x = 160;
y = 120;
}
);
},
{
points = (
{
segmentType = line;
smooth = 0;
x = 400;
y = 520;
},
{
segmentType = line;
smooth = 0;
x = 320;
y = 480;
},
{
segmentType = line;
smooth = 0;
x = 280;
y = 400;
},
{
segmentType = line;
smooth = 0;
x = 280;
y = 160;
},
{
segmentType = line;
smooth = 0;
x = 320;
y = 80;
},
{
segmentType = line;
smooth = 0;
x = 400;
y = 40;
},
{
segmentType = line;
smooth = 0;
x = 480;
y = 80;
},
{
segmentType = line;
smooth = 0;
x = 520;
y = 280;
},
{
segmentType = line;
smooth = 0;
x = 480;
y = 480;
}
);
}
);
lib = {
};
name = b;
unicodes = (
);
width = 720;
};
};
com.typemytype.robofont.mark = (
0.001,
0.822,
0.283,
1
);
};
width = 720;
},
{
anchors = (
{
name = bottom;
pos = (360,0);
},
{
name = center;
pos = (180,280);
},
{
name = top;
pos = (180,840);
}
);
layerId = master01;
shapes = (
{
closed = 1;
nodes = (
(199,78,l),
(200,80,l),
(240,40,l),
(320,0,l),
(400,0,l),
(520,40,l),
(600,200,l),
(600,360,l),
(520,520,l),
(400,560,l),
(320,560,l),
(240,520,l),
(240,840,l),
(40,760,l),
(120,720,l),
(120,400,l),
(120,120,l),
(40,80,l),
(160,0,l)
);
},
{
closed = 1;
nodes = (
(240,160,l),
(240,400,l),
(280,480,l),
(360,520,l),
(440,480,l),
(480,280,l),
(440,80,l),
(360,40,l),
(280,80,l)
);
}
);
width = 640;
},
{
anchors = (
{
name = bottom;
pos = (320,0);
},
{
name = center;
pos = (140,280);
},
{
name = top;
pos = (140,840);
}
);
layerId = m003;
metricLeft = "=n";
shapes = (
{
closed = 1;
nodes = (
(159,78,l),
(160,80,l),
(200,40,l),
(240,0,l),
(320,0,l),
(440,40,l),
(520,250,l),
(520,320,l),
(440,520,l),
(360,560,l),
(240,560,l),
(160,480,l),
(160,840,l),
(40,800,l),
(120,720,l),
(120,400,l),
(120,120,l),
(80,40,l),
(120,0,l)
);
},
{
closed = 1;
nodes = (
(160,120,l),
(160,440,l),
(240,520,l),
(320,520,l),
(400,480,l),
(440,280,l),
(400,80,l),
(320,40,l),
(240,40,l)
);
}
);
width = 560;
}
);
unicode = 98;
},
{
glyphname = bhook;
lastChange = "2021-06-30 15:10:23 +0000";
layers = (
{
anchors = (
{
name = bottom;
pos = (280,0);
}
);
layerId = m003;
shapes = (
{
closed = 1;
nodes = (
(119,78,l),
(120,80,l),
(160,40,l),
(200,0,l),
(280,0,l),
(400,40,l),
(480,250,l),
(480,320,l),
(400,520,l),
(320,560,l),
(200,560,l),
(120,480,l),
(120,760,l),
(80,720,l),
(80,120,l),
(40,40,l),
(80,0,l)
);
},
{
closed = 1;
nodes = (
(120,120,l),
(120,440,l),
(200,520,l),
(280,520,l),
(360,480,l),
(400,280,l),
(360,80,l),
(280,40,l),
(200,40,l)
);
},
{
pos = (-80,-120);
ref = _hooktopright;
}
);
width = 520;
},
{
anchors = (
{
name = bottom;
pos = (360,0);
}
);
layerId = master01;
shapes = (
{
closed = 1;
nodes = (
(199,78,l),
(200,80,l),
(240,40,l),
(320,0,l),
(400,0,l),
(520,40,l),
(600,200,l),
(600,360,l),
(520,520,l),
(400,560,l),
(320,560,l),
(240,520,l),
(240,720,l),
(120,680,l),
(120,120,l),
(40,80,l),
(160,0,l)
);
},
{
closed = 1;
nodes = (
(240,160,l),
(240,400,l),
(280,480,l),
(360,520,l),
(440,480,l),
(480,280,l),
(440,80,l),
(360,40,l),
(280,80,l)
);
},
{
pos = (-40,-160);
ref = _hooktopright;
}
);
width = 640;
},
{
anchors = (
{
name = bottom;
pos = (400,0);
}
);
layerId = "EBA0A543-5703-488C-9449-531557917997";
shapes = (
{
closed = 1;
nodes = (
(240,80,l),
(280,80,l),
(288,72,l),
(360,0,l),
(440,0,l),
(560,40,l),
(680,200,l),
(680,400,l),
(560,560,l),
(440,600,l),
(360,560,l),
(280,480,l),
(280,720,l),
(80,680,l),
(80,160,l),
(0,80,l),
(120,-40,l)
);
},
{
closed = 1;
nodes = (
(280,200,l),
(280,400,l),
(360,440,l),
(400,440,l),
(480,360,l),
(480,280,l),
(480,200,l),
(400,120,l),
(320,120,l)
);
},
{
pos = (-80,-160);
ref = _hooktopright;
}
);
width = 720;
}
);
metricLeft = "=b";
metricRight = "=b";
unicode = 595;
},
{
glyphname = bilabialclick;
lastChange = "2021-06-30 15:43:58 +0000";
layers = (
{
anchors = (
{
name = bottom;
pos = (420,0);
},
{
name = center;
pos = (420,400);
},
{
name = ogonek;
pos = (420,0);
},
{
name = top;
pos = (420,840);
},
{
name = topleft;
pos = (40,840);
},
{
name = topright;
pos = (680,720);
}
);
layerId = m003;
shapes = (
{
closed = 1;
nodes = (
(520,0,l),
(680,80,l),
(760,240,l),
(800,400,l),
(760,560,l),
(680,720,l),
(520,800,l),
(320,800,l),
(160,720,l),
(80,560,l),
(40,400,l),
(80,240,l),
(160,80,l),
(320,0,l)
);
},
{
closed = 1;
nodes = (
(200,120,l),
(120,320,l),
(120,480,l),
(200,680,l),
(320,760,l),
(520,760,l),
(640,680,l),
(682,617,l),
(720,480,l),
(720,320,l),
(640,120,l),
(520,40,l),
(320,40,l)
);
},
{
closed = 1;
nodes = (
(440,340,l),
(480,380,l),
(480,420,l),
(440,460,l),
(400,460,l),
(360,420,l),
(360,380,l),
(400,340,l)
);
}
);
width = 840;
},
{
anchors = (
{
name = bottom;
pos = (440,0);
},
{
name = center;
pos = (440,400);
},
{
name = ogonek;
pos = (440,0);
},
{
name = top;
pos = (440,840);
},
{
name = topleft;
pos = (40,840);
},
{
name = topright;
pos = (720,720);
}
);
layerId = master01;
shapes = (
{
closed = 1;
nodes = (
(560,0,l),
(720,80,l),
(800,200,l),
(840,400,l),
(800,600,l),
(720,720,l),
(560,800,l),
(320,800,l),
(160,720,l),
(80,600,l),
(40,400,l),
(80,200,l),
(160,80,l),
(320,0,l)
);
},
{
closed = 1;
nodes = (
(280,120,l),
(200,240,l),
(200,560,l),
(280,680,l),
(400,760,l),
(480,760,l),
(600,680,l),
(642,617,l),
(680,560,l),
(680,240,l),
(600,120,l),
(480,40,l),
(400,40,l)
);
},
{
closed = 1;
nodes = (
(480,320,l),
(520,400,l),
(520,440,l),
(440,480,l),
(400,480,l),
(360,400,l),
(360,360,l),
(440,320,l)
);
}
);
width = 880;
},
{
anchors = (
{
name = bottom;
pos = (460,0);
},
{
name = center;
pos = (460,400);
},
{
name = ogonek;
pos = (460,0);
},
{
name = top;
pos = (460,840);
},
{
name = topleft;
pos = (40,800);
},
{
name = topright;
pos = (720,720);
}
);
layerId = "EBA0A543-5703-488C-9449-531557917997";
shapes = (
{
closed = 1;
nodes = (
(560,0,l),
(720,80,l),
(840,200,l),
(880,400,l),
(840,600,l),
(720,720,l),
(560,800,l),
(360,800,l),
(200,720,l),
(80,600,l),
(40,400,l),
(80,200,l),
(200,80,l),
(360,0,l)
);
},
{
closed = 1;
nodes = (
(360,120,l),
(280,240,l),
(280,560,l),
(360,680,l),
(440,720,l),
(480,720,l),
(560,680,l),
(598,623,l),
(640,560,l),
(640,240,l),
(560,120,l),
(480,80,l),
(440,80,l)
);
},
{
closed = 1;
nodes = (
(500,280,l),
(580,400,l),
(580,440,l),
(460,520,l),
(420,520,l),
(340,400,l),
(340,360,l),
(460,280,l)
);
}
);
width = 920;
}
);
metricLeft = "=O";
metricRight = "=O";
unicode = 664;
},
{
glyphname = c;
lastChange = "2021-06-25 10:45:41 +0000";
layers = (
{
anchors = (
{
name = bottom;
pos = (360,0);
},
{
name = top;
pos = (360,600);
}
);
layerId = "EBA0A543-5703-488C-9449-531557917997";
shapes = (
{
closed = 1;
nodes = (
(440,0,l),
(520,40,l),
(640,200,l),
(560,240,l),
(480,120,l),
(400,80,l),
(320,120,l),
(240,240,l),
(240,360,l),
(280,480,l),
(360,520,l),
(440,480,l),
(440,360,l),
(520,360,l),
(600,440,l),
(560,560,l),
(440,600,l),
(320,600,l),
(160,560,l),
(40,400,l),
(40,200,l),
(160,40,l),
(320,0,l)
);
}
);
userData = {
com.typemytype.robofont.layerData = {
background = {
anchors = (
);
components = (
);
contours = (
{
points = (
{
segmentType = line;
smooth = 0;
x = 420;
y = 480;
},
{
segmentType = line;
smooth = 0;
x = 340;
y = 500;
},
{
segmentType = line;
smooth = 0;
x = 280;
y = 460;
},
{
segmentType = line;
smooth = 0;
x = 240;
y = 320;
},
{
segmentType = line;
smooth = 0;
x = 240;
y = 240;
},
{
segmentType = line;
smooth = 0;
x = 280;
y = 100;
},
{
segmentType = line;
smooth = 0;
x = 380;
y = 60;
},
{
segmentType = line;
smooth = 0;
x = 460;
y = 100;
},
{
segmentType = line;
smooth = 0;
x = 500;
y = 180;
},
{
segmentType = line;
smooth = 0;
x = 580;
y = 120;
},
{
segmentType = line;
smooth = 0;
x = 500;
y = 40;
},
{
segmentType = line;
smooth = 0;
x = 420;
y = 0;
},
{
segmentType = line;
smooth = 0;
x = 300;
y = 0;
},
{
segmentType = line;
smooth = 0;
x = 180;
y = 40;
},
{
segmentType = line;
smooth = 0;
x = 80;
y = 200;
},
{
segmentType = line;
smooth = 0;
x = 80;
y = 360;
},
{
segmentType = line;
smooth = 0;
x = 160;
y = 520;
},
{
segmentType = line;
smooth = 0;
x = 300;
y = 560;
},
{
segmentType = line;
smooth = 0;
x = 380;
y = 560;
},
{
segmentType = line;
smooth = 0;
x = 520;
y = 520;
},
{
segmentType = line;
smooth = 0;
x = 560;
y = 440;
},
{
segmentType = line;
smooth = 0;
x = 480;
y = 360;
},
{
segmentType = line;
smooth = 0;
x = 420;
y = 360;
}
);
}
);
lib = {
};
name = c;
unicodes = (
);
width = 640;
};
regular = {
anchors = (
);
components = (
);
contours = (
{
points = (
{
segmentType = line;
smooth = 0;
x = 420;
y = 480;
},
{
segmentType = line;
smooth = 0;
x = 340;
y = 520;
},
{
segmentType = line;
smooth = 0;
x = 260;
y = 480;
},
{
segmentType = line;
smooth = 0;
x = 220;
y = 320;
},
{
segmentType = line;
smooth = 0;
x = 220;
y = 240;
},
{
segmentType = line;
smooth = 0;
x = 260;
y = 80;
},
{
segmentType = line;
smooth = 0;
x = 380;
y = 40;
},
{
segmentType = line;
smooth = 0;
x = 460;
y = 80;
},
{
segmentType = line;
smooth = 0;
x = 500;
y = 160;
},
{
segmentType = line;
smooth = 0;
x = 580;
y = 120;
},
{
segmentType = line;
smooth = 0;
x = 500;
y = 40;
},
{
segmentType = line;
smooth = 0;
x = 420;
y = 0;
},
{
segmentType = line;
smooth = 0;
x = 300;
y = 0;
},
{
segmentType = line;
smooth = 0;
x = 180;
y = 40;
},
{
segmentType = line;
smooth = 0;
x = 100;
y = 200;
},
{
segmentType = line;
smooth = 0;
x = 100;
y = 360;
},
{
segmentType = line;
smooth = 0;
x = 180;
y = 520;
},
{
segmentType = line;
smooth = 0;
x = 300;
y = 560;
},
{
segmentType = line;
smooth = 0;
x = 380;
y = 560;
},
{
segmentType = line;
smooth = 0;
x = 500;
y = 520;
},
{
segmentType = line;
smooth = 0;
x = 540;
y = 440;
},
{
segmentType = line;
smooth = 0;
x = 460;
y = 360;
},
{
segmentType = line;
smooth = 0;
x = 420;
y = 360;
}
);
}
);
lib = {
};
name = c;
unicodes = (
);
width = 640;
};
};
com.typemytype.robofont.mark = (
0.001,
0.822,
0.283,
1
);
};
width = 640;
},
{
anchors = (
{
name = bottom;
pos = (280,0);
},
{
name = top;
pos = (280,560);
}
);
layerId = master01;
shapes = (
{
closed = 1;
nodes = (
(360,0,l),
(440,40,l),
(520,120,l),
(440,160,l),
(400,80,l),
(320,40,l),
(200,80,l),
(160,240,l),
(160,320,l),
(200,480,l),
(280,520,l),
(360,480,l),
(360,360,l),
(400,360,l),
(480,440,l),
(440,520,l),
(320,560,l),
(240,560,l),
(120,520,l),
(40,360,l),
(40,200,l),
(120,40,l),
(240,0,l)
);
}
);
width = 520;
},
{
anchors = (
{
name = bottom;
pos = (280,0);
},
{
name = top;
pos = (280,560);
}
);
layerId = m003;
metricLeft = "=o";
shapes = (
{
closed = 1;
nodes = (
(320,0,l),
(400,40,l),
(440,80,l),
(400,120,l),
(360,80,l),
(310,40,l),
(160,80,l),
(120,240,l),
(120,320,l),
(160,480,l),
(280,520,l),
(400,480,l),
(360,360,l),
(400,360,l),
(440,440,l),
(400,520,l),
(320,560,l),
(240,560,l),
(120,520,l),
(40,360,l),
(40,200,l),
(120,40,l),
(240,0,l)
);
}
);
width = 520;
}
);
unicode = 99;
},
{
glyphname = d;
lastChange = "2021-06-30 21:07:06 +0000";
layers = (
{
anchors = (
{
name = bottom;
pos = (360,0);
},
{
name = center;
pos = (540,300);
},
{
name = hook;
pos = (540,760);
},
{
name = right;
pos = (640,840);
},
{
name = top;
pos = (540,840);
},
{
name = topright;
pos = (740,840);
}
);
layerId = "EBA0A543-5703-488C-9449-531557917997";
shapes = (
{
closed = 1;
nodes = (
(400,0,l),
(480,80,l),
(520,120,l),
(560,0,l),
(600,0,l),
(760,120,l),
(760,200,l),
(680,160,l),
(640,160,l),
(640,840,l),
(360,760,l),
(440,680,l),
(440,520,l),
(360,600,l),
(280,600,l),
(160,560,l),
(40,400,l),
(40,200,l),
(160,40,l),
(320,0,l)
);
},
{
closed = 1;
nodes = (
(240,240,l),
(240,320,l),
(240,400,l),
(320,480,l),
(400,480,l),
(440,400,l),
(440,200,l),
(400,120,l),
(320,120,l)
);
}
);
userData = {
com.typemytype.robofont.layerData = {
background = {
anchors = (
);
components = (
);
contours = (
{
points = (
{
segmentType = move;
x = 600;
y = 160;
},
{
segmentType = line;
smooth = 0;
x = 640;
y = 160;
},
{
segmentType = line;
smooth = 0;
x = 720;
y = 200;
},
{
segmentType = line;
smooth = 0;
x = 720;
y = 120;
},
{
segmentType = line;
smooth = 0;
x = 560;
y = 0;
},
{
segmentType = line;
smooth = 0;
x = 520;
y = 0;
},
{
segmentType = line;
smooth = 0;
x = 480;
y = 80;
}
);
}
);
lib = {
com.typemytype.robofont.layerData = {
background = {
anchors = (
);
components = (
);
contours = (
{
points = (
{
segmentType = line;
smooth = 0;
x = 280;
y = 560;
},
{
segmentType = line;
smooth = 0;
x = 440;
y = 520;
},
{
segmentType = line;
smooth = 0;
x = 500;
y = 440;
},
{
segmentType = line;
smooth = 0;
x = 500;
y = 140;
},
{
segmentType = line;
smooth = 0;
x = 560;
y = 160;
},
{
segmentType = line;
smooth = 0;
x = 560;
y = 80;
},
{
segmentType = line;
smooth = 0;
x = 480;
y = 0;
},
{
segmentType = line;
smooth = 0;
x = 440;
y = 0;
},
{
segmentType = line;
smooth = 0;
x = 380;
y = 60;
},
{
segmentType = line;
smooth = 0;
x = 280;
y = 0;
},
{
segmentType = line;
smooth = 0;
x = 200;
y = 0;
},
{
segmentType = line;
smooth = 0;
x = 100;
y = 40;
},
{
segmentType = line;
smooth = 0;
x = 20;
y = 160;
},
{
segmentType = line;
smooth = 0;
x = 60;
y = 280;
},
{
segmentType = line;
smooth = 0;
x = 120;
y = 320;
},
{
segmentType = line;
smooth = 0;
x = 340;
y = 360;
},
{
segmentType = line;
smooth = 0;
x = 340;
y = 440;
},
{
segmentType = line;
smooth = 0;
x = 320;
y = 480;
},
{
segmentType = line;
smooth = 0;
x = 260;
y = 480;
},
{
segmentType = line;
smooth = 0;
x = 200;
y = 380;
},
{
segmentType = line;
smooth = 0;
x = 120;
y = 480;
}
);
},
{
points = (
{
segmentType = line;
smooth = 0;
x = 340;
y = 300;
},
{
segmentType = line;
smooth = 0;
x = 200;
y = 220;
},
{
segmentType = line;
smooth = 0;
x = 180;
y = 160;
},
{
segmentType = line;
smooth = 0;
x = 240;
y = 60;
},
{
segmentType = line;
smooth = 0;
x = 320;
y = 100;
},
{
segmentType = line;
smooth = 0;
x = 340;
y = 160;
}
);
}
);
lib = {
};
name = a;
unicodes = (
);
width = 580;
};
regular = {
anchors = (
);
components = (
);
contours = (
{
points = (
{
segmentType = line;
smooth = 0;
x = 240;
y = 560;
},
{
segmentType = line;
smooth = 0;
x = 400;
y = 520;
},
{
segmentType = line;
smooth = 0;
x = 440;
y = 440;
},
{
segmentType = line;
smooth = 0;
x = 440;
y = 80;
},
{
segmentType = line;
smooth = 0;
x = 520;
y = 120;
},
{
segmentType = line;
smooth = 0;
x = 520;
y = 80;
},
{
segmentType = line;
smooth = 0;
x = 440;
y = 0;
},
{
segmentType = line;
smooth = 0;
x = 400;
y = 0;
},
{
segmentType = line;
smooth = 0;
x = 360;
y = 80;
},
{
segmentType = line;
smooth = 0;
x = 240;
y = 0;
},
{
segmentType = line;
smooth = 0;
x = 160;
y = 0;
},
{
segmentType = line;
smooth = 0;
x = 80;
y = 40;
},
{
segmentType = line;
smooth = 0;
x = 0;
y = 160;
},
{
segmentType = line;
smooth = 0;
x = 40;
y = 280;
},
{
segmentType = line;
smooth = 0;
x = 120;
y = 320;
},
{
segmentType = line;
smooth = 0;
x = 320;
y = 360;
},
{
segmentType = line;
smooth = 0;
x = 320;
y = 440;
},
{
segmentType = line;
smooth = 0;
x = 280;
y = 480;
},
{
segmentType = line;
smooth = 0;
x = 200;
y = 480;
},
{
segmentType = line;
smooth = 0;
x = 160;
y = 400;
},
{
segmentType = line;
smooth = 0;
x = 80;
y = 480;
}
);
},
{
points = (
{
segmentType = line;
smooth = 0;
x = 320;
y = 320;
},
{
segmentType = line;
smooth = 0;
x = 160;
y = 240;
},
{
segmentType = line;
smooth = 0;
x = 120;
y = 160;
},
{
segmentType = line;
smooth = 0;
x = 200;
y = 40;
},
{
segmentType = line;
smooth = 0;
x = 280;
y = 80;
},
{
segmentType = line;
smooth = 0;
x = 320;
y = 160;
}
);
}
);
lib = {
};
name = a;
unicodes = (
);
width = 580;
};
};
};
name = d;
unicodes = (
);
width = 760;
};
regular = {
anchors = (
);
components = (
);
contours = (
{
points = (
{
segmentType = line;
smooth = 0;
x = 580;
y = 840;
},
{
segmentType = line;
smooth = 0;
x = 580;
y = 80;
},
{
segmentType = line;
smooth = 0;
x = 620;
y = 80;
},
{
segmentType = line;
smooth = 0;
x = 700;
y = 120;
},
{
segmentType = line;
smooth = 0;
x = 700;
y = 80;
},
{
segmentType = line;
smooth = 0;
x = 620;
y = 0;
},
{
segmentType = line;
smooth = 0;
x = 540;
y = 0;
},
{
segmentType = line;
smooth = 0;
x = 500;
y = 80;
},
{
segmentType = line;
smooth = 0;
x = 460;
y = 40;
},
{
segmentType = line;
smooth = 0;
x = 380;
y = 0;
},
{
segmentType = line;
smooth = 0;
x = 300;
y = 0;
},
{
segmentType = line;
smooth = 0;
x = 180;
y = 40;
},
{
segmentType = line;
smooth = 0;
x = 100;
y = 200;
},
{
segmentType = line;
smooth = 0;
x = 100;
y = 360;
},
{
segmentType = line;
smooth = 0;
x = 180;
y = 520;
},
{
segmentType = line;
smooth = 0;
x = 300;
y = 560;
},
{
segmentType = line;
smooth = 0;
x = 380;
y = 560;
},
{
segmentType = line;
smooth = 0;
x = 460;
y = 520;
},
{
segmentType = line;
smooth = 0;
x = 460;
y = 720;
},
{
segmentType = line;
smooth = 0;
x = 380;
y = 760;
}
);
},
{
points = (
{
segmentType = line;
smooth = 0;
x = 340;
y = 520;
},
{
segmentType = line;
smooth = 0;
x = 260;
y = 480;
},
{
segmentType = line;
smooth = 0;
x = 220;
y = 280;
},
{
segmentType = line;
smooth = 0;
x = 260;
y = 80;
},
{
segmentType = line;
smooth = 0;
x = 340;
y = 40;
},
{
segmentType = line;
smooth = 0;
x = 420;
y = 80;
},
{
segmentType = line;
smooth = 0;
x = 460;
y = 160;
},
{
segmentType = line;
smooth = 0;
x = 460;
y = 400;
},
{
segmentType = line;
smooth = 0;
x = 420;
y = 480;
}
);
}
);
lib = {
};
name = d;
unicodes = (
);
width = 760;
};
};
com.typemytype.robofont.mark = (
0.001,
0.822,
0.283,
1
);
};
width = 760;
},
{
anchors = (
{
name = bottom;
pos = (300,0);
},
{
name = center;
pos = (460,280);
},
{
name = hook;
pos = (460,760);
},
{
name = right;
pos = (520,840);
},
{
name = top;
pos = (460,840);
},
{
name = topright;
pos = (620,840);
}
);
layerId = master01;
shapes = (
{
closed = 1;
nodes = (
(320,0,l),
(400,40,l),
(440,80,l),
(480,0,l),
(560,0,l),
(640,80,l),
(640,120,l),
(560,80,l),
(520,80,l),
(520,840,l),
(320,760,l),
(400,720,l),
(400,520,l),
(320,560,l),
(240,560,l),
(120,520,l),
(40,360,l),
(40,200,l),
(120,40,l),
(240,0,l)
);
},
{
closed = 1;
nodes = (
(200,80,l),
(160,280,l),
(200,480,l),
(280,520,l),
(360,480,l),
(400,400,l),
(400,160,l),
(360,80,l),
(280,40,l)
);
}
);
width = 640;
},
{
anchors = (
{
name = bottom;
pos = (280,0);
},
{
name = center;
pos = (420,280);
},
{
name = hook;
pos = (420,800);
},
{
name = right;
pos = (440,840);
},
{
name = top;
pos = (420,840);
},
{
name = topright;
pos = (580,840);
}
);
layerId = m003;
metricLeft = "=o";
metricRight = "=|n";
shapes = (
{
closed = 1;
nodes = (
(320,0,l),
(360,40,l),
(400,80,l),
(440,0,l),
(480,0,l),
(560,40,l),
(560,80,l),
(480,40,l),
(440,120,l),
(440,840,l),
(320,800,l),
(400,720,l),
(400,480,l),
(320,560,l),
(200,560,l),
(120,520,l),
(40,320,l),
(40,240,l),
(120,40,l),
(240,0,l)
);
},
{
closed = 1;
nodes = (
(160,80,l),
(120,280,l),
(160,480,l),
(240,520,l),
(320,520,l),
(400,440,l),
(400,120,l),
(320,40,l),
(240,40,l)
);
}
);
width = 600;
}
);
unicode = 100;
},
{
glyphname = eth;
lastChange = "2021-06-16 22:30:26 +0000";
layers = (
{
layerId = m003;
shapes = (
{
closed = 1;
nodes = (
(440,40,l),
(520,200,l),
(520,480,l),
(440,720,l),
(360,800,l),
(240,840,l),
(200,840,l),
(200,800,l),
(240,800,l),
(360,760,l),
(400,680,l),
(472,480,l),
(480,400,l),
(440,480,l),
(320,560,l),
(280,560,l),
(120,480,l),
(80,400,l),
(40,240,l),
(120,80,l),
(280,0,l),
(360,0,l)
);
},
{
closed = 1;
nodes = (
(280,40,l),
(160,120,l),
(120,240,l),
(120,360,l),
(160,440,l),
(280,520,l),
(320,520,l),
(440,440,l),
(480,360,l),
(480,240,l),
(440,120,l),
(360,40,l)
);
},
{
closed = 1;
nodes = (
(520,760,l),
(600,840,l),
(280,680,l),
(200,600,l)
);
}
);
width = 600;
},
{
layerId = master01;
shapes = (
{
closed = 1;
nodes = (
(520,80,l),
(600,200,l),
(600,480,l),
(520,680,l),
(400,800,l),
(240,840,l),
(200,840,l),
(200,800,l),
(240,800,l),
(360,760,l),
(440,640,l),
(472,480,l),
(480,440,l),
(440,480,l),
(400,520,l),
(280,560,l),
(120,480,l),
(80,400,l),
(40,280,l),
(120,80,l),
(280,0,l),
(400,0,l)
);
},
{
closed = 1;
nodes = (
(280,80,l),
(200,160,l),
(160,240,l),
(160,320,l),
(200,400,l),
(280,480,l),
(360,480,l),
(440,400,l),
(480,320,l),
(480,240,l),
(440,160,l),
(360,80,l)
);
},
{
closed = 1;
nodes = (
(640,760,l),
(600,800,l),
(240,640,l),
(280,600,l)
);
}
);
width = 680;
},
{
layerId = "EBA0A543-5703-488C-9449-531557917997";
shapes = (
{
closed = 1;
nodes = (
(600,80,l),
(680,320,l),
(680,560,l),
(600,680,l),
(480,800,l),
(320,840,l),
(240,840,l),
(160,760,l),
(280,760,l),
(400,720,l),
(440,640,l),
(480,520,l),
(480,480,l),
(440,560,l),
(360,600,l),
(280,600,l),
(120,520,l),
(40,400,l),
(40,200,l),
(120,80,l),
(280,0,l),
(440,0,l)
);
},
{
closed = 1;
nodes = (
(280,120,l),
(240,200,l),
(240,360,l),
(280,440,l),
(360,480,l),
(361,480,l),
(440,440,l),
(480,360,l),
(480,200,l),
(440,120,l),
(361,80,l),
(360,80,l)
);
},
{
closed = 1;
nodes = (
(720,760,l),
(640,840,l),
(160,680,l),
(240,600,l)
);
}
);
width = 700;
}
);
unicode = 240;
},
{
glyphname = dhook;
lastChange = "2021-06-30 15:09:32 +0000";
layers = (
{
anchors = (
{
name = bottom;
pos = (280,0);
},
{
name = hook;
pos = (420,800);
},
{
name = right;
pos = (440,840);
}
);
layerId = m003;
shapes = (
{
closed = 1;
nodes = (
(320,0,l),
(360,40,l),
(400,80,l),
(440,0,l),
(480,0,l),
(560,40,l),
(560,80,l),
(480,40,l),
(440,120,l),
(440,840,l),
(400,800,l),
(400,480,l),
(320,560,l),
(200,560,l),
(120,520,l),
(40,320,l),
(40,240,l),
(120,40,l),
(240,0,l)
);
},
{
closed = 1;
nodes = (
(160,80,l),
(120,280,l),
(160,480,l),
(240,520,l),
(320,520,l),
(400,440,l),
(400,120,l),
(320,40,l),
(240,40,l)
);
},
{
pos = (240,-120);
ref = _hooktopright;
}
);
width = 600;
},
{
anchors = (
{
name = bottom;
pos = (300,0);
},
{
name = hook;
pos = (460,760);
},
{
name = right;
pos = (520,840);
}
);
layerId = master01;
shapes = (
{
closed = 1;
nodes = (
(320,0,l),
(400,40,l),
(440,80,l),
(480,0,l),
(560,0,l),
(640,80,l),
(640,120,l),
(560,80,l),
(520,80,l),
(520,840,l),
(400,760,l),
(400,520,l),
(320,560,l),
(240,560,l),
(120,520,l),
(40,360,l),
(40,200,l),
(120,40,l),
(240,0,l)
);
},
{
closed = 1;
nodes = (
(200,80,l),
(160,280,l),
(200,480,l),
(280,520,l),
(360,480,l),
(400,400,l),
(400,160,l),
(360,80,l),
(280,40,l)
);
},
{
pos = (240,-160);
ref = _hooktopright;
}
);
width = 640;
},
{
anchors = (
{
name = bottom;
pos = (360,0);
},
{
name = hook;
pos = (540,760);
},
{
name = right;
pos = (640,840);
}
);
layerId = "EBA0A543-5703-488C-9449-531557917997";
shapes = (
{
closed = 1;
nodes = (
(400,0,l),
(480,80,l),
(520,120,l),
(560,0,l),
(600,0,l),
(760,120,l),
(760,200,l),
(680,160,l),
(640,160,l),
(640,840,l),
(440,760,l),
(440,520,l),
(360,600,l),
(280,600,l),
(160,560,l),
(40,400,l),
(40,200,l),
(160,40,l),
(320,0,l)
);
},
{
closed = 1;
nodes = (
(240,240,l),
(240,320,l),
(240,400,l),
(320,480,l),
(400,480,l),
(440,400,l),
(440,200,l),
(400,120,l),
(320,120,l)
);
},
{
pos = (280,-160);
ref = _hooktopright;
}
);
width = 760;
}
);
unicode = 599;
},
{
glyphname = dtail;
lastChange = "2021-06-30 15:06:23 +0000";
layers = (
{
anchors = (
{
name = bottom;
pos = (280,0);
},
{
name = hook;
pos = (420,800);
},
{
name = right;
pos = (440,840);
}
);
layerId = m003;
shapes = (
{
closed = 1;
nodes = (
(320,0,l),
(360,40,l),
(400,80,l),
(400,0,l),
(440,0,l),
(440,120,l),
(440,840,l),
(320,800,l),
(400,720,l),
(400,480,l),
(320,560,l),
(200,560,l),
(120,520,l),
(40,320,l),
(40,240,l),
(120,40,l),
(240,0,l)
);
},
{
closed = 1;
nodes = (
(160,80,l),
(120,280,l),
(160,480,l),
(240,520,l),
(320,520,l),
(400,440,l),
(400,120,l),
(320,40,l),
(240,40,l)
);
},
{
pos = (240,0);
ref = _hookbottomright;
}
);
width = 600;
},
{
anchors = (
{
name = bottom;
pos = (300,0);
},
{
name = hook;
pos = (460,760);
},
{
name = right;
pos = (520,840);
}
);
layerId = master01;
shapes = (
{
closed = 1;
nodes = (
(320,0,l),
(400,40,l),
(440,80,l),
(400,0,l),
(520,0,l),
(520,80,l),
(520,840,l),
(320,760,l),
(400,720,l),
(400,520,l),
(320,560,l),
(240,560,l),
(120,520,l),
(40,360,l),
(40,200,l),
(120,40,l),
(240,0,l)
);
},
{
closed = 1;
nodes = (
(200,80,l),
(160,280,l),
(200,480,l),
(280,520,l),
(360,480,l),
(400,400,l),
(400,160,l),
(360,80,l),
(280,40,l)
);
},
{
pos = (240,0);
ref = _hookbottomright;
}
);
width = 640;
},
{
anchors = (
{
name = bottom;
pos = (360,0);
},
{
name = hook;
pos = (540,760);
},
{
name = right;
pos = (640,840);
}
);
layerId = "EBA0A543-5703-488C-9449-531557917997";
shapes = (
{
closed = 1;
nodes = (
(400,0,l),
(480,80,l),
(520,120,l),
(440,0,l),
(640,0,l),
(640,160,l),
(640,840,l),
(360,760,l),
(440,680,l),
(440,520,l),
(360,600,l),
(280,600,l),
(160,560,l),
(40,400,l),
(40,200,l),
(160,40,l),
(320,0,l)
);
},
{
closed = 1;
nodes = (
(240,240,l),
(240,320,l),
(240,400,l),
(320,480,l),
(400,480,l),
(440,400,l),
(440,200,l),
(400,120,l),
(320,120,l)
);
},
{
pos = (280,0);
ref = _hookbottomright;
}
);
width = 720;
}
);
metricLeft = "=d";
metricRight = "=d";
unicode = 598;
},
{
glyphname = e;
lastChange = "2021-06-26 13:13:53 +0000";
layers = (
{
anchors = (
{
name = bottom;
pos = (360,0);
},
{
name = ogonek;
pos = (400,0);
},
{
name = right;
pos = (560,0);
},
{
name = top;
pos = (360,600);
}
);
layerId = "EBA0A543-5703-488C-9449-531557917997";
shapes = (
{
closed = 1;
nodes = (
(440,0,l),
(520,40,l),
(640,200,l),
(600,240,l),
(480,120,l),
(400,80,l),
(320,120,l),
(240,240,l),
(240,320,l),
(280,480,l),
(360,520,l),
(440,480,l),
(440,400,l),
(190,300,l),
(187,272,l),
(520,320,l),
(600,440,l),
(560,560,l),
(440,600,l),
(280,600,l),
(160,560,l),
(40,400,l),
(40,200,l),
(160,40,l),
(320,0,l)
);
}
);
userData = {
com.typemytype.robofont.layerData = {
background = {
anchors = (
);
components = (
);
contours = (
{
points = (
{
segmentType = line;
smooth = 0;
x = 440;
y = 480;
},
{
segmentType = line;
smooth = 0;
x = 360;
y = 520;
},
{
segmentType = line;
smooth = 0;
x = 280;
y = 480;
},
{
segmentType = line;
smooth = 0;
x = 240;
y = 360;
},
{
segmentType = line;
smooth = 0;
x = 240;
y = 240;
},
{
segmentType = line;
smooth = 0;
x = 320;
y = 120;
},
{
segmentType = line;
smooth = 0;
x = 400;
y = 80;
},
{
segmentType = line;
smooth = 0;
x = 480;
y = 120;
},
{
segmentType = line;
smooth = 0;
x = 560;
y = 240;
},
{
segmentType = line;
smooth = 0;
x = 640;
y = 200;
},
{
segmentType = line;
smooth = 0;
x = 520;
y = 40;
},
{
segmentType = line;
smooth = 0;
x = 440;
y = 0;
},
{
segmentType = line;
smooth = 0;
x = 320;
y = 0;
},
{
segmentType = line;
smooth = 0;
x = 160;
y = 40;
},
{
segmentType = line;
smooth = 0;
x = 40;
y = 200;
},
{
segmentType = line;
smooth = 0;
x = 40;
y = 400;
},
{
segmentType = line;
smooth = 0;
x = 160;
y = 560;
},
{
segmentType = line;
smooth = 0;
x = 320;
y = 600;
},
{
segmentType = line;
smooth = 0;
x = 440;
y = 600;
},
{
segmentType = line;
smooth = 0;
x = 560;
y = 560;
},
{
segmentType = line;
smooth = 0;
x = 600;
y = 440;
},
{
segmentType = line;
smooth = 0;
x = 520;
y = 360;
},
{
segmentType = line;
smooth = 0;
x = 440;
y = 360;
}
);
}
);
lib = {
};
name = e;
unicodes = (
);
width = 640;
};
regular = {
anchors = (
);
components = (
);
contours = (
{
points = (
{
segmentType = line;
smooth = 0;
x = 240;
y = 560;
},
{
segmentType = line;
smooth = 0;
x = 320;
y = 560;
},
{
segmentType = line;
smooth = 0;
x = 440;
y = 520;
},
{
segmentType = line;
smooth = 0;
x = 520;
y = 400;
},
{
segmentType = line;
smooth = 0;
x = 480;
y = 320;
},
{
segmentType = line;
smooth = 0;
x = 160;
y = 240;
},
{
segmentType = line;
smooth = 0;
x = 200;
y = 80;
},
{
segmentType = line;
smooth = 0;
x = 320;
y = 40;
},
{
segmentType = line;
smooth = 0;
x = 400;
y = 80;
},
{
segmentType = line;
smooth = 0;
x = 480;
y = 160;
},
{
segmentType = line;
smooth = 0;
x = 520;
y = 120;
},
{
segmentType = line;
smooth = 0;
x = 440;
y = 40;
},
{
segmentType = line;
smooth = 0;
x = 360;
y = 0;
},
{
segmentType = line;
smooth = 0;
x = 240;
y = 0;
},
{
segmentType = line;
smooth = 0;
x = 120;
y = 40;
},
{
segmentType = line;
smooth = 0;
x = 40;
y = 200;
},
{
segmentType = line;
smooth = 0;
x = 40;
y = 360;
},
{
segmentType = line;
smooth = 0;
x = 120;
y = 520;
}
);
},
{
points = (
{
segmentType = line;
smooth = 0;
x = 280;
y = 520;
},
{
segmentType = line;
smooth = 0;
x = 200;
y = 480;
},
{
segmentType = line;
smooth = 0;
x = 160;
y = 280;
},
{
segmentType = line;
smooth = 0;
x = 360;
y = 360;
},
{
segmentType = line;
smooth = 0;
x = 360;
y = 480;
}
);
}
);
lib = {
};
name = e;
unicodes = (
);
width = 640;
};
};
com.typemytype.robofont.mark = (
0.001,
0.822,
0.283,
1
);
};
width = 640;
},
{
anchors = (
{
name = bottom;
pos = (300,0);
},
{
name = ogonek;
pos = (320,0);
},
{
name = right;
pos = (480,0);
},
{
name = top;
pos = (280,560);
}
);
layerId = master01;
shapes = (
{
closed = 1;
nodes = (
(360,0,l),
(440,40,l),
(520,120,l),
(480,160,l),
(400,80,l),
(320,40,l),
(200,80,l),
(162,232,l),
(155,257,l),
(200,480,l),
(280,520,l),
(360,480,l),
(360,360,l),
(110,260,l),
(108,227,l),
(480,320,l),
(520,400,l),
(440,520,l),
(320,560,l),
(240,560,l),
(120,520,l),
(40,360,l),
(40,200,l),
(120,40,l),
(240,0,l)
);
}
);
width = 540;
},
{
anchors = (
{
name = bottom;
pos = (320,0);
},
{
name = ogonek;
pos = (280,0);
},
{
name = right;
pos = (480,0);
},
{
name = top;
pos = (300,560);
}
);
layerId = m003;
metricLeft = "=o";
metricRight = "=o";
shapes = (
{
closed = 1;
nodes = (
(360,0,l),
(440,40,l),
(520,120,l),
(520,160,l),
(360,40,l),
(280,40,l),
(160,80,l),
(120,200,l),
(120,320,l),
(170,490,l),
(280,520,l),
(400,480,l),
(440,360,l),
(120,281,l),
(120,280,l),
(480,320,l),
(520,400,l),
(440,520,l),
(320,560,l),
(280,560,l),
(120,520,l),
(40,360,l),
(40,200,l),
(120,40,l),
(280,0,l)
);
}
);
width = 560;
}
);
unicode = 101;
},
{
glyphname = eopen;
lastChange = "2021-06-30 17:52:49 +0000";
layers = (
{
anchors = (
{
name = bottom;
pos = (280,0);
},
{
name = top;
pos = (280,560);
}
);
layerId = m003;
shapes = (
{
closed = 1;
nodes = (
(320,0,l),
(400,40,l),
(440,80,l),
(480,120,l),
(440,160,l),
(400,160,l),
(400,120,l),
(360,80,l),
(280,40,l),
(160,80,l),
(120,160,l),
(120,200,l),
(280,280,l),
(360,280,l),
(360,320,l),
(280,320,l),
(160,400,l),
(160,480,l),
(280,520,l),
(400,480,l),
(400,440,l),
(440,440,l),
(440,520,l),
(320,560,l),
(240,560,l),
(120,520,l),
(40,440,l),
(80,360,l),
(240,320,l),
(120,280,l),
(40,200,l),
(40,160,l),
(120,40,l),
(240,0,l)
);
}
);
width = 520;
},
{
anchors = (
{
name = bottom;
pos = (280,0);
},
{
name = top;
pos = (280,560);
}
);
layerId = master01;
shapes = (
{
closed = 1;
nodes = (
(360,0,l),
(440,40,l),
(480,80,l),
(520,160,l),
(480,200,l),
(400,200,l),
(400,120,l),
(360,80,l),
(280,40,l),
(200,80,l),
(160,160,l),
(160,200,l),
(280,280,l),
(360,280,l),
(360,320,l),
(280,320,l),
(200,360,l),
(200,440,l),
(280,520,l),
(400,480,l),
(400,400,l),
(480,400,l),
(480,480,l),
(400,560,l),
(240,560,l),
(120,520,l),
(40,440,l),
(80,360,l),
(200,320,l),
(80,280,l),
(40,200,l),
(40,120,l),
(120,40,l),
(200,0,l)
);
}
);
width = 560;
},
{
anchors = (
{
name = bottom;
pos = (300,0);
},
{
name = top;
pos = (320,600);
}
);
layerId = "EBA0A543-5703-488C-9449-531557917997";
shapes = (
{
closed = 1;
nodes = (
(360,0,l),
(520,40,l),
(560,80,l),
(560,160,l),
(520,200,l),
(400,200,l),
(400,120,l),
(320,80,l),
(280,80,l),
(260,100,l),
(240,120,l),
(240,200,l),
(360,280,l),
(400,280,l),
(400,320,l),
(360,320,l),
(280,360,l),
(240,480,l),
(320,520,l),
(400,480,l),
(400,400,l),
(520,400,l),
(560,480,l),
(520,560,l),
(320,600,l),
(120,560,l),
(40,480,l),
(80,360,l),
(200,320,l),
(80,280,l),
(40,200,l),
(40,160,l),
(80,80,l),
(240,0,l)
);
}
);
width = 600;
}
);
metricLeft = "=40";
metricRight = "=40";
unicode = 603;
},
{
glyphname = schwa;
lastChange = "2021-06-26 11:12:00 +0000";
layers = (
{
layerId = m003;
shapes = (
{
closed = 1;
nodes = (
(200,560,l),
(120,520,l),
(80,440,l),
(80,400,l),
(200,520,l),
(280,520,l),
(400,480,l),
(440,360,l),
(440,240,l),
(390,70,l),
(280,40,l),
(160,80,l),
(120,240,l),
(440,279,l),
(440,280,l),
(80,280,l),
(40,160,l),
(120,40,l),
(240,0,l),
(280,0,l),
(440,40,l),
(520,200,l),
(520,360,l),
(440,520,l),
(280,560,l)
);
}
);
width = 560;
},
{
layerId = master01;
shapes = (
{
closed = 1;
nodes = (
(180,560,l),
(100,520,l),
(20,440,l),
(60,400,l),
(140,480,l),
(220,520,l),
(340,480,l),
(400,320,l),
(400,280,l),
(340,80,l),
(260,40,l),
(180,80,l),
(180,240,l),
(400,280,l),
(400,320,l),
(100,320,l),
(20,160,l),
(100,40,l),
(220,0,l),
(300,0,l),
(420,40,l),
(500,200,l),
(500,360,l),
(420,520,l),
(300,560,l)
);
}
);
width = 540;
},
{
layerId = "EBA0A543-5703-488C-9449-531557917997";
shapes = (
{
closed = 1;
nodes = (
(200,600,l),
(120,560,l),
(0,400,l),
(40,360,l),
(160,480,l),
(240,520,l),
(320,480,l),
(400,360,l),
(400,280,l),
(360,120,l),
(280,80,l),
(200,120,l),
(200,240,l),
(400,280,l),
(400,320,l),
(120,320,l),
(0,240,l),
(40,80,l),
(200,0,l),
(360,0,l),
(480,40,l),
(600,200,l),
(600,400,l),
(480,560,l),
(320,600,l)
);
}
);
width = 640;
}
);
metricLeft = "=|e";
metricRight = "=|e";
unicode = 601;
},
{
glyphname = ezh;
lastChange = "2021-06-30 14:02:51 +0000";
layers = (
{
anchors = (
{
name = bottom;
pos = (280,-280);
},
{
name = top;
pos = (300,560);
}
);
layerId = m003;
shapes = (
{
closed = 1;
nodes = (
(320,-280,l),
(440,-200,l),
(520,-80,l),
(520,40,l),
(480,120,l),
(360,200,l),
(280,200,l),
(470,480,l),
(520,520,l),
(120,520,l),
(80,560,l),
(40,360,l),
(80,360,l),
(120,480,l),
(400,480,l),
(200,200,l),
(200,160,l),
(320,160,l),
(400,120,l),
(440,40,l),
(440,-80,l),
(360,-200,l),
(280,-240,l),
(160,-200,l),
(120,-120,l),
(120,0,l),
(80,0,l),
(40,-80,l),
(40,-160,l),
(120,-240,l),
(240,-280,l)
);
}
);
width = 560;
},
{
anchors = (
{
name = bottom;
pos = (280,-280);
},
{
name = top;
pos = (280,560);
}
);
layerId = master01;
metricLeft = "=40";
metricRight = "=40";
shapes = (
{
closed = 1;
nodes = (
(320,-280,l),
(440,-240,l),
(520,-120,l),
(520,0,l),
(480,120,l),
(360,200,l),
(310,200,l),
(511,509,l),
(520,520,l),
(120,520,l),
(80,560,l),
(40,360,l),
(80,360,l),
(160,480,l),
(360,480,l),
(190,200,l),
(190,160,l),
(310,160,l),
(360,120,l),
(400,0,l),
(400,-120,l),
(360,-210,l),
(280,-240,l),
(200,-200,l),
(160,-120,l),
(160,0,l),
(120,0,l),
(40,-80,l),
(40,-160,l),
(120,-240,l),
(240,-280,l)
);
}
);
width = 560;
},
{
anchors = (
{
name = bottom;
pos = (280,-240);
},
{
name = top;
pos = (320,600);
}
);
layerId = "EBA0A543-5703-488C-9449-531557917997";
metricLeft = "=0";
metricRight = "=0";
shapes = (
{
closed = 1;
nodes = (
(360,-280,l),
(520,-200,l),
(600,-80,l),
(600,80,l),
(520,160,l),
(440,200,l),
(391,200,l),
(600,520,l),
(600,560,l),
(120,560,l),
(80,600,l),
(40,360,l),
(80,360,l),
(200,480,l),
(360,480,l),
(200,200,l),
(200,160,l),
(360,160,l),
(400,80,l),
(400,40,l),
(400,-40,l),
(360,-160,l),
(280,-200,l),
(240,-200,l),
(200,-160,l),
(200,40,l),
(80,40,l),
(0,-80,l),
(80,-200,l),
(120,-240,l),
(200,-280,l)
);
}
);
width = 600;
}
);
unicode = 658;
},
{
glyphname = f;
lastChange = "2021-06-30 21:09:06 +0000";
layers = (
{
anchors = (
{
name = bottom;
pos = (220,0);
},
{
name = top;
pos = (320,880);
}
);
layerId = "EBA0A543-5703-488C-9449-531557917997";
shapes = (
{
closed = 1;
nodes = (
(320,440,l),
(360,480,l),
(440,480,l),
(440,560,l),
(320,560,l),
(280,640,l),
(280,720,l),
(320,760,l),
(360,760,l),
(320,680,l),
(440,600,l),
(520,680,l),
(480,800,l),
(360,840,l),
(200,800,l),
(160,760,l),
(120,680,l),
(120,560,l),
(40,560,l),
(40,480,l),
(120,440,l),
(120,80,l),
(40,0,l),
(400,0,l),
(320,80,l)
);
}
);
userData = {
com.typemytype.robofont.layerData = {
background = {
anchors = (
);
components = (
);
contours = (
{
points = (
{
segmentType = line;
smooth = 0;
x = 300;
y = 560;
},
{
segmentType = line;
smooth = 0;
x = 420;
y = 560;
},
{
segmentType = line;
smooth = 0;
x = 420;
y = 500;
},
{
segmentType = line;
smooth = 0;
x = 360;
y = 500;
},
{
segmentType = line;
smooth = 0;
x = 300;
y = 460;
},
{
segmentType = line;
smooth = 0;
x = 300;
y = 80;
},
{
segmentType = line;
smooth = 0;
x = 400;
y = 0;
},
{
segmentType = line;
smooth = 0;
x = 60;
y = 0;
},
{
segmentType = line;
smooth = 0;
x = 140;
y = 80;
},
{
segmentType = line;
smooth = 0;
x = 140;
y = 460;
},
{
segmentType = line;
smooth = 0;
x = 80;
y = 500;
},
{
segmentType = line;
smooth = 0;
x = 80;
y = 560;
},
{
segmentType = line;
smooth = 0;
x = 140;
y = 560;
},
{
segmentType = line;
smooth = 0;
x = 140;
y = 680;
},
{
segmentType = line;
smooth = 0;
x = 180;
y = 760;
},
{
segmentType = line;
smooth = 0;
x = 220;
y = 800;
},
{
segmentType = line;
smooth = 0;
x = 320;
y = 840;
},
{
segmentType = line;
smooth = 0;
x = 500;
y = 800;
},
{
segmentType = line;
smooth = 0;
x = 500;
y = 680;
},
{
segmentType = line;
smooth = 0;
x = 440;
y = 620;
},
{
segmentType = line;
smooth = 0;
x = 360;
y = 660;
},
{
segmentType = line;
smooth = 0;
x = 400;
y = 740;
},
{
segmentType = line;
smooth = 0;
x = 340;
y = 780;
},
{
segmentType = line;
smooth = 0;
x = 300;
y = 720;
}
);
}
);
lib = {
};
name = f;
unicodes = (
);
width = 480;
};
regular = {
anchors = (
);
components = (
);
contours = (
{
points = (
{
segmentType = line;
smooth = 0;
x = 260;
y = 520;
},
{
segmentType = line;
smooth = 0;
x = 380;
y = 520;
},
{
segmentType = line;
smooth = 0;
x = 380;
y = 480;
},
{
segmentType = line;
smooth = 0;
x = 340;
y = 480;
},
{
segmentType = line;
smooth = 0;
x = 260;
y = 440;
},
{
segmentType = line;
smooth = 0;
x = 260;
y = 80;
},
{
segmentType = line;
smooth = 0;
x = 340;
y = 0;
},
{
segmentType = line;
smooth = 0;
x = 60;
y = 0;
},
{
segmentType = line;
smooth = 0;
x = 140;
y = 80;
},
{
segmentType = line;
smooth = 0;
x = 140;
y = 440;
},
{
segmentType = line;
smooth = 0;
x = 100;
y = 480;
},
{
segmentType = line;
smooth = 0;
x = 100;
y = 520;
},
{
segmentType = line;
smooth = 0;
x = 140;
y = 520;
},
{
segmentType = line;
smooth = 0;
x = 140;
y = 680;
},
{
segmentType = line;
smooth = 0;
x = 180;
y = 760;
},
{
segmentType = line;
smooth = 0;
x = 220;
y = 800;
},
{
segmentType = line;
smooth = 0;
x = 300;
y = 840;
},
{
segmentType = line;
smooth = 0;
x = 460;
y = 800;
},
{
segmentType = line;
smooth = 0;
x = 460;
y = 680;
},
{
segmentType = line;
smooth = 0;
x = 420;
y = 640;
},
{
segmentType = line;
smooth = 0;
x = 340;
y = 680;
},
{
segmentType = line;
smooth = 0;
x = 380;
y = 760;
},
{
segmentType = line;
smooth = 0;
x = 300;
y = 800;
},
{
segmentType = line;
smooth = 0;
x = 260;
y = 720;
}
);
}
);
lib = {
};
name = f;
unicodes = (
);
width = 480;
};
};
com.typemytype.robofont.mark = (
0.001,
0.822,
0.283,
1
);
};
width = 480;
},
{
anchors = (
{
name = bottom;
pos = (160,0);
},
{
name = top;
pos = (260,840);
}
);
layerId = master01;
shapes = (
{
closed = 1;
nodes = (
(220,440,l),
(300,480,l),
(340,480,l),
(340,520,l),
(220,520,l),
(220,640,l),
(220,720,l),
(260,800,l),
(340,760,l),
(300,680,l),
(380,640,l),
(420,680,l),
(420,800,l),
(260,840,l),
(180,800,l),
(140,760,l),
(100,680,l),
(100,520,l),
(60,520,l),
(60,480,l),
(100,440,l),
(100,80,l),
(20,0,l),
(300,0,l),
(220,80,l)
);
}
);
width = 380;
},
{
anchors = (
{
name = bottom;
pos = (140,0);
},
{
name = top;
pos = (240,840);
}
);
layerId = m003;
metricLeft = "=n";
shapes = (
{
closed = 1;
nodes = (
(160,480,l),
(200,480,l),
(240,480,l),
(320,520,l),
(160,520,l),
(160,640,l),
(160,760,l),
(240,800,l),
(280,760,l),
(240,680,l),
(320,640,l),
(360,680,l),
(360,800,l),
(240,840,l),
(160,800,l),
(120,760,l),
(120,680,l),
(120,520,l),
(80,520,l),
(40,480,l),
(120,480,l),
(120,40,l),
(40,0,l),
(240,0,l),
(160,40,l)
);
}
);
width = 360;
}
);
unicode = 102;
},
